<?xml version="1.0" encoding="UTF-8" standalone="no"?>
<svg width="80px" height="80px" viewBox="0 0 80 80" version="1.1" xmlns="http://www.w3.org/2000/svg" xmlns:xlink="http://www.w3.org/1999/xlink" xmlns:sketch="http://www.bohemiancoding.com/sketch/ns">
    <!-- Generator: Sketch 3.3.3 (12081) - http://www.bohemiancoding.com/sketch -->
    <title>Custom_Dropout</title>
    <desc>Created with Sketch.</desc>
    <defs></defs>
    <g id="Page-1" stroke="none" stroke-width="1" fill="none" fill-rule="evenodd" sketch:type="MSPage">
        <g id="Custom_Dropout" sketch:type="MSArtboardGroup" stroke-width="3" stroke="#FFFFFF">
            <polygon id="Polygon-1" sketch:type="MSShapeGroup" points="40 0 42.2835524 0.065235843 44.5596564 0.260730586 46.8208877 0.585846566 49.0598707 1.03952332 51.2693023 1.62028106 53.4419757 2.32622545 55.5708043 3.15505388 57.648844 4.10406285 59.669317 5.17015692 61.6256327 6.34985869 63.5114101 7.63932023 65.3204982 9.03433557 67.046996 10.5303545 68.6852722 12.1224973 70.229983 13.8055706 71.6760898 15.5740848 73.0188759 17.4222712 74.2539612 19.3441015 75.3773172 21.3333071 76.3852798 23.3833995 77.2745612 25.4876918 78.0422607 27.6393202 78.6858742 29.8312666 79.2033024 32.0563813 79.5928577 34.3074065 79.8532692 36.5769997 79.9836877 38.857758 79.9836877 41.142242 79.8532692 43.4230003 79.5928577 45.6925935 79.2033024 47.9436187 78.6858742 50.1687334 78.0422607 52.3606798 77.2745612 54.5123082 76.3852798 56.6166005 75.3773172 58.6666929 74.2539612 60.6558985 73.0188759 62.5777288 71.6760898 64.4259152 70.229983 66.1944294 68.6852722 67.8775027 67.046996 69.4696455 65.3204982 70.9656644 63.5114101 72.3606798 61.6256327 73.6501413 59.669317 74.8298431 57.648844 75.8959371 55.5708043 76.8449461 53.4419757 77.6737745 51.2693023 78.3797189 49.0598707 78.9604767 46.8208877 79.4141534 44.5596564 79.7392694 42.2835524 79.9347642 40 80 37.7164476 79.9347642 35.4403436 79.7392694 33.1791123 79.4141534 30.9401293 78.9604767 28.7306977 78.3797189 26.5580243 77.6737745 24.4291957 76.8449461 22.351156 75.8959371 20.330683 74.8298431 18.3743673 73.6501413 16.4885899 72.3606798 14.6795018 70.9656644 12.953004 69.4696455 11.3147278 67.8775027 9.77001703 66.1944294 8.32391016 64.4259152 6.98112412 62.5777288 5.74603879 60.6558985 4.62268276 58.6666929 3.61472019 56.6166005 2.72543883 54.5123082 1.95773935 52.3606798 1.31412581 50.1687334 0.796697556 47.9436187 0.407142325 45.6925935 0.146730765 43.4230003 0.0163122869 41.142242 0.0163122869 38.857758 0.146730765 36.5769997 0.407142325 34.3074065 0.796697556 32.0563813 1.31412581 29.8312666 1.95773935 27.6393202 2.72543883 25.4876918 3.61472019 23.3833995 4.62268276 21.3333071 5.74603879 19.3441015 6.98112412 17.4222712 8.32391016 15.5740848 9.77001703 13.8055706 11.3147278 12.1224973 12.953004 10.5303545 14.6795018 9.03433557 16.4885899 7.63932023 18.3743673 6.34985869 20.330683 5.17015692 22.351156 4.10406285 24.4291957 3.15505388 26.5580243 2.32622545 28.7306977 1.62028106 30.9401293 1.03952332 33.1791123 0.585846566 35.4403436 0.260730586 37.7164476 0.065235843 "></polygon>
        </g>
    </g>
</svg>