<?xml version="1.0" encoding="UTF-8" standalone="no"?>
<svg width="140px" height="20px" viewBox="0 0 140 20" version="1.1" xmlns="http://www.w3.org/2000/svg" xmlns:xlink="http://www.w3.org/1999/xlink" xmlns:sketch="http://www.bohemiancoding.com/sketch/ns">
    <!-- Generator: Sketch Beta 3.3.2 (12041) - http://www.bohemiancoding.com/sketch -->
    <title>traitor-logo-reverse</title>
    <desc>Created with Sketch Beta.</desc>
    <defs></defs>
    <g id="Page-1" stroke="none" stroke-width="1" fill="none" fill-rule="evenodd" sketch:type="MSPage">
        <g id="01_Home" sketch:type="MSArtboardGroup" transform="translate(-40.000000, -71.000000)">
            <g id="traitor-logo-reverse" sketch:type="MSLayerGroup" transform="translate(40.000000, 71.000000)">
                <path d="M58.0652024,10.3947832 C58.3338981,10.2918266 58.718072,10.2885223 58.6907677,9.92817446 C58.6665937,9.61147881 58.2864198,9.5820875 58.0250285,9.46260924 C57.2083329,9.08939185 57.1483329,8.5180875 57.8744198,7.97773968 C58.0963329,7.81252228 58.3288546,7.67687011 58.2672894,7.37513098 C58.1973763,7.03182663 57.8827677,7.11252228 57.6363329,7.07078315 C56.6570285,6.90487011 56.4732024,6.45078315 57.0775503,5.67113098 C57.2422459,5.45860924 57.4455503,5.26539185 57.2916372,4.98382663 C57.1173763,4.66487011 56.8545937,4.85043533 56.6036372,4.88973968 C55.7206807,5.02834837 55.3086807,4.5380875 55.6307677,3.74765272 C55.7372024,3.4860875 55.976159,3.21947881 55.7156372,2.95617446 C55.446072,2.68382663 55.1838111,2.96852228 54.9250285,3.05478315 C54.1592894,3.30973968 53.6622459,2.96347881 53.7577242,2.23130489 C53.7965068,1.93443533 54.1006807,1.58365272 53.7436372,1.36226141 C53.3591155,1.12382663 53.1408546,1.55426141 52.864159,1.73339185 C52.242072,2.13634837 51.7222459,1.91304402 51.6090285,1.20034837 C51.5618981,0.90313098 51.7406807,0.483826632 51.3509416,0.361044024 C50.9728546,0.241913589 50.8558111,0.656174458 50.651985,0.886087502 C50.0836372,1.52695707 49.5086807,1.43321794 49.2151155,0.653217937 C49.1145937,0.386087502 49.0912894,0.000522284539 48.7622459,5.4540834e-07 C48.4453763,-0.000521193722 48.3977242,0.37339185 48.2765068,0.639826632 C47.8977242,1.47217446 47.3269416,1.53826141 46.783985,0.826261415 C46.6238111,0.616348371 46.5172024,0.36539185 46.1982459,0.409217937 C45.8052024,0.462957067 45.9382459,0.784870111 45.8984198,1.02156576 C45.7375503,1.97652228 45.2142459,2.21200055 44.4773763,1.6486962 C44.2688546,1.48921794 44.0773763,1.23443533 43.8036372,1.37443533 C43.4690285,1.54556576 43.6672894,1.88104402 43.6754633,2.14887011 C43.7046807,3.09687011 43.3215503,3.37930489 42.4653763,3.01460924 C42.2236372,2.91165272 41.9864198,2.73756576 41.7613763,2.98278315 C41.5766807,3.18382663 41.7187677,3.4100875 41.790072,3.63200055 C42.1269416,4.6806962 41.8178981,5.0260875 40.7264198,4.83356576 C40.5298981,4.79895707 40.3104198,4.69634837 40.174072,4.91060924 C40.0558111,5.09617446 40.1307677,5.29287011 40.2432894,5.47704402 C40.986072,6.69200055 40.9330285,6.81947881 39.5695503,7.07860924 C39.3911155,7.11252228 39.204159,7.14921794 39.1405068,7.31930489 C39.055985,7.54452228 39.2151155,7.71547881 39.3878111,7.82487011 C39.7126807,8.03060924 39.9905937,8.26573968 40.1735503,8.81634837 C39.0490285,8.81634837 38.0142459,8.78087011 36.9834633,8.83043533 C36.4224198,8.85739185 36.3253763,8.66173968 36.3229416,8.14643533 C36.314072,6.26660924 35.1645068,5.16747881 33.2664198,5.16487011 C30.8613763,5.16173968 28.4565068,5.16347881 26.0514633,5.16434837 C24.0490285,5.16521794 22.9945937,6.15600055 22.9434633,8.16191359 C22.930072,8.68904402 22.7377242,8.78295707 22.2775503,8.7700875 C21.2932024,8.74260924 20.3072894,8.77234837 19.3224198,8.7540875 C19.087985,8.74973968 18.7398111,8.91426141 18.6338981,8.61460924 C18.5189416,8.28904402 18.8311155,8.09547881 19.082072,7.95860924 C19.3345937,7.8206962 19.5358111,7.65721794 19.4672894,7.35843533 C19.4032894,7.07913098 19.1337242,7.10939185 18.9052024,7.07217446 C17.844159,6.89878315 17.6707677,6.51495707 18.2765068,5.64452228 C18.4394633,5.41026141 18.5685068,5.18834837 18.4151155,4.93617446 C18.2526807,4.66939185 18.0145937,4.8526962 17.7938981,4.88765272 C16.9232894,5.02504402 16.5090285,4.52504402 16.8304198,3.73913098 C16.9365068,3.47982663 17.182072,3.21913098 16.9036372,2.95113098 C16.6234633,2.68139185 16.371985,2.96939185 16.1158111,3.05687011 C15.3182459,3.32939185 14.851985,2.95756576 14.972159,2.13965272 C15.0114633,1.87287011 15.280159,1.56921794 14.9363329,1.35565272 C14.6137242,1.15513098 14.4248546,1.47182663 14.1966807,1.63495707 C13.4318111,2.1820875 12.9836372,1.99756576 12.8111155,1.10417446 C12.760159,0.839478806 12.8617242,0.445565763 12.515985,0.353217937 C12.1825937,0.264174458 12.0598111,0.622087502 11.8758111,0.835826632 C11.2655503,1.54452228 10.7573763,1.4620875 10.3994633,0.62139185 C10.2952894,0.376696198 10.3184198,-0.0210429329 9.92381113,0.00121793671 C9.61181113,0.0187831541 9.59894156,0.345739676 9.49372417,0.581565763 C9.10485461,1.45304402 8.56137635,1.55843533 8.01511548,0.874087502 C7.83528939,0.648696198 7.71511548,0.336870111 7.36102852,0.420348371 C6.94676765,0.517913589 7.15041982,0.897565763 7.08763722,1.15147881 C6.890072,1.95078315 6.38763722,2.18400055 5.77372417,1.72521794 C5.52155026,1.5366962 5.29876765,1.18730489 4.96381113,1.38713098 C4.67928939,1.55687011 4.87355026,1.91565272 4.87981113,2.19287011 C4.90015896,3.08678315 4.51094156,3.36991359 3.70520243,3.03321794 C3.43928939,2.9220875 3.17685461,2.72556576 2.91476765,2.99460924 C2.662072,3.25426141 2.94485461,3.4726962 3.02172417,3.69860924 C3.30589809,4.53460924 2.97633287,5.02747881 2.19041982,4.92765272 C1.90155026,4.89095707 1.55441982,4.56156576 1.34189809,4.97026141 C1.16328939,5.31373968 1.522072,5.52087011 1.70363722,5.76713098 C2.15963722,6.3860875 1.91024591,6.96573968 1.15772417,7.07426141 C0.866767651,7.11617446 0.454419825,6.93287011 0.348680694,7.36434837 C0.248680694,7.77217446 0.687115477,7.84365272 0.906593738,8.04747881 C1.53372417,8.63026141 1.42641982,9.14295707 0.615985042,9.48121794 C0.372158955,9.58295707 -0.028014958,9.54573968 0.00155025937,9.95200055 C0.0238111289,10.2586092 0.336506781,10.2864353 0.575985042,10.3913049 C1.48728939,10.7902614 1.56259374,11.3158266 0.802941564,11.9055658 C0.592332868,12.069044 0.333202433,12.2133918 0.375637216,12.5053918 C0.428506781,12.8681745 0.769550259,12.7549571 1.00833287,12.7956527 C1.97163722,12.9593049 2.19859374,13.4566962 1.61824591,14.2040005 C1.446072,14.4259136 1.27302852,14.6429571 1.39598504,14.8961745 C1.54015896,15.1932179 1.84902852,15.0262614 2.08885461,15.0186092 C3.10659374,14.9862614 3.35215896,15.3086962 2.97285461,16.2624353 C2.86468069,16.5340875 2.81963722,16.7904353 2.99024591,16.9920005 C3.19181113,17.2299136 3.40989809,16.9760005 3.61024591,16.8998266 C4.52033287,16.5544353 4.95389809,16.8248701 4.88798504,17.6966962 C4.86728939,17.9702614 4.65041982,18.3133918 4.94572417,18.5017397 C5.28885461,18.7205223 5.50902852,18.3478266 5.76676765,18.1859136 C6.47685461,17.7396527 6.99163722,17.9892179 7.10276765,18.8253918 C7.13772417,19.089044 6.97268069,19.4624353 7.38502852,19.5438266 C7.69720243,19.6053918 7.80068069,19.2900875 7.96224591,19.0953049 C8.62398504,18.2973918 9.15894156,18.3826092 9.51424591,19.3533918 C9.59285461,19.5681745 9.58311548,19.8535658 9.86572417,19.8876527 C10.2050285,19.9285223 10.2587677,19.6102614 10.368159,19.3833049 C10.8772024,18.3283484 11.2243329,18.2674788 11.9523329,19.1554788 C12.1151155,19.3540875 12.2857242,19.5139136 12.5088546,19.499131 C12.8285068,19.4779136 12.7424198,19.1469571 12.7888546,18.9509571 C13.062072,17.7977397 13.2735503,17.7104353 14.340159,18.3946092 C14.5328546,18.5182614 14.7198111,18.5655658 14.9067677,18.4789571 C15.1405068,18.3706092 15.0592894,18.1573918 15.0344198,17.9514788 C14.895985,16.8022614 15.2050285,16.5565223 16.3151155,16.9286962 C16.5476372,17.0066092 16.7902459,17.0608701 16.970072,16.8949571 C17.1406807,16.7375658 17.003985,16.5361745 16.9318111,16.3457397 C16.4978981,15.203131 16.711985,14.9495658 18.007985,15.0504353 C18.2072894,15.0659136 18.4392894,15.1342614 18.5547677,14.9203484 C18.6638111,14.7180875 18.522072,14.5422614 18.4003329,14.371131 C17.636159,13.2965223 17.7765068,12.9504353 19.0412024,12.7892179 C19.242072,12.7636527 19.478072,12.7982614 19.527985,12.5384353 C19.5695503,12.3227832 19.4497242,12.165044 19.2575503,12.0415658 C18.9770285,11.8612179 18.672159,11.6827832 18.6490285,11.283131 C18.7345937,11.2603484 18.7857242,11.2349571 18.8370285,11.2349571 C19.938072,11.2320005 21.0415503,11.2758266 22.1392894,11.215131 C22.8128546,11.1779136 22.9532024,11.4046962 22.9458981,12.0417397 C22.9274633,13.6179136 24.0825937,14.8008701 25.6577242,14.8198266 C28.294072,14.8518266 30.9311155,14.8469571 33.5676372,14.8205223 C34.883985,14.8074788 35.8434633,13.9720005 36.2629416,12.7532179 C36.4309416,12.2648701 35.9768546,11.5434788 36.6316372,11.3156527 C37.1232894,11.1445223 37.7208546,11.2777397 38.2714633,11.2761745 C38.647985,11.2753049 39.0258981,11.2577397 39.4010285,11.2824353 C39.607985,11.2960005 39.914072,11.1398266 39.9987677,11.4455658 C40.0589416,11.6620875 39.830072,11.7993049 39.6512894,11.8900875 C39.3697242,12.033044 39.136159,12.2462614 39.2114633,12.555131 C39.2904198,12.8787832 39.6403329,12.7544353 39.8836372,12.7993049 C40.736159,12.9565223 40.9838111,13.4867832 40.4785937,14.1257397 C40.2923329,14.3613918 40.052159,14.5808701 40.1883329,14.8798266 C40.3492024,15.2326962 40.6883329,15.0153049 40.952159,15.0076527 C41.8930285,14.9803484 42.1678111,15.3420875 41.8138981,16.2180875 C41.7083329,16.479131 41.6128546,16.7382614 41.7707677,16.9546092 C41.995985,17.2634788 42.2305937,16.951131 42.4488546,16.8735658 C43.3412024,16.5565223 43.7982459,16.8659136 43.6890285,17.7196527 C43.6542459,17.9909571 43.4375503,18.3356527 43.7505937,18.5144353 C44.0812024,18.7033049 44.3137242,18.3744353 44.5737242,18.1953049 C45.2615503,17.7212179 45.8006807,17.9888701 45.9025937,18.8238266 C45.9345937,19.0866092 45.7652024,19.455131 46.179985,19.5441745 C46.5005068,19.613044 46.6010285,19.2946092 46.7653763,19.1066092 C47.4718111,18.2982614 47.9396372,18.3686962 48.3138981,19.3561745 C48.3947677,19.5697397 48.3982459,19.8509571 48.6725068,19.8888701 C49.0163329,19.9361745 49.0678111,19.6125223 49.175985,19.3869571 C49.6789416,18.3375658 50.0372024,18.2744353 50.7516372,19.1513049 C50.9123329,19.3485223 51.0850285,19.517044 51.3126807,19.4935658 C51.6006807,19.4640005 51.5702459,19.1801745 51.6069416,18.9561745 C51.7876372,17.8532179 52.1852024,17.6789571 53.0876372,18.3337397 C53.2991155,18.4873049 53.4966807,18.5808701 53.7172024,18.4801745 C54.0083329,18.3473049 53.855985,18.1003484 53.820159,17.8773918 C53.667985,16.9286962 54.1210285,16.5177397 54.9665937,16.849044 C55.246072,16.9586092 55.5403329,17.1234788 55.766072,16.881044 C55.9685068,16.6636527 55.7347677,16.407131 55.6483329,16.1693918 C55.3342459,15.3055658 55.671985,14.9005223 56.5855503,15.0059136 C56.8488546,15.0363484 57.1858981,15.2394788 57.3572024,14.8944353 C57.4963329,14.6140875 57.2234633,14.4314788 57.0556372,14.2344353 C56.8318111,13.9716527 56.5838111,13.7092179 56.7890285,13.3107832 C56.964159,12.9704353 57.2133763,12.7909571 57.611985,12.787131 C57.8782459,12.7845223 58.2613763,12.9006962 58.342072,12.5166962 C58.4133763,12.1777397 58.0605068,12.0699136 57.8389416,11.8900875 C57.1438111,11.3260875 57.2354633,10.7126962 58.0652024,10.3947832 L58.0652024,10.3947832 Z M9.96415896,15.5617397 C6.76120243,15.563131 4.28885461,13.101044 4.29876765,9.92017446 C4.30850678,6.80887011 6.81650678,4.28921794 9.91824591,4.27460924 C13.0278111,4.26000055 15.6145937,6.84243533 15.6154633,9.9620875 C15.616159,13.0436527 13.076159,15.5605223 9.96415896,15.5617397 L9.96415896,15.5617397 Z M33.1509416,11.2706092 C33.5076372,11.299131 33.9272894,11.1603484 33.896159,11.7956527 C33.8655503,12.4229571 33.4542459,12.3704353 33.0452024,12.3706092 C30.7865937,12.3713049 28.5278111,12.3744353 26.2692024,12.3667832 C25.8584198,12.3653918 25.3945937,12.4939136 25.3613763,11.7784353 C25.3285068,11.0700875 25.7805068,11.2558266 26.1483329,11.2234788 C26.8944198,11.1579136 27.335985,10.7535658 27.3384198,10.0022614 C27.3408546,9.25304402 26.9086807,8.84017446 26.1603329,8.76660924 C25.8008546,8.73130489 25.3377242,8.94139185 25.3615503,8.22678315 C25.3853763,7.51600055 25.8391155,7.62834837 26.2573763,7.62539185 C27.3577242,7.61773968 28.458072,7.62278315 29.5585937,7.62243533 C30.7457242,7.6220875 31.9332024,7.62939185 33.1203329,7.61843533 C33.5836372,7.6140875 33.8789416,7.69443533 33.9024198,8.27356576 C33.9269416,8.88382663 33.574072,8.80278315 33.1902459,8.82382663 C32.3815503,8.86817446 31.8752894,9.34626141 31.8638111,10.0293918 C31.8526807,10.6954788 32.3784198,11.2088701 33.1509416,11.2706092 L33.1509416,11.2706092 Z M48.7224198,15.5617397 C45.5323329,15.5589571 43.1116372,13.1000005 43.1192894,9.86973968 C43.1265937,6.77652228 45.6655503,4.26365272 48.7723329,4.27478315 C51.8530285,4.28573968 54.4018981,6.84121794 54.4064198,9.92365272 C54.4111155,13.0720005 51.8984198,15.5645223 48.7224198,15.5617397 L48.7224198,15.5617397 Z" id="logo" fill="#00E871" sketch:type="MSShapeGroup"></path>
                <path d="M73.31,6.97 L73.31,4.945 L65.375,4.945 L65.375,6.97 L68.3,6.97 L68.3,16 L70.355,16 L70.355,6.97 L73.31,6.97 Z M84.62,16 L84.62,14.65 C84.62,14.5 84.575,14.35 84.53,14.215 L83.045,11.35 C83.99,10.72 84.62,9.64 84.62,8.425 C84.62,6.505 83.045,4.945 81.125,4.945 L76.685,4.945 L76.685,16 L78.695,16 L78.695,11.95 L81.185,11.95 L82.61,14.92 L82.61,16 L84.62,16 Z M82.625,8.47 C82.625,9.31 81.935,10 81.095,10 L78.665,10 L78.665,6.91 L81.095,6.91 C81.935,6.91 82.625,7.6 82.625,8.47 L82.625,8.47 Z M96.08,16 L96.08,15.16 C96.08,15.025 96.02,14.89 95.99,14.77 L93.035,4.945 L91.16,4.945 L88.22,14.8 C88.16,14.92 88.145,15.04 88.145,15.175 L88.145,16 L90.23,16 L90.23,15.04 L90.53,13.93 L93.74,13.93 L94.055,15.04 L94.055,16 L96.08,16 Z M93.2,11.995 L91.055,11.995 L92.105,8.095 L93.2,11.995 Z M105.5,16 L105.5,13.975 L103.625,13.975 L103.625,6.97 L105.5,6.97 L105.5,4.945 L99.605,4.945 L99.605,6.97 L101.615,6.97 L101.615,13.975 L99.605,13.975 L99.605,16 L105.5,16 Z M116.585,6.97 L116.585,4.945 L108.65,4.945 L108.65,6.97 L111.575,6.97 L111.575,16 L113.63,16 L113.63,6.97 L116.585,6.97 Z M127.595,12.265 L127.595,8.68 C127.595,6.49 125.81,4.72 123.62,4.72 C121.43,4.72 119.66,6.49 119.66,8.68 L119.66,12.265 C119.66,14.455 121.43,16.225 123.62,16.225 C125.81,16.225 127.595,14.455 127.595,12.265 L127.595,12.265 Z M125.585,12.265 C125.585,13.315 124.7,14.2 123.62,14.2 C122.555,14.2 121.67,13.315 121.67,12.265 L121.67,8.68 C121.67,7.63 122.555,6.745 123.605,6.745 C124.7,6.745 125.585,7.615 125.585,8.695 L125.585,12.265 Z M139.355,16 L139.355,14.65 C139.355,14.5 139.31,14.35 139.265,14.215 L137.78,11.35 C138.725,10.72 139.355,9.64 139.355,8.425 C139.355,6.505 137.78,4.945 135.86,4.945 L131.42,4.945 L131.42,16 L133.43,16 L133.43,11.95 L135.92,11.95 L137.345,14.92 L137.345,16 L139.355,16 Z M137.36,8.47 C137.36,9.31 136.67,10 135.83,10 L133.4,10 L133.4,6.91 L135.83,6.91 C136.67,6.91 137.36,7.6 137.36,8.47 L137.36,8.47 Z" id="TRAITOR" fill="#FFFFFF" sketch:type="MSShapeGroup"></path>
            </g>
        </g>
    </g>
</svg>