<?xml version="1.0" encoding="UTF-8" standalone="no"?>
<svg width="192px" height="30px" viewBox="0 0 192 30" version="1.1" xmlns="http://www.w3.org/2000/svg" xmlns:xlink="http://www.w3.org/1999/xlink" xmlns:sketch="http://www.bohemiancoding.com/sketch/ns">
    <!-- Generator: Sketch Beta 3.3.2 (12041) - http://www.bohemiancoding.com/sketch -->
    <title>Group Copy</title>
    <desc>Created with Sketch Beta.</desc>
    <defs></defs>
    <g id="Page-1" stroke="none" stroke-width="1" fill="none" fill-rule="evenodd" sketch:type="MSPage">
        <g id="Group-Copy" sketch:type="MSLayerGroup">
            <path d="M1.52581392,17.6972912 C2.06106863,17.3723771 2.23448997,16.6712469 1.91057417,16.1310995 C1.79505792,15.9090848 1.49700834,15.6808784 1.25333665,15.6260381 L0.92618757,15.5296253 L0.480582887,15.3978317 C0.329794495,15.3656941 0.179300037,15.214441 0.144027899,15.0664312 C0.0702503425,14.7996007 0.2207448,14.5262838 0.480582887,14.4490356 L0.92618757,14.3237285 L1.25333665,14.2302641 C1.85590235,14.0501167 2.20215718,13.420043 2.02902977,12.8153256 C1.97465189,12.5709029 1.74714659,12.2748833 1.52581392,12.1560627 L1.23393698,11.9791585 L0.836537551,11.7379791 C0.701915556,11.6704607 0.592865861,11.4805835 0.599038485,11.3263821 C0.592865861,11.0527703 0.810671316,10.8278071 1.08344252,10.8213206 L1.54491967,10.8115909 L1.88794121,10.8083477 C2.51313987,10.7956695 3.01341637,10.2714435 3.00048325,9.64756143 C3.01018309,9.39340909 2.86586125,9.04933047 2.68332794,8.87891278 L2.4461228,8.63449017 L2.12544028,8.29984644 C2.0131573,8.18721744 1.95877942,7.98466216 2.00345747,7.83694717 C2.06753518,7.57306511 2.33383983,7.40589066 2.59985054,7.47665233 L3.0486885,7.58279484 L3.37907087,7.66623464 C3.98810313,7.81424447 4.60360194,7.4412715 4.75439034,6.83331081 C4.82816789,6.59861794 4.77996264,6.22240172 4.64534064,6.01011671 L4.48191307,5.71085381 L4.25734712,5.30574324 C4.17739694,5.17070639 4.17739694,4.95517813 4.25734712,4.82987101 C4.38902977,4.5854484 4.69031262,4.50171376 4.92751775,4.63026413 L5.33461701,4.85552211 L5.63296052,5.02269656 C6.18114834,5.3252027 6.87365799,5.12235258 7.17494084,4.57247543 C7.30985677,4.36343366 7.35776809,3.98721744 7.28399053,3.74928133 L7.20080707,3.41788084 L7.09175738,2.96765971 C7.0467854,2.81640663 7.10145722,2.61385135 7.21344626,2.5044656 C7.40274007,2.30839681 7.71372276,2.30191032 7.91242247,2.49178747 L8.24603811,2.81316339 L8.49294308,3.04815111 C8.94501432,3.48864251 9.66309628,3.47272113 10.0960618,3.0225 C10.2785951,2.85178747 10.4229169,2.5015172 10.4132171,2.25385135 L10.4196836,1.91272113 L10.4293835,1.44333538 C10.4261502,1.28883907 10.5319666,1.10574324 10.6665886,1.03498157 C10.9005605,0.893458231 11.2053705,0.964219902 11.3464591,1.19891278 L11.5836642,1.6007801 L11.7600249,1.89031327 C12.0868801,2.43075553 12.782623,2.60441646 13.3214049,2.27625921 C13.5395043,2.16038698 13.7702429,1.86466216 13.8246207,1.61699631 L13.917798,1.28883907 L14.0459534,0.841861179 C14.0844588,0.690608108 14.2320139,0.54289312 14.3825084,0.504269042 C14.6455798,0.430264128 14.918057,0.581222359 14.9950679,0.841861179 L15.1232233,1.28883907 L15.2193399,1.61699631 C15.3924673,2.22171376 16.0241325,2.57198403 16.6237589,2.39537469 C16.8674306,2.34377764 17.1654801,2.11232801 17.2809964,1.89031327 L17.4573571,1.6007801 L17.6977955,1.19891278 C17.771573,1.06063268 17.9544003,0.957733415 18.108128,0.960976658 C18.3806053,0.957733415 18.6084045,1.17621007 18.6116378,1.44333538 L18.6213377,1.91272113 L18.6275103,2.25385135 C18.6404434,2.88097666 19.1598256,3.37925676 19.7882576,3.36657862 C20.0351625,3.37601351 20.3814174,3.23449017 20.5513115,3.04815111 L20.7949832,2.81316339 L21.1315382,2.49178747 C21.2373546,2.38240172 21.4425209,2.32136978 21.590076,2.3661855 C21.8560867,2.43694717 22.0165749,2.70407248 21.9524972,2.96765971 L21.8402142,3.41788084 L21.7599701,3.74928133 C21.6094757,4.36343366 21.9813028,4.98082924 22.590335,5.12883907 C22.8278341,5.20608722 23.1996612,5.15773342 23.4080608,5.02269656 L23.7061103,4.85552211 L24.1135035,4.63026413 C24.2448923,4.55331081 24.4597584,4.55331081 24.5911471,4.63026413 C24.8283522,4.76235258 24.9150629,5.06780713 24.7833802,5.30574324 L24.5591082,5.71085381 L24.3956807,6.01011671 C24.0941039,6.55999386 24.2930975,7.25463759 24.8412853,7.56038698 C25.0529182,7.69218059 25.4247453,7.7434828 25.6619504,7.66623464 L25.9923328,7.58279484 L26.444404,7.47665233 C26.5916652,7.43154177 26.7968315,7.48313882 26.9026479,7.59576781 C27.0984083,7.78859337 27.1048748,8.09729115 26.915581,8.29984644 L26.5948985,8.63449017 L26.3609266,8.87891278 C25.9247279,9.33237715 25.937661,10.0559152 26.3929655,10.4869717 C26.5596264,10.6733108 26.9091145,10.8148342 27.1560194,10.8083477 L27.4958077,10.8115909 L27.9608121,10.8213206 C28.1148337,10.8148342 28.3006003,10.9242199 28.3711446,11.0592568 C28.5122332,11.2939496 28.4384556,11.5964558 28.2044837,11.7379791 L27.8067904,11.9791585 L27.5152074,12.1560627 C26.9796587,12.4809767 26.8065313,13.181812 27.1336804,13.7254975 C27.2489027,13.944269 27.5472462,14.1724754 27.7876846,14.2302641 L28.1148337,14.3237285 L28.5604384,14.4490356 C28.7109329,14.4844165 28.8617213,14.6389128 28.8969934,14.789871 C28.9740042,15.0537531 28.8232158,15.32707 28.5604384,15.3978317 L28.1148337,15.5296253 L27.7876846,15.6260381 C27.184825,15.8029423 26.8385702,16.4300676 27.0116976,17.0380283 C27.0696027,17.2824509 27.297108,17.5781757 27.5152074,17.6972912 L27.8067904,17.8741953 L28.2044837,18.1153747 C28.342339,18.1861364 28.4481554,18.369527 28.4449222,18.5269717 C28.4481554,18.8002887 28.2332893,19.0255467 27.9608121,19.0320332 L27.4958077,19.0417629 L27.1560194,19.0447113 C26.5275875,19.0576843 26.0305443,19.5819103 26.0434774,20.2057924 C26.0337776,20.4599447 26.1780994,20.8040233 26.3609266,20.9776843 L26.5948985,21.2188636 L26.915581,21.5564558 C27.0310973,21.6658415 27.0854752,21.8683968 27.0405032,22.0164066 C26.9764255,22.2835319 26.7071815,22.4474631 26.444404,22.3799447 L25.9923328,22.270559 L25.6619504,22.1868243 C25.0529182,22.0391093 24.4371254,22.4120823 24.286631,23.0229914 C24.2128534,23.2547359 24.263998,23.6309521 24.3956807,23.8432371 L24.5591082,24.1389619 L24.7833802,24.5476106 C24.8668576,24.6826474 24.8668576,24.8916892 24.7833802,25.0234828 C24.6519915,25.2646622 24.353942,25.35164 24.1135035,25.2227948 L23.7061103,24.9978317 L23.4080608,24.8306572 C22.859873,24.5281511 22.1703027,24.7307064 21.8657865,25.2808784 C21.7343978,25.4899201 21.6861926,25.8628931 21.7599701,26.1040725 L21.8402142,26.435473 L21.9524972,26.8889373 C21.9971752,27.0366523 21.9427974,27.2362592 21.8272811,27.345645 C21.6382812,27.544957 21.3272985,27.5514435 21.1315382,27.3615663 L20.7949832,27.0398956 L20.5513115,26.8019595 C20.0992403,26.3647113 19.3811583,26.3806327 18.9449595,26.8308538 C18.7621323,27.0012715 18.6181044,27.3518366 18.6275103,27.6027457 L18.6213377,27.9406327 L18.6116378,28.4067752 C18.6181044,28.5645147 18.512288,28.7476106 18.3744327,28.8183722 C18.1401669,28.9598956 17.838884,28.8891339 17.6977955,28.654441 L17.4573571,28.2525737 L17.2809964,27.9630405 C16.9570806,27.4225983 16.2581044,27.2489373 15.7228497,27.5738514 C15.501517,27.6929668 15.2740117,27.9919349 15.2193399,28.2363575 L15.1232233,28.5645147 L14.9950679,29.0082494 C14.9597957,29.1624509 14.8090073,29.3137039 14.658219,29.3490848 C14.3954415,29.4230897 14.1229643,29.2718366 14.0459534,29.0082494 L13.917798,28.5645147 L13.8246207,28.2363575 C13.6482601,27.63164 13.0201221,27.2810749 12.4172624,27.4579791 C12.176824,27.5095762 11.8752472,27.7410258 11.7600249,27.9630405 L11.5836642,28.2525737 L11.3464591,28.654441 C11.2726815,28.7927211 11.086621,28.8956204 10.9325993,28.8923771 C10.6601221,28.8956204 10.43585,28.6800921 10.4293835,28.4067752 L10.4196836,27.9406327 L10.4132171,27.6027457 C10.4005779,26.9691339 9.88442895,26.4738022 9.25599701,26.4867752 C9.00909204,26.4770455 8.65960394,26.621812 8.49294308,26.8019595 L7.91242247,27.3615663 C7.80660605,27.4709521 7.60143978,27.5287408 7.45094532,27.4839251 C7.18787396,27.4164066 7.02444638,27.1492813 7.09175738,26.8889373 L7.20080707,26.435473 L7.28399053,26.1040725 C7.43477893,25.4899201 7.0629518,24.8722297 6.45362561,24.7245147 C6.21642048,24.6472666 5.84459335,24.6985688 5.63296052,24.8306572 L5.33461701,24.9978317 L4.92751775,25.2227948 C4.79612903,25.300043 4.5844962,25.300043 4.45310749,25.2227948 C4.21266907,25.0910012 4.1259584,24.7855467 4.25734712,24.5476106 L4.48191307,24.1389619 L4.64534064,23.8432371 C4.9501507,23.2901167 4.74792378,22.5987162 4.19973596,22.2929668 C3.99133641,22.1611732 3.616276,22.1095762 3.37907087,22.1868243 L3.0486885,22.270559 L2.59985054,22.3799447 C2.45229543,22.4247604 2.24389588,22.3669717 2.13807946,22.2543428 C1.94261303,22.0647604 1.93614647,21.7560627 2.12544028,21.5564558 L2.4461228,21.2188636 L2.68332794,20.9776843 C3.1159995,20.5242199 3.10336032,19.7974386 2.65128908,19.3663821 C2.48110101,19.1829914 2.13484618,19.0385197 1.88794121,19.0447113 L1.54491967,19.0417629 L1.08344252,19.0320332 C0.92618757,19.0385197 0.743360319,18.9258907 0.669876697,18.7940971 C0.528788143,18.5558661 0.602271765,18.256898 0.836537551,18.1153747 L1.23393698,17.8741953 L1.52581392,17.6972912 L1.52581392,17.6972912 Z M14.5141911,6.78525184 C10.0316901,6.78525184 6.39601445,10.4321314 6.39601445,14.9281511 C6.39601445,19.427414 10.0316901,23.0745885 14.5141911,23.0745885 C18.9996313,23.0745885 22.635307,19.427414 22.635307,14.9281511 C22.635307,10.4321314 18.9996313,6.78525184 14.5141911,6.78525184 L14.5141911,6.78525184 Z" id="Fill-2" fill="#00E871" sketch:type="MSShapeGroup"></path>
            <path d="M84.5531947,18.5269717 C84.5564279,18.8002887 84.3415618,19.0255467 84.0690846,19.0320332 L83.6040802,19.0417629 L83.2642919,19.0447113 C82.63586,19.0576843 82.1391107,19.5819103 82.1517499,20.2057924 C82.142344,20.4599447 82.2863719,20.8040233 82.4691992,20.9776843 L82.703171,21.2188636 L83.0238535,21.5564558 C83.1393698,21.6658415 83.1937477,21.8683968 83.1490696,22.0164066 C83.084698,22.2835319 82.815454,22.4474631 82.5526765,22.3799447 L82.1006053,22.270559 L81.7702229,22.1868243 C81.1611907,22.0391093 80.5453979,22.4120823 80.3949035,23.0229914 C80.3211259,23.2547359 80.3722705,23.6309521 80.5039532,23.8432371 L80.6673807,24.1389619 L80.8916528,24.5476106 C80.9751302,24.6826474 80.9751302,24.8916892 80.8916528,25.0234828 C80.760264,25.2646622 80.4622145,25.35164 80.2217761,25.2227948 L79.8143829,24.9978317 L79.5163333,24.8306572 C78.9681455,24.5281511 78.2788691,24.7307064 77.974059,25.2808784 C77.8426703,25.4899201 77.794759,25.8628931 77.8682426,26.1040725 L77.9484867,26.435473 L78.0607697,26.8889373 C78.1057417,27.0366523 78.0510699,27.2362592 77.9355536,27.345645 C77.7465537,27.544957 77.4355711,27.5514435 77.2398107,27.3615663 L76.9032557,27.0398956 L76.659584,26.8019595 C76.2075128,26.3647113 75.4894308,26.3806327 75.053232,26.8308538 C74.8706987,27.0012715 74.7263769,27.3518366 74.7357828,27.6027457 L74.7296102,27.9406327 L74.7199103,28.4067752 C74.7263769,28.5645147 74.6205605,28.7476106 74.4827052,28.8183722 C74.2484394,28.9598956 73.9471566,28.8891339 73.806068,28.654441 L73.5656296,28.2525737 L73.3892689,27.9630405 C73.0653531,27.4225983 72.3666708,27.2489373 71.8311222,27.5738514 C71.6097895,27.6929668 71.3822842,27.9919349 71.3276124,28.2363575 L71.2314958,28.5645147 L71.1033404,29.0082494 C71.0680683,29.1624509 70.9172799,29.3137039 70.7667854,29.3490848 C70.503714,29.4230897 70.2312368,29.2718366 70.1542259,29.0082494 L70.0260705,28.5645147 L69.9328933,28.2363575 C69.7568265,27.63164 69.1283946,27.2810749 68.5255349,27.4579791 C68.2850965,27.5095762 67.9838137,27.7410258 67.8682974,27.9630405 L67.6919367,28.2525737 L67.4547316,28.654441 C67.380954,28.7927211 67.1948935,28.8956204 67.0411658,28.8923771 C66.7683946,28.8956204 66.5441226,28.6800921 66.537656,28.4067752 L66.5279562,27.9406327 L66.5217835,27.6027457 C66.5088504,26.9691339 65.9927015,26.4738022 65.3642695,26.4867752 C65.1173646,26.4770455 64.7678764,26.621812 64.6012156,26.8019595 L64.020695,27.3615663 C63.9151725,27.4709521 63.7097123,27.5287408 63.5592178,27.4839251 C63.2961465,27.4164066 63.1327189,27.1492813 63.2000299,26.8889373 L63.3090796,26.435473 L63.392263,26.1040725 C63.5430514,25.4899201 63.1712243,24.8722297 62.5618981,24.7245147 C62.324693,24.6472666 61.9528659,24.6985688 61.741233,24.8306572 L61.4431835,24.9978317 L61.0357903,25.2227948 C60.9044015,25.300043 60.6927687,25.300043 60.56138,25.2227948 C60.3209416,25.0910012 60.2342309,24.7855467 60.3656196,24.5476106 L60.5901856,24.1389619 L60.7536132,23.8432371 C61.0584232,23.2901167 60.8561963,22.5987162 60.3080085,22.2929668 C60.0996089,22.1611732 59.7245485,22.1095762 59.4873434,22.1868243 L59.156961,22.270559 L58.7081231,22.3799447 C58.5605679,22.4247604 58.3521684,22.3669717 58.246352,22.2543428 C58.0508855,22.0647604 58.044419,21.7560627 58.2337128,21.5564558 L58.5543953,21.2188636 L58.7916004,20.9776843 C59.224272,20.5242199 59.2116328,19.7974386 58.7595616,19.3663821 C58.5896675,19.1829914 58.2431187,19.0385197 57.9965077,19.0447113 L57.6531922,19.0417629 L57.191715,19.0320332 C57.0344601,19.0385197 56.8516328,18.9258907 56.7781492,18.7940971 C56.6370607,18.5558661 56.7108382,18.256898 56.9448101,18.1153747 L57.3422095,17.8741953 L57.6340864,17.6972912 C58.1696351,17.3723771 58.3427625,16.6712469 58.0188467,16.1310995 C57.9033304,15.9090848 57.6052809,15.6808784 57.3616092,15.6260381 L57.0344601,15.5296253 L56.5888554,15.3978317 C56.438067,15.3656941 56.2875725,15.214441 56.2523004,15.0664312 C56.1785229,14.7996007 56.3293112,14.5262838 56.5888554,14.4490356 L57.0344601,14.3237285 L57.3616092,14.2302641 C57.9644688,14.0501167 58.3107236,13.420043 58.1375962,12.8153256 C58.0829244,12.5709029 57.8554191,12.2748833 57.6340864,12.1560627 L57.3422095,11.9791585 L56.9448101,11.7379791 C56.8101881,11.6704607 56.7011384,11.4805835 56.7076049,11.3263821 C56.7011384,11.0527703 56.9192378,10.8278071 57.191715,10.8213206 L57.6531922,10.8115909 L57.9965077,10.8083477 C58.6217063,10.7956695 59.1216889,10.2714435 59.1090497,9.64756143 C59.1184556,9.39340909 58.9741338,9.04933047 58.7916004,8.87891278 L58.5543953,8.63449017 L58.2337128,8.29984644 C58.1214298,8.18721744 58.0670519,7.98466216 58.11173,7.83694717 C58.1758077,7.57306511 58.4421123,7.40589066 58.7081231,7.47665233 L59.156961,7.58279484 L59.4873434,7.66623464 C60.0963756,7.81424447 60.7121684,7.4412715 60.8626628,6.83331081 C60.9364404,6.59861794 60.8882351,6.22240172 60.7536132,6.01011671 L60.5901856,5.71085381 L60.3656196,5.30574324 C60.2856694,5.17070639 60.2856694,4.95517813 60.3656196,4.82987101 C60.4973023,4.5854484 60.7985851,4.50171376 61.0357903,4.63026413 L61.4431835,4.85552211 L61.741233,5.02269656 C62.2894208,5.3252027 62.9819305,5.12235258 63.2835073,4.57247543 C63.4181293,4.36343366 63.4660406,3.98721744 63.392263,3.74928133 L63.3090796,3.41788084 L63.2000299,2.96765971 C63.1550579,2.81640663 63.2097297,2.61385135 63.3220127,2.5044656 C63.5110126,2.30839681 63.8219953,2.30191032 64.020695,2.49178747 L64.3543106,2.81316339 L64.6012156,3.04815111 C65.0532868,3.48864251 65.7713688,3.47272113 66.2043343,3.0225 C66.3868676,2.85178747 66.5311894,2.5015172 66.5217835,2.25385135 L66.5279562,1.91272113 L66.537656,1.44333538 C66.5344227,1.28883907 66.6402391,1.10574324 66.7748611,1.03498157 C67.0091269,0.893458231 67.313643,0.964219902 67.4547316,1.19891278 L67.6919367,1.6007801 L67.8682974,1.89031327 C68.1951526,2.43075553 68.8908955,2.60441646 69.4296774,2.27625921 C69.6477768,2.16038698 69.8785154,1.86466216 69.9328933,1.61699631 L70.0260705,1.28883907 L70.1542259,0.841861179 C70.1927313,0.690608108 70.3402865,0.54289312 70.4907809,0.504269042 C70.7538523,0.430264128 71.0263296,0.581222359 71.1033404,0.841861179 L71.2314958,1.28883907 L71.3276124,1.61699631 C71.5007398,2.22171376 72.132405,2.57198403 72.7320314,2.39537469 C72.9757031,2.34377764 73.2737526,2.11232801 73.3892689,1.89031327 L73.5656296,1.6007801 L73.806068,1.19891278 C73.8798456,1.06063268 74.0626728,0.957733415 74.2164005,0.960976658 C74.4891718,0.957733415 74.716677,1.17621007 74.7199103,1.44333538 L74.7296102,1.91272113 L74.7357828,2.25385135 C74.7487159,2.88097666 75.2680981,3.37925676 75.8965301,3.36657862 C76.143435,3.37601351 76.4896899,3.23449017 76.659584,3.04815111 L76.9032557,2.81316339 L77.2398107,2.49178747 C77.3456271,2.38240172 77.5507934,2.32136978 77.6983485,2.3661855 C77.9646531,2.43694717 78.1248474,2.70407248 78.0607697,2.96765971 L77.9484867,3.41788084 L77.8682426,3.74928133 C77.7177482,4.36343366 78.0895753,4.98082924 78.6986075,5.12883907 C78.9361066,5.20608722 79.3079337,5.15773342 79.5163333,5.02269656 L79.8143829,4.85552211 L80.2217761,4.63026413 C80.3531648,4.55331081 80.5680309,4.55331081 80.6994196,4.63026413 C80.9366247,4.76235258 81.0233354,5.06780713 80.8916528,5.30574324 L80.6673807,5.71085381 L80.5039532,6.01011671 C80.2023764,6.55999386 80.40137,7.25463759 80.9495579,7.56038698 C81.1611907,7.69218059 81.5330178,7.7434828 81.7702229,7.66623464 L82.1006053,7.58279484 L82.5526765,7.47665233 C82.6999377,7.43154177 82.9053979,7.48313882 83.0112143,7.59576781 C83.2066808,7.78859337 83.2131473,8.09729115 83.0238535,8.29984644 L82.703171,8.63449017 L82.4691992,8.87891278 C82.0332943,9.33237715 82.0459335,10.0559152 82.501238,10.4869717 C82.6678989,10.6733108 83.017387,10.8148342 83.2642919,10.8083477 L83.6040802,10.8115909 L84.0690846,10.8213206 C84.2231062,10.8148342 84.4088728,10.9242199 84.4794171,11.0592568 C84.6205057,11.2939496 84.5467281,11.5964558 84.3127563,11.7379791 L83.9153568,11.9791585 L83.6234799,12.1560627 C83.0879312,12.4809767 82.9148038,13.181812 83.2419529,13.7254975 C83.3574692,13.944269 83.6555187,14.1724754 83.8959572,14.2302641 L84.2231062,14.3237285 L84.6687109,14.4490356 C84.8194993,14.4844165 84.9699938,14.6389128 85.0052659,14.789871 C85.0822767,15.0537531 84.9314884,15.32707 84.6687109,15.3978317 L84.2231062,15.5296253 L83.8959572,15.6260381 C83.2930975,15.8029423 82.9468427,16.4300676 83.1199701,17.0380283 C83.1778752,17.2824509 83.4053805,17.5781757 83.6234799,17.6972912 L83.9153568,17.8741953 L84.3127563,18.1153747 C84.4506115,18.1861364 84.5564279,18.369527 84.5531947,18.5269717 L84.5531947,18.5269717 Z M70.6224636,6.78525184 C66.1399626,6.78525184 62.504287,10.4321314 62.504287,14.9281511 C62.504287,19.427414 66.1399626,23.0745885 70.6224636,23.0745885 C75.1079038,23.0745885 78.7435795,19.427414 78.7435795,14.9281511 C78.7435795,10.4321314 75.1079038,6.78525184 70.6224636,6.78525184 L70.6224636,6.78525184 Z" id="Fill-4" fill="#00E871" sketch:type="MSShapeGroup"></path>
            <path d="M51.8656221,11.937586 L51.8656221,17.7589128 C51.8656221,20.0111978 50.0394071,21.8427457 47.7949234,21.8427457 L36.5407597,21.8427457 C34.2942185,21.8427457 32.4682974,20.0111978 32.4682974,17.7589128 L32.4682974,11.937586 C32.4682974,9.68589066 34.2942185,7.85463759 36.5407597,7.85463759 L47.7949234,7.85463759 C50.0394071,7.85463759 51.8656221,9.68589066 51.8656221,11.937586 L51.8656221,11.937586 Z M35.9952173,17.7589128 C35.9952173,18.0599447 36.2400648,18.3055467 36.5407597,18.3055467 L47.7949234,18.3055467 C48.0938548,18.3055467 48.3392901,18.0599447 48.3392901,17.7589128 L48.3392901,11.937586 C48.3392901,11.6362592 48.0938548,11.3912469 47.7949234,11.3912469 L36.5407597,11.3912469 C36.2400648,11.3912469 35.9952173,11.6362592 35.9952173,11.937586 L35.9952173,17.7589128 L35.9952173,17.7589128 Z" id="Fill-5" fill="#00E871" sketch:type="MSShapeGroup"></path>
            <path d="M38.8810661,14.7674631 C38.8810661,15.7451536 38.0909702,16.5350307 37.1177531,16.5350307 L25.4156333,16.5350307 C24.4406526,16.5350307 23.6517325,15.7451536 23.6517325,14.7674631 C23.6517325,13.7918366 24.4406526,12.9996007 25.4156333,12.9996007 L37.1177531,12.9996007 C38.0909702,12.9996007 38.8810661,13.7918366 38.8810661,14.7674631" id="Fill-6" fill="#00E871" sketch:type="MSShapeGroup"></path>
            <path d="M60.4217611,14.8491339 C60.4217611,15.8259398 59.6331349,16.6172912 58.6581542,16.6172912 L47.2170482,16.6172912 C46.2426554,16.6172912 45.4525595,15.8259398 45.4525595,14.8491339 C45.4525595,13.8726229 46.2426554,13.0789128 47.2170482,13.0789128 L58.6581542,13.0789128 C59.6331349,13.0789128 60.4217611,13.8726229 60.4217611,14.8491339" id="Fill-7" fill="#00E871" sketch:type="MSShapeGroup"></path>
            <g id="Group" transform="translate(90.000000, 2.432432)" fill="#FFFFFF" sketch:type="MSShapeGroup">
                <path d="M8.77521485,0.364809582 L8.77521485,6.70210688 L12.2783261,6.70210688 L12.2783261,11.3770946 L8.77521485,11.3770946 L8.77521485,17.2795025 C8.77521485,17.989183 8.84311371,18.4588636 8.97861751,18.6882494 C9.18701706,19.0429423 9.55178976,19.220731 10.0732295,19.220731 C10.5426429,19.220731 11.1992926,19.0851044 12.0437663,18.8135565 L12.5128858,23.2208292 C10.9385727,23.5657924 9.46831237,23.7385688 8.10269274,23.7385688 C6.51779798,23.7385688 5.3502902,23.5348342 4.59958152,23.1273649 C3.84887284,22.7201904 3.29363059,22.1013206 2.93414871,21.2710504 C2.5743729,20.4404853 2.39448499,19.0960135 2.39448499,17.2364558 L2.39448499,11.3770946 L0.0488877818,11.3770946 L0.0488877818,6.70210688 L2.39448499,6.70210688 L2.39448499,3.64313882 L8.77521485,0.364809582" id="Fill-8"></path>
                <path d="M14.0936655,6.70210688 L20.0520115,6.70210688 L20.0520115,9.43203317 C20.6251837,8.25031327 21.2171678,7.43714373 21.8270818,6.99252457 C22.4369959,6.54820025 23.190056,6.32589066 24.0868502,6.32589066 C25.0250891,6.32589066 26.0520962,6.61866708 27.1678715,7.20451474 L25.1970407,11.7536057 C24.446626,11.4396007 23.8522904,11.2827457 23.4143281,11.2827457 C22.580142,11.2827457 21.93378,11.6280037 21.4752422,12.3182248 C20.8182987,13.2909029 20.4899738,15.1106572 20.4899738,17.7774877 L20.4899738,23.3620577 L14.0936655,23.3620577 L14.0936655,6.70210688" id="Fill-9"></path>
                <path d="M33.3125719,12.0985688 L27.2287159,11.4555221 C27.4579848,10.3887899 27.789249,9.54967445 28.2219205,8.93788084 C28.6542982,8.32579238 29.2774393,7.79537469 30.090756,7.3454484 C30.6745099,7.02141892 31.477245,6.77050983 32.4992552,6.59272113 C33.5209715,6.41463759 34.6261652,6.32589066 35.8145423,6.32589066 C37.722471,6.32589066 39.2550455,6.43321253 40.4122655,6.64756143 C41.5697795,6.86191032 42.5338847,7.30888821 43.3057566,7.98849509 C43.8474779,8.4590602 44.2754465,9.12598894 44.5881928,9.98898649 C44.9009391,10.8513943 45.0573122,11.6751781 45.0573122,12.4594533 L45.0573122,19.816898 C45.0573122,20.6011732 45.1066932,21.2156204 45.2057492,21.6599447 C45.3048051,22.1045639 45.5211409,22.6718366 45.8547565,23.3620577 L39.880832,23.3620577 C39.6406875,22.93336 39.4843144,22.6066769 39.4114186,22.3814189 C39.3385229,22.1567506 39.2653332,21.8038268 39.1927313,21.3226474 C38.3585453,22.1281511 37.5293561,22.7030897 36.7060456,23.0483477 C35.5799826,23.5085934 34.2713862,23.7385688 32.7805505,23.7385688 C30.7994321,23.7385688 29.2956632,23.2786179 28.2686561,22.3581265 C27.241943,21.43793 26.7284394,20.3030897 26.7284394,18.9539005 C26.7284394,17.6887408 27.0985029,16.6479545 27.83863,15.8321314 C28.578757,15.0166032 29.9446706,14.4101167 31.9360767,14.0123771 C34.3234126,13.5314926 35.8718595,13.1941953 36.5808295,13.0004853 C37.2897995,12.8073649 38.0405082,12.5535074 38.8329555,12.2397973 C38.8329555,11.4555221 38.6712916,10.9065295 38.3479636,10.5928194 C38.0249296,10.2791093 37.4567543,10.1222543 36.6437315,10.1222543 C35.6008519,10.1222543 34.8189862,10.2894287 34.2975464,10.6240725 C33.891035,10.8855958 33.5624162,11.3770946 33.3125719,12.0985688 L33.3125719,12.0985688 Z M38.8329555,15.4556204 C37.9570308,15.7693305 37.0446581,16.0464803 36.0961315,16.28707 C34.8034076,16.632328 33.9848001,16.9722789 33.6408967,17.3069226 C33.2861178,17.6518857 33.1088753,18.0440233 33.1088753,18.4833354 C33.1088753,18.9854484 33.2834724,19.3958661 33.6329605,19.7148833 C33.9821547,20.0339005 34.4953643,20.1931143 35.1734712,20.1931143 C35.8821472,20.1931143 36.5417362,20.0206327 37.1516503,19.6756695 C37.7615643,19.3304115 38.1942359,18.9096744 38.4499589,18.4125737 C38.705094,17.9160627 38.8329555,17.2700676 38.8329555,16.475473 L38.8329555,15.4556204 L38.8329555,15.4556204 Z" id="Fill-10"></path>
                <path d="M47.1859858,0.364809582 L53.5511371,0.364809582 L53.5511371,4.71016585 L47.1859858,4.71016585 L47.1859858,0.364809582 Z M47.1859858,6.70210688 L53.5511371,6.70210688 L53.5511371,23.3620577 L47.1859858,23.3620577 L47.1859858,6.70210688 Z" id="Fill-11"></path>
                <path d="M63.3738398,3.6239742 L63.3738398,6.70210688 L66.877245,6.70210688 L66.877245,11.3770946 L63.3738398,11.3770946 L63.3738398,17.2795025 C63.3738398,17.989183 63.4417387,18.4588636 63.5775364,18.6882494 C63.785936,19.0429423 64.1507087,19.220731 64.6721485,19.220731 C65.1412679,19.220731 65.7982115,19.0851044 66.6426853,18.8135565 L67.1118047,23.2208292 C65.5374916,23.5657924 64.0672313,23.7385688 62.7016117,23.7385688 C61.1167169,23.7385688 59.9492091,23.5348342 59.1985004,23.1273649 C58.4477918,22.7201904 57.8925495,22.1013206 57.5327737,21.2710504 C57.1732918,20.4404853 56.9934039,19.0960135 56.9934039,17.2364558 L56.9934039,11.3770946 L54.6475128,11.3770946 L54.6475128,6.70210688 L56.9934039,6.70210688 L56.9934039,0.364809582 L63.3738398,3.6239742" id="Fill-12"></path>
                <path d="M67.8481106,15.0791093 C67.8481106,12.5378808 68.7025782,10.4436302 70.412689,8.79665233 C72.122212,7.14937961 74.4316552,6.32589066 77.3404309,6.32589066 C80.6665936,6.32589066 83.1794395,7.29326167 84.8786748,9.22800369 C86.2442944,10.7862346 86.9273982,12.7053501 86.9273982,14.9850553 C86.9273982,17.5475123 86.080279,19.64707 84.3857467,21.2834337 C82.6915083,22.920387 80.3482625,23.7385688 77.3563034,23.7385688 C74.6870843,23.7385688 72.5293112,23.0586671 70.8821024,21.6991585 C68.8592452,20.0153256 67.8481106,17.8087408 67.8481106,15.0791093 L67.8481106,15.0791093 Z M74.2285465,15.0634828 C74.2285465,16.5485934 74.5280658,17.6468735 75.1276921,18.3580283 C75.7270245,19.069183 76.4803786,19.4244656 77.3874605,19.4244656 C78.3051239,19.4244656 79.0581841,19.0741953 79.6475227,18.3736548 C80.2362735,17.6728194 80.5313837,16.5485934 80.5313837,15.0009767 C80.5313837,13.5574386 80.233922,12.4830405 79.6395865,11.7771929 C79.045251,11.0710504 78.3104147,10.7184214 77.4347839,10.7184214 C76.5062449,10.7184214 75.7402516,11.0766523 75.1356283,11.7928194 C74.5310051,12.5092813 74.2285465,13.5996007 74.2285465,15.0634828 L74.2285465,15.0634828 Z" id="Fill-13"></path>
                <path d="M88.1334114,6.70210688 L94.0917574,6.70210688 L94.0917574,9.43203317 C94.6649296,8.25031327 95.2566198,7.43714373 95.8668277,6.99252457 C96.4767418,6.54820025 97.2300959,6.32589066 98.12689,6.32589066 C99.0651289,6.32589066 100.091842,6.61866708 101.207617,7.20451474 L99.2370806,11.7536057 C98.486078,11.4396007 97.8917424,11.2827457 97.454074,11.2827457 C96.6198879,11.2827457 95.973526,11.6280037 95.5149882,12.3182248 C94.8580446,13.2909029 94.5294258,15.1106572 94.5294258,17.7774877 L94.5294258,23.3620577 L88.1334114,23.3620577 L88.1334114,6.70210688" id="Fill-14"></path>
            </g>
        </g>
    </g>
</svg>