<?xml version="1.0" standalone="no"?>
<!DOCTYPE svg PUBLIC "-//W3C//DTD SVG 1.1//EN" "http://www.w3.org/Graphics/SVG/1.1/DTD/svg11.dtd">
<svg xmlns="http://www.w3.org/2000/svg"><metadata>This SVG WebFont was generated by YouWorkForThem.
Copyright Â© 2015 by Juri Zaech. All rights reserved.</metadata><defs><font horiz-adv-x="1085" id="ywftsvg"><font-face ascent="1638" bbox="-166 -389 1987 2019" cap-height="1311" descent="-410" font-family="" font-stretch="normal" font-weight="700" panose-1="0 0 8 0 0 0 0 0 0 0" underline-position="0" underline-thickness="0" unicode-range="U+0020-E133" units-per-em="2048" x-height="942"/><missing-glyph d="M952 0h-819v1311h819v-1311zM542.5 1178q-155.5 0 -232.5 -77t-77 -216v-37h158v49q0 135 153 135t152 -135v-61q0 -137 -153 -138h-78l6 -223h143l2 88q236 33 236 287v35q0 139 -77 216t-232.5 77zM442 356v-202h201v202h-201z"/><glyph d="M952 0h-819v1311h819v-1311zM542.5 1178q-155.5 0 -232.5 -77t-77 -216v-37h158v49q0 135 153 135t152 -135v-61q0 -137 -153 -138h-78l6 -223h143l2 88q236 33 236 287v35q0 139 -77 216t-232.5 77zM442 356v-202h201v202h-201z" glyph-name=".notdef"/><glyph glyph-name="glyph1" horiz-adv-x="0"/><glyph glyph-name="glyph2" horiz-adv-x="681"/><glyph glyph-name="space" unicode=" "/><glyph d="M440 1311h205v-475l-27 -332h-151l-27 332v475zM674 0h-262v262h262v-262z" glyph-name="exclam" unicode="!"/><glyph d="M461 760h-148l-28 551h204zM772 760h-145l-31 551h207z" glyph-name="quotedbl" unicode="&quot;"/><glyph d="M936 514v-156h-160l-63 -358h-174l63 358h-221l-64 -358h-174l64 358h-117v156h143l50 283h-131v155h157l64 359h174l-64 -359h222l63 359h174l-63 -359h118v-155h-145l-49 -283h133zM678 797h-221l-49 -283h221z" glyph-name="numbersign" unicode="#"/><glyph d="M606 -133h-127v115q-164 16 -251 117.5t-87 269.5h205q0 -164 133 -193v399q-204 90 -271 177.5t-67 230.5q0 142 86 236t252 110v115h127v-115q164 -16 251 -117.5t87 -269.5h-205q0 162 -133 195v-400q210 -97 274 -183t64 -227t-86 -235t-252 -110v-115zM346 981 q0 -109 133 -182v338q-133 -25 -133 -156zM739 332q0 104 -133 182v-342q133 27 133 160z" glyph-name="dollar" unicode="$"/><glyph d="M319.5 1065q204.5 0 204.5 -193v-84q0 -195 -204.5 -194.5t-204.5 194.5v84q0 193 204.5 193zM963 1008l-752 -1033l-80 58l752 1032zM319.5 956q-83.5 0 -83.5 -75v-103q0 -74 83.5 -73.5t83.5 73.5v103q0 75 -83.5 75zM573 264q0 195 204 195t204 -195v-82 q0 -194 -204 -194t-204 194v82zM862 274q0 76 -85 76t-85 -76v-102q0 -74 85 -74t85 74v102z" glyph-name="percent" unicode="%"/><glyph d="M973 0h-162l-47 80q-117 -100 -278 -100t-253 101t-92 281v87q0 260 197 346q-82 157 -82 287t79 210t216 80t266 -98l-82 -141q-85 61 -155 61q-140 0 -140 -131q0 -92 97 -254l235 -393q31 96 31 215h160q0 -236 -82 -395l92 -154v-82zM517 162q81 0 155 74l-238 395 q-94 -41 -94 -160v-131q0 -88 48 -133t129 -45z" glyph-name="ampersand" unicode="&amp;"/><glyph d="M616 760h-147l-29 551h205z" glyph-name="quotesingle" unicode="'"/><glyph d="M320 596q0 489 317 860l149 -123q-246 -324 -245.5 -737.5t245.5 -736.5l-149 -123q-317 371 -317 860z" glyph-name="parenleft" unicode="("/><glyph d="M543 596q0 413 -246 737l149 123q317 -367 317.5 -860.5t-317.5 -859.5l-149 123q246 324 246 737z" glyph-name="parenright" unicode=")"/><glyph d="M672 1004l166 -211l-127 -95l-152 226l-151 -226l-127 95l165 213l-258 71l50 152l251 -94l-10 270h160l-10 -270l254 94l49 -152z" glyph-name="asterisk" unicode="*"/><glyph d="M928 524h-310v-307h-151v307h-307v152h307v309h151v-309h310v-152z" glyph-name="plus" unicode="+"/><glyph d="M674 262v-188l-127 -332h-121l74 258h-88v262h262z" glyph-name="comma" unicode=","/><glyph d="M786 475h-487v168h487v-168z" glyph-name="hyphen" unicode="-"/><glyph d="M674 0h-262v262h262v-262z" glyph-name="period" unicode="."/><glyph d="M449 -61h-205l393 1433h205z" glyph-name="slash" unicode="/"/><glyph d="M533 1331q202 0 301.5 -98t99.5 -283v-588q0 -184 -100.5 -283t-301 -99t-301 99t-100.5 283v588q0 182 100 281.5t302 99.5zM532.5 1143q-196.5 0 -196.5 -178v-619q0 -178 196.5 -178t196.5 178v619q0 178 -196.5 178zM616 571h-167v168h167v-168z" glyph-name="zero" unicode="0"/><glyph d="M887 188v-188h-686v188h239v865l-196 -105l-94 164l342 199h153v-1123h242z" glyph-name="one" unicode="1"/><glyph d="M338 188h596v-188h-793v301l471 424q76 70 101.5 117.5t25.5 129.5q-1 172 -197 171q-196 0 -196 -178v-70h-205v55q0 182 100.5 281.5t301 99.5t301 -98t100.5 -281q0 -100 -39 -177t-145 -171l-422 -377v-39z" glyph-name="two" unicode="2"/><glyph d="M544 1331q400 0 400 -395q0 -199 -141 -281q141 -77 141 -277q0 -398 -301 -398t-401.5 98t-100.5 280v35h205v-49q0 -176 196.5 -176t196.5 176v35q0 203 -219 203h-65v155h65q113 0 166 47t53 148v35q0 176 -196.5 176t-196.5 -178v-45h-205v30q0 182 100.5 281.5 t302.5 99.5z" glyph-name="three" unicode="3"/><glyph d="M979 272h-168v-272h-205v272h-487v209l391 830h231l-403 -850h268v297h205v-297h168v-189z" glyph-name="four" unicode="4"/><glyph d="M565 887q180 0 279.5 -100.5t99.5 -280.5v-144q0 -184 -101 -283t-299 -99t-300.5 97t-102.5 261h205q0 -170 196.5 -170t196.5 178v174q0 178 -196 178q-162 0 -215 -125l-178 29l40 709h719v-189h-538l-17 -288q90 53 211 53z" glyph-name="five" unicode="5"/><glyph d="M569 846q184 0 279.5 -99.5t95.5 -281.5v-103q0 -184 -100.5 -283t-301 -99t-301 99t-100.5 283v588q0 182 99.5 281.5t296.5 99.5t296 -97t99 -273h-205q-1 182 -191 182t-190 -178v-183q88 64 223 64zM739 346v133q-1 178 -197 178t-196 -196v-115q0 -178 196.5 -178 t196.5 178z" glyph-name="six" unicode="6"/><glyph d="M938 1311v-297l-459 -1014h-207l461 1016v106h-387v-116h-196v305h788z" glyph-name="seven" unicode="7"/><glyph d="M961 362q0 -184 -104.5 -283t-312.5 -99t-313.5 99t-105.5 283q0 225 162 306q-137 84 -137 274t100 289.5t292.5 99.5t293 -98.5t100.5 -290.5t-135 -274q160 -80 160 -306zM354 965v-33q0 -88 49.5 -136t139.5 -48t139 48t49 136v33q0 84 -49 131t-139 47t-139.5 -47 t-49.5 -131zM756 354v33q0 96 -56.5 147.5t-157 51.5t-156.5 -51.5t-56 -147.5v-33q0 -88 56 -137t158 -49t157 49t55 137z" glyph-name="eight" unicode="8"/><glyph d="M544 1331q202 0 301 -98t99 -283v-590q0 -182 -100 -281t-296 -99t-295 98t-99 274h204q0 -184 191 -184t190 178v180q-90 -61 -223 -61q-182 0 -278.5 100.5t-96.5 280.5v104q0 182 100.5 281.5t302.5 99.5zM539 653q201 0 200 197v115q0 178 -196.5 178t-196.5 -178 v-134q0 -178 193 -178z" glyph-name="nine" unicode="9"/><glyph d="M674 680h-262v262h262v-262zM674 0h-262v262h262v-262z" glyph-name="colon" unicode=":"/><glyph d="M674 942v-262h-262v262h262zM412 262h262v-188l-127 -332h-121l74 258h-88v262z" glyph-name="semicolon" unicode=";"/><glyph d="M928 784l-498 -184l498 -184v-162l-768 287v121l768 284v-162z" glyph-name="less" unicode="&lt;"/><glyph d="M928 678h-768v151h768v-151zM928 371h-768v151h768v-151z" glyph-name="equal" unicode="="/><glyph d="M928 662v-121l-768 -287v162l495 184l-495 184v162z" glyph-name="greater" unicode=">"/><glyph d="M544 1331q202 0 301 -98t99 -283v-43q0 -330 -303 -377l-4 -112h-186l-11 289h103q197 0 196 178v80q0 178 -196.5 178t-196.5 -178v-62h-205v47q0 182 100.5 281.5t302.5 99.5zM412 262h262v-262h-262v262z" glyph-name="question" unicode="?"/><glyph d="M791 850v18q0 201 -232 201q-131 0 -197.5 -53t-66.5 -148v-522q0 -201 252 -201q145 0 307 72l66 -141q-186 -96 -377 -96q-422 0 -422 382v490q0 383 422 383t422 -383v-528h-138l-12 55q-69 -76 -185 -76t-188.5 73t-72.5 189v6q0 279 305 279h117zM653 461 q53 0 95.5 32.5t42.5 90.5v116h-119q-63 0 -100 -29.5t-37 -84.5v-8q0 -57 32.5 -87t85.5 -30z" glyph-name="at" unicode="@"/><glyph d="M958 0h-204v166l-47 201h-328l-45 -193v-174h-205v170l283 1141h262l284 -1141v-170zM664 555l-121 526l-121 -526h242z" glyph-name="A" unicode="A"/><glyph d="M944 388q0 -388 -401 -388h-402v1311h371q201 0 301.5 -98.5t100.5 -278.5t-113 -268q143 -86 143 -278zM346 741h166q197 0 197 174v33q0 174 -197 174h-166v-381zM739 362v33q0 174 -196 174h-197v-381h197q196 0 196 174z" glyph-name="B" unicode="B"/><glyph d="M544 1331q202 0 301 -98t99 -283v-55h-205v70q0 178 -196.5 178t-196.5 -178v-619q0 -178 196.5 -178t196.5 178v70h205v-54q0 -184 -100.5 -283t-301 -99t-301 99t-100.5 283v588q0 182 100.5 281.5t302.5 99.5z" glyph-name="C" unicode="C"/><glyph d="M141 1311h402q203 0 302 -98.5t99 -282.5v-547q0 -184 -100.5 -283.5t-300.5 -99.5h-402v1311zM346 1122v-934h197q197 0 196 179v577q0 178 -196 178h-197z" glyph-name="D" unicode="D"/><glyph d="M385 1122v-372h420v-189h-420v-373h522v-188h-727v1311h727v-189h-522z" glyph-name="E" unicode="E"/><glyph d="M385 1122v-372h420v-189h-420v-561h-205v1311h727v-189h-522z" glyph-name="F" unicode="F"/><glyph d="M739 915v50q0 178 -196.5 178t-196.5 -178v-619q0 -178 196.5 -178t196.5 178v129h-186v189h391v-302q0 -184 -100.5 -283t-301 -99t-301 99t-100.5 283v588q0 182 100.5 281.5t302.5 99.5t301 -98t99 -283v-35h-205z" glyph-name="G" unicode="G"/><glyph d="M944 1311v-1311h-205v571h-393v-571h-205v1311h205v-551h393v551h205z" glyph-name="H" unicode="H"/><glyph d="M645 1122v-934h242v-188h-686v188h239v934h-239v189h686v-189h-242z" glyph-name="I" unicode="I"/><glyph d="M944 1317v-955q0 -184 -100.5 -283t-301 -99t-301 99t-100.5 283v33h205v-49q0 -178 196.5 -178t196.5 178v782h-434v189h639z" glyph-name="J" unicode="J"/><glyph d="M944 0h-166l-297 571h-135v-571h-205v1311h205v-551h135l291 551h172v-99l-291 -546l291 -551v-115z" glyph-name="K" horiz-adv-x="1089" unicode="K"/><glyph d="M907 188v-188h-727v1311h205v-1123h522z" glyph-name="L" unicode="L"/><glyph d="M944 1311v-1311h-205v840l-149 -293h-96l-148 291v-838h-205v1311h150l254 -527l252 527h147z" glyph-name="M" unicode="M"/><glyph d="M944 1311v-1311h-153l-445 870v-870h-205v1311h154l444 -871v871h205z" glyph-name="N" unicode="N"/><glyph d="M544 1331q202 0 301 -98t99 -283v-588q0 -184 -100.5 -283t-301 -99t-301 99t-100.5 283v588q0 182 100.5 281.5t302.5 99.5zM542.5 1143q-196.5 0 -196.5 -178v-619q0 -178 196.5 -178t196.5 178v619q0 178 -196.5 178z" glyph-name="O" unicode="O"/><glyph d="M141 1311h402q201 0 301 -98.5t100 -280.5t-100.5 -280.5t-300.5 -98.5h-197v-553h-205v1311zM346 1122v-381h197q197 0 196 174v33q0 174 -196 174h-197z" glyph-name="P" unicode="P"/><glyph d="M533 1331q202 0 301.5 -98t99.5 -283v-588q0 -342 -328 -378v-148h-127v146q-174 14 -261 112.5t-87 267.5v588q0 182 100 281.5t302 99.5zM729 346v619q0 178 -196.5 178t-196.5 -178v-619q0 -152 143 -174v139h127v-135q123 29 123 170z" glyph-name="Q" unicode="Q"/><glyph d="M944 932q0 -264 -205 -346l205 -494v-92h-184l-225 553h-189v-553h-205v1311h402q201 0 301 -98.5t100 -280.5zM346 741h197q197 0 196 174v33q0 174 -196 174h-197v-381z" glyph-name="R" unicode="R"/><glyph d="M542.5 1331q194.5 0 298 -102.5t103.5 -286.5h-205q0 201 -198 201q-96 0 -145.5 -43t-49.5 -119t61.5 -131t149.5 -92t176 -82t149.5 -128t61.5 -202q0 -174 -103.5 -270t-298 -96t-298 102t-103.5 287h205q0 -201 201 -201q193 0 192 164q0 131 -211 222 q-88 38 -176 82t-149.5 127t-61.5 202q0 174 103.5 270t298 96z" glyph-name="S" unicode="S"/><glyph d="M958 1122h-313v-1122h-205v1122h-311v189h829v-189z" glyph-name="T" unicode="T"/><glyph d="M944 1311v-949q0 -184 -100.5 -283t-301 -99t-301 99t-100.5 283v949h205v-965q0 -178 196.5 -178t196.5 178v965h205z" glyph-name="U" unicode="U"/><glyph d="M958 1311v-168l-284 -1143h-262l-283 1143v168h205v-174l209 -908l211 916v166h204z" glyph-name="V" unicode="V"/><glyph d="M977 1311l-94 -1311h-156l-184 494l-183 -494h-155l-96 1311h196l70 -860l127 317h80l129 -319l71 862h195z" glyph-name="W" unicode="W"/><glyph d="M944 0h-168l-233 489l-234 -489h-168v115l283 549l-283 548v99h174l228 -473l227 473h174v-99l-282 -548l282 -549v-115z" glyph-name="X" unicode="X"/><glyph d="M645 0h-205v502l-305 569v240h205v-197l203 -407l202 407v197h205v-240l-305 -569v-502z" glyph-name="Y" unicode="Y"/><glyph d="M938 1311v-297l-592 -752v-74h592v-188h-788v297l589 750v75h-589v189h788z" glyph-name="Z" unicode="Z"/><glyph d="M545 1241v-1247h254v-189h-459v1625h459v-189h-254z" glyph-name="bracketleft" unicode="["/><glyph d="M842 -61h-205l-393 1433h205z" glyph-name="backslash" unicode="\"/><glyph d="M748 1430v-1625h-459v189h254v1247h-254v189h459z" glyph-name="bracketright" unicode="]"/><glyph d="M725 631l-182 407l-181 -407h-180l307 680h105l309 -680h-178z" glyph-name="asciicircum" unicode="^"/><glyph d="M1096 -283h-1106v123h1106v-123z" glyph-name="underscore" unicode="_"/><glyph d="M711 1069h-140l-200 195v67h194l146 -196v-66z" glyph-name="grave" unicode="`"/><glyph d="M565 963q180 0 274.5 -97.5t94.5 -267.5v-598h-168l-18 90q-106 -110 -270 -110t-250.5 72.5t-86.5 203.5v8q0 137 98.5 207t278.5 70h211v71q0 178 -176 179q-82 0 -129 -32t-55 -81h-185q0 109 100.5 197t280.5 88zM338 268q0 -114 160 -114q81 0 156 45t75 102v90 h-213q-178 0 -178 -115v-8z" glyph-name="a" unicode="a"/><glyph d="M606 963q148 0 243 -93.5t95 -265.5v-266q0 -172 -95 -265t-252 -93t-259 114l-16 -94h-170v1311h204v-443q102 95 250 95zM739 354v234q0 88 -49 137t-131 49t-142.5 -48t-60.5 -138v-234q0 -88 60.5 -137t142.5 -49t131 49t49 137z" glyph-name="b" unicode="b"/><glyph d="M542 963q198 0 300 -94.5t102 -239.5h-205q0 66 -51 105.5t-143 39.5q-199 0 -199 -178v-250q0 -178 199 -178q92 0 143 40t51 105h205q0 -145 -102.5 -239t-301 -94t-299 99t-100.5 283v220q0 182 101.5 281.5t299.5 99.5z" glyph-name="c" unicode="c"/><glyph d="M934 1311v-1311h-168l-18 94q-98 -114 -258 -114t-254.5 93t-94.5 265v266q0 172 96.5 265.5t244.5 93.5t247 -95v443h205zM528 168q82 0 141.5 48t59.5 138v234q0 90 -59.5 138t-141.5 48t-132 -49t-50 -137v-234q0 -88 50 -137t132 -49z" glyph-name="d" unicode="d"/><glyph d="M346 440v-102q0 -178 197 -178q92 0 144 38t52 93h205q0 -125 -104 -218q-106 -93 -302 -93t-296.5 99t-100.5 283v220q0 182 100.5 281.5t301 99.5t301 -98.5t100.5 -276.5v-148h-598zM542.5 782q-196.5 0 -196.5 -178v-35h393v37q0 176 -196.5 176z" glyph-name="e" unicode="e"/><glyph d="M713 1204q-127 0 -127 -151v-111h317v-188h-317v-754h-205v754h-236v188h236v86q0 160 82 252t239 92q113 0 275 -59l-51 -152q-141 43 -213 43z" glyph-name="f" unicode="f"/><glyph d="M934 942v-825q0 -182 -97.5 -282.5t-280.5 -100.5t-278.5 93t-95.5 230h205q0 -66 44 -104.5t120 -38.5q178 0 178 178v148q-100 -96 -249 -96t-244 93t-95 265v102q0 172 96.5 265.5t254.5 93.5t256 -115l18 94h168zM528 332q82 0 141.5 48t59.5 138v70q0 90 -59.5 138 t-141.5 48t-132 -49t-50 -137v-70q0 -88 50 -137t132 -49z" glyph-name="g" unicode="g"/><glyph d="M614 963q152 0 236 -85t84 -253v-625h-205v608q0 166 -154 166q-92 0 -155.5 -54t-63.5 -167v-553h-204v1311h204v-451q106 103 258 103z" glyph-name="h" unicode="h"/><glyph d="M659 1087h-231v232h231v-232zM870 188v-188h-655v188h225v566h-225v188h430v-754h225z" glyph-name="i" unicode="i"/><glyph d="M760 1319v-232h-232v232h232zM315 942h430v-864q0 -160 -81.5 -252t-237.5 -92q-102 0 -270 57l51 154q141 -43 211 -43q123 0 123 153v699h-226v188z" glyph-name="j" unicode="j"/><glyph d="M940 0h-160l-317 385h-113v-385h-205v1311h205v-738h115l309 369h166v-86l-311 -377l311 -379v-100z" glyph-name="k" unicode="k"/><glyph d="M870 188v-188h-655v188h225v934h-225v189h430v-1123h225z" glyph-name="l" unicode="l"/><glyph d="M776 963q100 0 151.5 -55.5t51.5 -149.5v-758h-184v752q0 70 -66 69q-41 0 -67.5 -27.5t-26.5 -72.5v-721h-184v752q0 70 -64 69q-41 0 -68.5 -28.5t-27.5 -71.5v-721h-182v942h143l14 -57q74 78 182 78t156 -82q72 82 172 82z" glyph-name="m" unicode="m"/><glyph d="M604.5 963q160.5 0 245 -85t84.5 -253v-625h-205v608q0 166 -154 166q-92 0 -155.5 -54t-63.5 -167v-553h-204v942h170l18 -100q104 121 264.5 121z" glyph-name="n" unicode="n"/><glyph d="M542.5 963q200.5 0 301 -99.5t100.5 -281.5v-220q0 -184 -100.5 -283t-301 -99t-301 99t-100.5 283v220q0 182 100.5 281.5t301 99.5zM542.5 774q-196.5 0 -196.5 -178v-250q0 -178 196.5 -178t196.5 178v250q0 178 -196.5 178z" glyph-name="o" unicode="o"/><glyph d="M597 963q157 0 252 -93.5t95 -265.5v-266q0 -172 -95 -265t-243 -93t-250 96v-322h-204v1188h170l16 -94q102 115 259 115zM739 354v234q0 88 -49 137t-131 49t-142.5 -48t-60.5 -138v-234q0 -88 60.5 -137t142.5 -49t131 49t49 137z" glyph-name="p" unicode="p"/><glyph d="M934 942v-1188h-205v322q-100 -96 -249 -96t-244 93t-95 265v266q0 172 96.5 265.5t254.5 93.5t256 -115l18 94h168zM528 168q82 0 141.5 48t59.5 138v234q0 90 -59.5 138t-141.5 48t-132 -49t-50 -137v-234q0 -88 50 -137t132 -49z" glyph-name="q" unicode="q"/><glyph d="M641 963q330 0 330 -357v-74h-205v74q0 168 -154 168q-94 0 -157.5 -54t-63.5 -167v-553h-205v942h170l19 -100q104 121 266 121z" glyph-name="r" unicode="r"/><glyph d="M543 963q176 0 277.5 -87.5t101.5 -226.5h-205q-4 59 -53.5 94t-128.5 35t-123.5 -26.5t-44.5 -76.5t50 -75q51 -25 133 -41q82 -15 120 -25q118 -30 185 -90t67 -182.5t-101.5 -202t-277.5 -79.5t-277.5 87t-101.5 226h205q4 -61 53 -95t128 -34t125 27.5t46 76.5 t-51.5 75t-133.5 42q-82 15 -120 25q-122 30 -176 82q-76 71 -76 191t101.5 200t277.5 80z" glyph-name="s" unicode="s"/><glyph d="M660.5 -20q-132.5 0 -207 87t-74.5 236v451h-242v188h242v199l205 43v-242h323v-188h-323v-447q0 -147 114 -147q58 0 183 33l53 -164q-141 -49 -273.5 -49z" glyph-name="t" unicode="t"/><glyph d="M934 942v-942h-168l-18 100q-104 -120 -266 -120q-330 1 -330 337v625h204v-608q0 -166 154 -166q92 0 155.5 54t63.5 167v553h205z" glyph-name="u" unicode="u"/><glyph d="M961 942v-168l-302 -774h-233l-301 774v168h205v-147l213 -588l213 588v147h205z" glyph-name="v" unicode="v"/><glyph d="M977 942l-94 -942h-158l-182 516l-183 -516h-155l-96 942h196l62 -522l137 364h78l137 -364l61 522h197z" glyph-name="w" unicode="w"/><glyph d="M944 0h-164l-237 340l-238 -340h-164v100l279 379l-279 379v84h170l232 -326l231 326h170v-84l-278 -379l278 -379v-100z" glyph-name="x" unicode="x"/><glyph d="M961 942v-168l-431 -1020h-184l100 252l-321 768v168h205v-162l213 -544l213 544v162h205z" glyph-name="y" unicode="y"/><glyph d="M924 942v-262l-564 -471v-21h564v-188h-760v262l561 469v23h-561v188h760z" glyph-name="z" unicode="z"/><glyph d="M879 1434v-187q-150 0 -195 -27.5t-45 -105.5v-293q0 -76 -41 -137t-117 -86q76 -27 117 -88t41 -135v-295q0 -78 45 -105.5t195 -27.5v-185q-336 0 -388.5 96.5t-52.5 198.5l8 291q0 152 -241 162v176q242 10 241 160l-8 291q0 104 52.5 200.5t388.5 96.5z" glyph-name="braceleft" unicode="{"/><glyph d="M629 -246h-172v1802h172v-1802z" glyph-name="bar" unicode="|"/><glyph d="M207 -53q150 0 194.5 27.5t44.5 105.5v295q0 74 41 135t117 88q-76 25 -117 86t-41 137v293q0 78 -45 105.5t-194 27.5v187q336 0 388 -96.5t52 -200.5l-8 -291q0 -150 242 -160v-176q-242 -10 -242 -162l8 -291q0 -102 -52 -198.5t-388 -96.5v185z" glyph-name="braceright" unicode="}"/><glyph d="M936 709q0 -260 -193 -260q-84 0 -237 83q-113 66 -154 66q-68 0 -73 -102h-129q0 127 49 193.5t137 66.5t224 -75t173 -75q70 0 76 103h127z" glyph-name="asciitilde" unicode="~"/><glyph d="M674 680h-262v262h262v-262zM645 -369h-205v475l27 332h151l27 -332v-475z" glyph-name="exclamdown" unicode="¡"/><glyph d="M739 313h205q0 -133 -86 -224t-252 -107v-115h-127v115q-170 16 -254 114.5t-84 265.5v220q0 166 85 264t253 115v114h127v-114q166 -16 252 -107.5t86 -224.5h-205q0 114 -133 139v-594q63 12 98 49t35 90zM346 596v-250q0 -147 133 -172v594q-133 -25 -133 -172z" glyph-name="cent" unicode="¢"/><glyph d="M928 188v-188h-768v143q127 164 135 375h-119v127h109q-4 16 -39 141t-35 205q0 147 93 243.5t255 96.5t254 -95t92 -259h-203q0 82 -38.5 124t-104 42t-104.5 -42.5t-39 -112.5t28.5 -178t36.5 -165h256v-127h-250q-6 -172 -100 -330h541z" glyph-name="sterling" unicode="£"/><glyph d="M879 549q0 -98 -50 -176l125 -125l-108 -111l-127 127q-78 -45 -176.5 -45t-175.5 45l-125 -127l-111 111l125 125q-47 78 -47 176t49 176l-127 127l111 109l125 -127q78 45 176 45t176 -45l127 127l108 -109l-125 -125q50 -80 50 -178zM367 549q0 -82 50 -130t125.5 -48 t126 48t50.5 130t-50.5 130t-126 48t-125.5 -48t-50 -130z" glyph-name="currency" unicode="¤"/><glyph d="M924 831v-124h-168l-56 -103h224v-125h-279v-479h-205v479h-278v125h223l-55 103h-168v124h102l-129 240v240h205v-197l203 -407l202 407v197h205v-240l-129 -240h103z" glyph-name="yen" unicode="¥"/><glyph d="M629 850h-172v706h172v-706zM629 -246h-172v707h172v-707z" glyph-name="brokenbar" unicode="¦"/><glyph d="M907 32q0 -132 -96 -215t-267 -83t-268.5 88t-97.5 237h205q0 -145 160 -145t159 127q0 51 -42 90t-103 61.5t-135 55.5t-135.5 69.5t-103.5 106.5t-42 162q0 156 123 233q-86 80 -86 213t96.5 216t267.5 83t268 -88t97 -237l-205 2q0 143 -160 143t-159 -127 q0 -51 42 -90t103.5 -61.5t135 -55.5t135 -68.5t103.5 -105.5t42 -162q0 -157 -123 -235q86 -82 86 -214zM651 346q88 37 88 141t-132 160t-175 72q-86 -37 -86 -130t79.5 -138t143.5 -71t82 -34z" glyph-name="section" unicode="§"/><glyph d="M463 1106h-199v197h199v-197zM821 1106h-198v197h198v-197z" glyph-name="dieresis" unicode="¨"/><glyph d="M543 1122q176 0 302 -125t126 -301t-126 -301t-302 -125t-302 125t-126 301t126 301t302 125zM544 1016q-130 0 -224.5 -94.5t-94.5 -225.5t94.5 -225t224.5 -94t223 94t93 225t-93 225.5t-223 94.5zM545 907q174 0 174 -153h-103q0 57 -72 57t-73 -63v-103q0 -63 73 -63 t72 57h103q0 -154 -174 -154q-92 0 -134 41t-42 125v90q0 84 42 125t134 41z" glyph-name="copyright" unicode="©"/><glyph d="M552 1331q128 0 196.5 -69.5t68.5 -188.5v-416h-139l-10 58q-76 -72 -186 -72t-170 52.5t-60 142.5v4q0 195 264 194h135v49q0 106 -108 107q-96 0 -111 -68h-149q0 80 70.5 143.5t198.5 63.5zM496 782q57 0 106 28t49 62v48h-137q-102 0 -102 -66v-6q0 -66 84 -66z" glyph-name="ordfeminine" unicode="ª"/><glyph d="M352 520l199 -332l-158 -86l-260 418l260 420l158 -88zM721 520l186 -311l-157 -86l-248 397l248 398l157 -87z" glyph-name="guillemotleft" unicode="«"/><glyph d="M928 676v-346h-129v194h-639v152h768z" glyph-name="logicalnot" unicode="¬"/><glyph d="M543 1122q176 0 302 -125t126 -301t-126 -301t-302 -125t-302 125t-126 301t126 301t302 125zM544 377q130 0 223 94t93 225t-93 225.5t-223 94.5t-224.5 -94.5t-94.5 -225.5t94.5 -225t224.5 -94zM694 762q0 -82 -59 -115l53 -102v-53h-70l-67 133h-64v-133h-86v409h140 q153 0 153 -139zM487 705h54q68 0 67 53v6q0 59 -67 59h-54v-118z" glyph-name="registered" unicode="®"/><glyph d="M786 1102h-487v147h487v-147z" glyph-name="macron" unicode="¯"/><glyph d="M542.5 1348q108.5 0 185.5 -77t77 -185.5t-77 -184.5t-185.5 -76t-184 76.5t-75.5 184.5t75.5 185t184 77zM543 1206q-51 0 -86 -34.5t-35 -86t35 -86t86 -34.5t86 34.5t35 86t-35 86t-86 34.5z" glyph-name="degree" unicode="°"/><glyph d="M928 819v-151h-310v-267h-151v267h-307v151h307v268h151v-268h310zM160 324h768v-154h-768v154z" glyph-name="plusminus" unicode="±"/><glyph d="M377 1069v66l143 196h195v-67l-201 -195h-137z" glyph-name="acute" unicode="´"/><glyph d="M934 942v-942h-168l-18 100q-104 -121 -279 -120q-63 0 -113 14v-240h-204v1188h204v-608q0 -166 154 -166q92 0 155.5 54t63.5 167v553h205z" glyph-name="uni00B5" unicode="µ"/><glyph d="M930 1311v-1557h-144v1413h-147v-1413h-143v899q-176 0 -263.5 85t-87.5 244t88.5 244t262.5 85h434z" glyph-name="paragraph" unicode="¶"/><glyph d="M674 430h-262v262h262v-262z" glyph-name="periodcentered" unicode="·"/><glyph d="M479 23h66q145 0 145 -136v-24q0 -135 -145.5 -135t-145.5 127h103q0 -31 42 -31t42 39v24q0 35 -41 35h-66v101z" glyph-name="cedilla" unicode="¸"/><glyph d="M543 1331q143 0 214.5 -70.5t71.5 -199.5v-146q1 -272 -285 -272t-286 272v146q0 270 285 270zM543 1180q-119 0 -119 -107v-172q0 -104 119 -104t119 104v172q0 107 -119 107z" glyph-name="ordmasculine" unicode="º"/><glyph d="M952 520l-260 -418l-157 86l198 332l-198 332l157 88zM584 520l-246 -397l-160 86l187 311l-187 311l160 87z" glyph-name="guillemotright" unicode="»"/><glyph d="M651 770l-63 37l282 532l103 -59zM379 1311v-547h113v-109h-347v109h115v399l-88 -47l-55 96l174 99h88zM979 129h-78v-129h-119v129h-241v113l194 413h131l-192 -417h108v141h119v-141h78v-109zM438 543l64 -39l-285 -535l-100 62z" glyph-name="onequarter" unicode="¼"/><glyph d="M651 770l-63 37l282 532l103 -59zM373 1311v-547h112v-109h-346v109h115v399l-88 -47l-55 96l174 99h88zM676 109h289v-109h-402v166l232 205q57 51 57 100t-21.5 68.5t-66.5 19.5t-64.5 -22.5t-19.5 -81.5h-117v37q0 74 52.5 124t150.5 50q205 0 205 -193 q0 -92 -90 -170l-205 -178v-16zM438 543l64 -39l-285 -535l-100 62z" glyph-name="onehalf" unicode="½"/><glyph d="M651 770l-65 37l282 532l105 -59zM522 1128q0 -102 -65 -145q66 -41 65 -143q0 -195 -205 -195q-100 0 -152 50t-52 126v35h118q0 -61 19.5 -81.5t66.5 -20.5q86 0 86 75v19q0 92 -92 92h-39v90h39q92 0 92 88v21q0 76 -86 75q-47 0 -66.5 -21.5t-19.5 -82.5h-118v37 q0 74 53 124t151 50q205 0 205 -193zM979 129h-78v-129h-119v129h-241v113l192 413h133l-194 -417h110v141h119v-141h78v-109zM436 543l66 -39l-285 -535l-102 62z" glyph-name="threequarters" unicode="¾"/><glyph d="M674 680h-262v262h262v-262zM944 39v-47q0 -184 -99 -282.5t-301 -98.5t-302.5 99.5t-100.5 281.5v43q0 332 305 377l5 112h186l8 -288h-102q-197 0 -197 -179v-80q0 -178 196.5 -178t196.5 178v62h205z" glyph-name="questiondown" unicode="¿"/><glyph d="M373 1669h194l146 -196v-66h-140l-200 195v67zM958 0h-204v166l-47 201h-328l-45 -193v-174h-205v170l283 1141h262l284 -1141v-170zM664 555l-121 526l-121 -526h242z" glyph-name="Agrave" unicode="À"/><glyph d="M375 1407v66l143 196h195v-67l-201 -195h-137zM958 0h-204v166l-47 201h-328l-45 -193v-174h-205v170l283 1141h262l284 -1141v-170zM664 555l-121 526l-121 -526h242z" glyph-name="Aacute" unicode="Á"/><glyph d="M293 1407v63l186 199h125l187 -199v-63h-107l-141 121l-144 -121h-106zM958 0h-204v166l-47 201h-328l-45 -193v-174h-205v170l283 1141h262l284 -1141v-170zM664 555l-121 526l-121 -526h242z" glyph-name="Acircumflex" unicode="Â"/><glyph d="M660 1425q-76 -1 -142 53t-117 54q-50 0 -77 -68l-97 31q16 74 69.5 121t131.5 47t142 -53q140 -115 192 14l96 -29q-16 -74 -69 -122t-129 -48zM958 0h-204v166l-47 201h-328l-45 -193v-174h-205v170l283 1141h262l284 -1141v-170zM664 555l-121 526l-121 -526h242z" glyph-name="Atilde" unicode="Ã"/><glyph d="M463 1444h-199v196h199v-196zM821 1444h-198v196h198v-196zM958 0h-204v166l-47 201h-328l-45 -193v-174h-205v170l283 1141h262l284 -1141v-170zM664 555l-121 526l-121 -526h242z" glyph-name="Adieresis" unicode="Ä"/><glyph d="M542 1393q-81 0 -133.5 50t-52.5 128t50.5 130t136.5 52t136 -52t50 -129t-53 -128t-134 -51zM543 1651q-35 0 -57.5 -22.5t-22.5 -55.5t23.5 -55.5t56 -22.5t55.5 22.5t23 55.5t-21.5 55.5t-56.5 22.5zM958 0h-204v166l-47 201h-328l-45 -193v-174h-205v170l283 1141 h262l284 -1141v-170zM664 555l-121 526l-121 -526h242z" glyph-name="Aring" unicode="Å"/><glyph d="M717 1122v-372h174v-189h-174v-373h248v-188h-437v367h-188l-45 -193v-174h-205v170l287 1141h588v-189h-248zM528 555v608l-143 -608h143z" glyph-name="AE" unicode="Æ"/><glyph d="M739 895v70q0 178 -196.5 178t-196.5 -178v-619q0 -178 196.5 -178t196.5 178v70h205v-54q0 -324 -293 -374q37 -33 37 -101v-24q0 -135 -145.5 -135t-145.5 127h103q0 -31 42 -31t42 39v24q0 35 -41 35h-66v60q-168 16 -252 114.5t-84 265.5v588q0 182 100.5 281.5 t302.5 99.5t301 -98t99 -283v-55h-205z" glyph-name="Ccedilla" unicode="Ç"/><glyph d="M373 1669h194l146 -196v-66h-140l-200 195v67zM385 1122v-372h420v-189h-420v-373h522v-188h-727v1311h727v-189h-522z" glyph-name="Egrave" unicode="È"/><glyph d="M375 1407v66l143 196h195v-67l-201 -195h-137zM385 1122v-372h420v-189h-420v-373h522v-188h-727v1311h727v-189h-522z" glyph-name="Eacute" unicode="É"/><glyph d="M293 1407v63l186 199h125l187 -199v-63h-107l-141 121l-144 -121h-106zM385 1122v-372h420v-189h-420v-373h522v-188h-727v1311h727v-189h-522z" glyph-name="Ecircumflex" unicode="Ê"/><glyph d="M463 1444h-199v196h199v-196zM821 1444h-198v196h198v-196zM385 1122v-372h420v-189h-420v-373h522v-188h-727v1311h727v-189h-522z" glyph-name="Edieresis" unicode="Ë"/><glyph d="M373 1669h194l146 -196v-66h-140l-200 195v67zM645 1122v-934h242v-188h-686v188h239v934h-239v189h686v-189h-242z" glyph-name="Igrave" unicode="Ì"/><glyph d="M375 1407v66l143 196h195v-67l-201 -195h-137zM645 1122v-934h242v-188h-686v188h239v934h-239v189h686v-189h-242z" glyph-name="Iacute" unicode="Í"/><glyph d="M293 1407v63l186 199h125l187 -199v-63h-107l-141 121l-144 -121h-106zM645 1122v-934h242v-188h-686v188h239v934h-239v189h686v-189h-242z" glyph-name="Icircumflex" unicode="Î"/><glyph d="M463 1444h-199v196h199v-196zM821 1444h-198v196h198v-196zM645 1122v-934h242v-188h-686v188h239v934h-239v189h686v-189h-242z" glyph-name="Idieresis" unicode="Ï"/><glyph d="M141 1311h402q203 0 302 -98.5t99 -282.5v-547q0 -184 -100.5 -283.5t-300.5 -99.5h-402v571h-82v189h82v551zM739 367v577q0 178 -196 178h-197v-362h189v-189h-189v-383h197q196 1 196 179z" glyph-name="Eth" unicode="Ð"/><glyph d="M659.5 1425q-75.5 0 -142 53.5t-116.5 53.5t-77 -68l-97 31q16 74 69.5 121t131.5 47t142 -53q140 -115 192 14l96 -29q-16 -74 -69.5 -122t-129 -48zM944 1311v-1311h-153l-445 870v-870h-205v1311h154l444 -871v871h205z" glyph-name="Ntilde" unicode="Ñ"/><glyph d="M713 1407h-140l-200 195v67h194l146 -196v-66zM544 1331q202 0 301 -98t99 -283v-588q0 -184 -100.5 -283t-301 -99t-301 99t-100.5 283v588q0 182 100.5 281.5t302.5 99.5zM542.5 1143q-196.5 0 -196.5 -178v-619q0 -178 196.5 -178t196.5 178v619q0 178 -196.5 178z " glyph-name="Ograve" unicode="Ò"/><glyph d="M375 1407v66l143 196h195v-67l-201 -195h-137zM544 1331q202 0 301 -98t99 -283v-588q0 -184 -100.5 -283t-301 -99t-301 99t-100.5 283v588q0 182 100.5 281.5t302.5 99.5zM542.5 1143q-196.5 0 -196.5 -178v-619q0 -178 196.5 -178t196.5 178v619q0 178 -196.5 178z " glyph-name="Oacute" unicode="Ó"/><glyph d="M293 1407v63l186 199h125l187 -199v-63h-107l-141 121l-144 -121h-106zM544 1331q202 0 301 -98t99 -283v-588q0 -184 -100.5 -283t-301 -99t-301 99t-100.5 283v588q0 182 100.5 281.5t302.5 99.5zM739 346v619q0 178 -196.5 178t-196.5 -178v-619q0 -178 196.5 -178 t196.5 178z" glyph-name="Ocircumflex" unicode="Ô"/><glyph d="M428 1663q78 0 142 -53q140 -115 192 14l96 -29q-16 -74 -69 -122t-129 -48q-76 -1 -142 53t-117 54q-50 0 -77 -68l-97 31q16 74 69.5 121t131.5 47zM544 1331q202 0 301 -98t99 -283v-588q0 -184 -100.5 -283t-301 -99t-301 99t-100.5 283v588q0 182 100.5 281.5 t302.5 99.5zM542.5 1143q-196.5 0 -196.5 -178v-619q0 -178 196.5 -178t196.5 178v619q0 178 -196.5 178z" glyph-name="Otilde" unicode="Õ"/><glyph d="M463 1444h-199v196h199v-196zM821 1444h-198v196h198v-196zM544 1331q202 0 301 -98t99 -283v-588q0 -184 -100.5 -283t-301 -99t-301 99t-100.5 283v588q0 182 100.5 281.5t302.5 99.5zM542.5 1143q-196.5 0 -196.5 -178v-619q0 -178 196.5 -178t196.5 178v619 q0 178 -196.5 178z" glyph-name="Odieresis" unicode="Ö"/><glyph d="M653 600l260 -260l-110 -109l-260 261l-260 -261l-109 109l260 260l-260 260l109 111l260 -260l260 260l110 -111z" glyph-name="multiply" unicode="×"/><glyph d="M944 950v-588q0 -184 -100.5 -283t-300.5 -99q-45 0 -111 8l-14 -49h-144l27 96q-160 90 -160 327v588q0 182 100.5 281.5t301.5 99.5q68 0 110 -8l15 49h143l-27 -94q160 -94 160 -328zM346 965v-619q0 -49 16 -88l242 881q-37 4 -61 4q-197 0 -197 -178zM739 346v619 q0 49 -16 88l-242 -879q27 -6 62 -6q196 0 196 178z" glyph-name="Oslash" unicode="Ø"/><glyph d="M713 1407h-140l-200 195v67h194l146 -196v-66zM944 1311v-949q0 -184 -100.5 -283t-301 -99t-301 99t-100.5 283v949h205v-965q0 -178 196.5 -178t196.5 178v965h205z" glyph-name="Ugrave" unicode="Ù"/><glyph d="M375 1407v66l143 196h195v-67l-201 -195h-137zM944 1311v-949q0 -184 -100.5 -283t-301 -99t-301 99t-100.5 283v949h205v-965q0 -178 196.5 -178t196.5 178v965h205z" glyph-name="Uacute" unicode="Ú"/><glyph d="M293 1407v63l186 199h125l187 -199v-63h-107l-141 121l-144 -121h-106zM944 1311v-949q0 -184 -100.5 -283t-301 -99t-301 99t-100.5 283v949h205v-965q0 -178 196.5 -178t196.5 178v965h205z" glyph-name="Ucircumflex" unicode="Û"/><glyph d="M463 1444h-199v196h199v-196zM821 1444h-198v196h198v-196zM944 1311v-949q0 -184 -100.5 -283t-301 -99t-301 99t-100.5 283v949h205v-965q0 -178 196.5 -178t196.5 178v965h205z" glyph-name="Udieresis" unicode="Ü"/><glyph d="M375 1407v66l143 196h195v-67l-201 -195h-137zM645 0h-205v502l-305 569v240h205v-197l203 -407l202 407v197h205v-240l-305 -569v-502z" glyph-name="Yacute" unicode="Ý"/><glyph d="M346 1040h197q201 0 301 -98t100 -280.5t-100.5 -280.5t-300.5 -98h-197v-283h-205v1311h205v-271zM739 645v33q0 174 -196 174h-197v-381h197q196 0 196 174z" glyph-name="Thorn" unicode="Þ"/><glyph d="M944 393q0 -207 -98 -310t-283 -103q-61 0 -114 12l20 184q49 -8 92 -8q184 0 184 213q0 115 -53 164t-164 49v170q86 0 126 43t40 138t-46 144.5t-125 49.5t-123 -44t-44 -130v-965h-204v948q0 180 94 279.5t275 99.5t276.5 -102.5t95.5 -277.5t-96 -259 q147 -88 147 -295z" glyph-name="germandbls" unicode="ß"/><glyph d="M393 1331h195l145 -196v-66h-139l-201 195v67zM565 963q180 0 274.5 -97.5t94.5 -267.5v-598h-168l-18 90q-106 -110 -270 -110t-250.5 72.5t-86.5 203.5v8q0 137 98.5 207t278.5 70h211v71q0 178 -176 179q-82 0 -129 -32t-55 -81h-185q0 109 100.5 197t280.5 88z M338 268q0 -114 160 -114q81 0 156 45t75 102v90h-213q-178 0 -178 -115v-8z" glyph-name="agrave" unicode="à"/><glyph d="M393 1069v66l144 196h194v-67l-201 -195h-137zM565 963q180 0 274.5 -97.5t94.5 -267.5v-598h-168l-18 90q-106 -110 -270 -110t-250.5 72.5t-86.5 203.5v8q0 137 98.5 207t278.5 70h211v71q0 178 -176 179q-82 0 -129 -32t-55 -81h-185q0 109 100.5 197t280.5 88z M338 268q0 -114 160 -114q81 0 156 45t75 102v90h-213q-178 0 -178 -115v-8z" glyph-name="aacute" unicode="á"/><glyph d="M313 1069v64l187 198h125l186 -198v-64h-106l-142 121l-143 -121h-107zM565 963q180 0 274.5 -97.5t94.5 -267.5v-598h-168l-18 90q-106 -110 -270 -110t-250.5 72.5t-86.5 203.5v8q0 137 98.5 207t278.5 70h211v71q0 178 -176 179q-82 0 -129 -32t-55 -81h-185 q0 109 100.5 197t280.5 88zM338 268q0 -114 160 -114q81 0 156 45t75 102v90h-213q-178 0 -178 -115v-8z" glyph-name="acircumflex" unicode="â"/><glyph d="M680 1087q-76 -1 -142 53t-117 54q-50 0 -77 -68l-96 31q16 74 69 121t131 47t142 -53t115 -53q50 0 77 67l97 -29q-16 -74 -69.5 -122t-129.5 -48zM565 963q180 0 274.5 -97.5t94.5 -267.5v-598h-168l-18 90q-106 -110 -270 -110t-250.5 72.5t-86.5 203.5v8 q0 137 98.5 207t278.5 70h211v71q0 178 -176 179q-82 0 -129 -32t-55 -81h-185q0 109 100.5 197t280.5 88zM338 268q0 -114 160 -114q81 0 156 45t75 102v90h-213q-178 0 -178 -115v-8z" glyph-name="atilde" unicode="ã"/><glyph d="M483 1106h-198v197h198v-197zM842 1106h-199v197h199v-197zM565 963q180 0 274.5 -97.5t94.5 -267.5v-598h-168l-18 90q-106 -110 -270 -110t-250.5 72.5t-86.5 203.5v8q0 137 98.5 207t278.5 70h211v71q0 178 -176 179q-82 0 -129 -32t-55 -81h-185q0 109 100.5 197 t280.5 88zM338 268q0 -114 160 -114q81 0 156 45t75 102v90h-213q-178 0 -178 -115v-8z" glyph-name="adieresis" unicode="ä"/><glyph d="M562 1055q-81 0 -133 50t-52 128t50 130t136 52t136.5 -52t50.5 -129t-53.5 -128t-134.5 -51zM563 1313q-35 0 -57.5 -22.5t-22.5 -55.5t23.5 -55.5t56.5 -22.5t55.5 22.5t22.5 56.5t-21.5 55.5t-56.5 21.5zM565 963q180 0 274.5 -97.5t94.5 -267.5v-598h-168l-18 90 q-106 -110 -270 -110t-250.5 72.5t-86.5 203.5v8q0 137 98.5 207t278.5 70h211v71q0 178 -176 179q-82 0 -129 -32t-55 -81h-185q0 109 100.5 197t280.5 88zM338 268q0 -114 160 -114q81 0 156 45t75 102v90h-213q-178 0 -178 -115v-8z" glyph-name="aring" unicode="å"/><glyph d="M633 440v-102q0 -178 90 -178q43 0 65.5 36.5t22.5 94.5l182 -2q0 -121 -72.5 -215t-194.5 -94t-191 79q-80 -80 -199 -79q-244 0 -244 290v9q0 137 77 213.5t228 76.5h54v13q0 106 24 186q-27 23 -69 23q-96 0 -101 -113h-170q-2 113 64.5 199t212.5 86q100 0 161 -45 q61 45 150 45q131 0 200.5 -99.5t69.5 -275.5v-148h-360zM723 782q-49 0 -69.5 -42t-20.5 -136v-35h178v37q0 176 -88 176zM365 150q61 0 106 40q-20 70 -20 172v78h-54q-139 0 -139 -147v-10q1 -133 107 -133z" glyph-name="ae" unicode="æ"/><glyph d="M545 168q92 0 143 40t51 105h205q0 -123 -74.5 -212t-218.5 -113q37 -33 37 -101v-24q0 -135 -145.5 -135t-145.5 127h103q0 -31 42 -31t42 39v24q0 35 -41 35h-66v62q-168 14 -252 112.5t-84 265.5v220q0 182 101.5 281.5t299.5 99.5t300 -94.5t102 -239.5h-205 q0 66 -51 105.5t-143 39.5q-199 0 -199 -178v-250q0 -178 199 -178z" glyph-name="ccedilla" unicode="ç"/><glyph d="M373 1331h194l146 -196v-66h-140l-200 195v67zM346 440v-102q0 -178 197 -178q92 0 144 38t52 93h205q0 -125 -104.5 -218t-301 -93t-297 99t-100.5 283v220q0 182 100.5 281.5t301 99.5t301 -98.5t100.5 -276.5v-148h-598zM542.5 782q-196.5 0 -196.5 -178v-35h393v37 q0 176 -196.5 176z" glyph-name="egrave" unicode="è"/><glyph d="M375 1069v66l143 196h195v-67l-201 -195h-137zM346 440v-102q0 -178 197 -178q92 0 144 38t52 93h205q0 -125 -104.5 -218t-301 -93t-297 99t-100.5 283v220q0 182 100.5 281.5t301 99.5t301 -98.5t100.5 -276.5v-148h-598zM542.5 782q-196.5 0 -196.5 -178v-35h393v37 q0 176 -196.5 176z" glyph-name="eacute" unicode="é"/><glyph d="M293 1069v64l186 198h125l187 -198v-64h-107l-141 121l-144 -121h-106zM346 440v-102q0 -178 197 -178q92 0 144 38t52 93h205q0 -125 -104.5 -218t-301 -93t-297 99t-100.5 283v220q0 182 100.5 281.5t301 99.5t301 -98.5t100.5 -276.5v-148h-598zM542.5 782 q-196.5 0 -196.5 -178v-35h393v37q0 176 -196.5 176z" glyph-name="ecircumflex" unicode="ê"/><glyph d="M463 1106h-199v197h199v-197zM821 1106h-198v197h198v-197zM346 440v-102q0 -178 197 -178q92 0 144 38t52 93h205q0 -125 -104 -218q-106 -93 -302 -93t-296.5 99t-100.5 283v220q0 182 100.5 281.5t301 99.5t301 -98.5t100.5 -276.5v-148h-598zM542.5 782 q-196.5 0 -196.5 -178v-35h393v37q0 176 -196.5 176z" glyph-name="edieresis" unicode="ë"/><glyph d="M373 1331h194l146 -196v-66h-140l-200 195v67zM870 188v-188h-655v188h225v566h-225v188h430v-754h225z" glyph-name="igrave" unicode="ì"/><glyph d="M375 1069v66l143 196h195v-67l-201 -195h-137zM870 188v-188h-655v188h225v566h-225v188h430v-754h225z" glyph-name="iacute" unicode="í"/><glyph d="M293 1069v64l186 198h125l187 -198v-64h-107l-141 121l-144 -121h-106zM870 188v-188h-655v188h225v566h-225v188h430v-754h225z" glyph-name="icircumflex" unicode="î"/><glyph d="M463 1106h-199v197h199v-197zM821 1106h-198v197h198v-197zM870 188v-188h-655v188h225v566h-225v188h430v-754h225z" glyph-name="idieresis" unicode="ï"/><glyph d="M944 569v-207q0 -184 -100.5 -283t-301 -99t-301 99t-100.5 283v181q0 174 101.5 266t269.5 92q109 0 193 -59q-33 109 -115 190l-184 -86l-64 144l104 49q-88 45 -176 78l54 161q195 -57 319 -147l178 82l64 -144l-115 -53q174 -205 174 -547zM739 596q-47 117 -205 117 q-76 0 -132 -48.5t-56 -138.5v-180q0 -178 196.5 -178t196.5 178v250z" glyph-name="eth" unicode="ð"/><glyph d="M665.5 1087q-75.5 0 -142 53.5t-116.5 53.5t-77 -68l-97 31q16 74 69.5 121t131.5 47t142.5 -53t114.5 -53t77 67l96 -29q-16 -74 -69.5 -122t-129 -48zM604.5 963q160.5 0 245 -85t84.5 -253v-625h-205v608q0 166 -154 166q-92 0 -155.5 -54t-63.5 -167v-553h-204v942 h170l18 -100q104 121 264.5 121z" glyph-name="ntilde" unicode="ñ"/><glyph d="M711 1069h-140l-200 195v67h194l146 -196v-66zM542.5 963q200.5 0 301 -99.5t100.5 -281.5v-220q0 -184 -100.5 -283t-301 -99t-301 99t-100.5 283v220q0 182 100.5 281.5t301 99.5zM542.5 774q-196.5 0 -196.5 -178v-250q0 -178 196.5 -178t196.5 178v250 q0 178 -196.5 178z" glyph-name="ograve" unicode="ò"/><glyph d="M377 1069v66l143 196h195v-67l-201 -195h-137zM542.5 963q200.5 0 301 -99.5t100.5 -281.5v-220q0 -184 -100.5 -283t-301 -99t-301 99t-100.5 283v220q0 182 100.5 281.5t301 99.5zM542.5 774q-196.5 0 -196.5 -178v-250q0 -178 196.5 -178t196.5 178v250 q0 178 -196.5 178z" glyph-name="oacute" unicode="ó"/><glyph d="M295 1069v64l186 198h125l187 -198v-64h-107l-141 121l-144 -121h-106zM542.5 963q200.5 0 301 -99.5t100.5 -281.5v-220q0 -184 -100.5 -283t-301 -99t-301 99t-100.5 283v220q0 182 100.5 281.5t301 99.5zM739 346v250q0 178 -196.5 178t-196.5 -178v-250 q0 -178 196.5 -178t196.5 178z" glyph-name="ocircumflex" unicode="ô"/><glyph d="M428 1325q78 0 142 -53t115 -53q50 0 77 67l96 -29q-16 -74 -69 -122t-129 -48q-76 -1 -142 53t-117 54q-50 0 -77 -68l-97 31q16 74 69.5 121t131.5 47zM542.5 963q200.5 0 301 -99.5t100.5 -281.5v-220q0 -184 -100.5 -283t-301 -99t-301 99t-100.5 283v220 q0 182 100.5 281.5t301 99.5zM542.5 774q-196.5 0 -196.5 -178v-250q0 -178 196.5 -178t196.5 178v250q0 178 -196.5 178z" glyph-name="otilde" unicode="õ"/><glyph d="M463 1106h-199v197h199v-197zM821 1106h-198v197h198v-197zM542.5 963q200.5 0 301 -99.5t100.5 -281.5v-220q0 -184 -100.5 -283t-301 -99t-301 99t-100.5 283v220q0 182 100.5 281.5t301 99.5zM542.5 774q-196.5 0 -196.5 -178v-250q0 -178 196.5 -178t196.5 178v250 q0 178 -196.5 178z" glyph-name="odieresis" unicode="ö"/><glyph d="M629 819h-170v170h170v-170zM928 524h-768v152h768v-152zM629 211h-170v170h170v-170z" glyph-name="divide" unicode="÷"/><glyph d="M944 582v-220q0 -184 -100.5 -283t-300.5 -99q-25 0 -70 4l-12 -45h-127l20 71q-213 80 -213 352v220q0 182 100.5 281.5t301.5 99.5q27 0 71 -5l13 46h127l-21 -72q211 -78 211 -350zM346 596v-250q0 -96 62 -143l155 571h-20q-197 0 -197 -178zM739 346v250 q0 98 -59 141l-156 -569h19q196 0 196 178z" glyph-name="oslash" unicode="ø"/><glyph d="M373 1331h194l146 -196v-66h-140l-200 195v67zM934 942v-942h-168l-18 100q-104 -120 -266 -120q-330 1 -330 337v625h204v-608q0 -166 154 -166q92 0 155.5 54t63.5 167v553h205z" glyph-name="ugrave" unicode="ù"/><glyph d="M375 1069v66l143 196h195v-67l-201 -195h-137zM934 942v-942h-168l-18 100q-104 -120 -266 -120q-330 1 -330 337v625h204v-608q0 -166 154 -166q92 0 155.5 54t63.5 167v553h205z" glyph-name="uacute" unicode="ú"/><glyph d="M293 1069v64l186 198h125l187 -198v-64h-107l-141 121l-144 -121h-106zM934 942v-942h-168l-18 100q-104 -120 -266 -120q-330 1 -330 337v625h204v-608q0 -166 154 -166q92 0 155.5 54t63.5 167v553h205z" glyph-name="ucircumflex" unicode="û"/><glyph d="M463 1106h-199v197h199v-197zM821 1106h-198v197h198v-197zM934 942v-942h-168l-18 100q-104 -120 -266 -120q-330 1 -330 337v625h204v-608q0 -166 154 -166q92 0 155.5 54t63.5 167v553h205z" glyph-name="udieresis" unicode="ü"/><glyph d="M375 1069v66l143 196h195v-67l-201 -195h-137zM961 942v-168l-431 -1020h-184l100 252l-321 768v168h205v-162l213 -544l213 544v162h205z" glyph-name="yacute" unicode="ý"/><glyph d="M606 963q148 0 243 -93.5t95 -265.5v-266q0 -172 -95 -265t-243 -93t-250 96v-322h-204v1557h204v-443q102 95 250 95zM739 354v234q0 88 -49 137t-131 49t-142.5 -48t-60.5 -138v-234q0 -88 60.5 -137t142.5 -49t131 49t49 137z" glyph-name="thorn" unicode="þ"/><glyph d="M463 1106h-199v197h199v-197zM821 1106h-198v197h198v-197zM961 942v-168l-431 -1020h-184l100 252l-321 768v168h205v-162l213 -544l213 544v162h205z" glyph-name="ydieresis" unicode="ÿ"/><glyph d="M786 1440h-487v147h487v-147zM958 0h-204v166l-47 201h-328l-45 -193v-174h-205v170l283 1141h262l284 -1141v-170zM664 555l-121 526l-121 -526h242z" glyph-name="Amacron" unicode="Ā"/><glyph d="M807 1102h-488v147h488v-147zM565 963q180 0 274.5 -97.5t94.5 -267.5v-598h-168l-18 90q-106 -110 -270 -110t-250.5 72.5t-86.5 203.5v8q0 137 98.5 207t278.5 70h211v71q0 178 -176 179q-82 0 -129 -32t-55 -81h-185q0 109 100.5 197t280.5 88zM338 268 q0 -114 160 -114q81 0 156 45t75 102v90h-213q-178 0 -178 -115v-8z" glyph-name="amacron" unicode="ā"/><glyph d="M545 1413q-92 0 -162 53.5t-100 132.5v66h106q14 -51 55.5 -85t99.5 -34t99 35t55 84h107v-66q-31 -80 -99.5 -133t-160.5 -53zM958 0h-204v166l-47 201h-328l-45 -193v-174h-205v170l283 1141h262l284 -1141v-170zM664 555l-121 526l-121 -526h242z" glyph-name="Abreve" unicode="Ă"/><glyph d="M563 1075q-92 0 -161.5 53.5t-100.5 133.5v65h107q14 -51 55 -85t99 -34t99 35t56 84h106v-65q-31 -80 -99.5 -133.5t-160.5 -53.5zM565 963q180 0 274.5 -97.5t94.5 -267.5v-598h-168l-18 90q-106 -110 -270 -110t-250.5 72.5t-86.5 203.5v8q0 137 98.5 207t278.5 70 h211v71q0 178 -176 179q-82 0 -129 -32t-55 -81h-185q0 109 100.5 197t280.5 88zM338 268q0 -114 160 -114q81 0 156 45t75 102v90h-213q-178 0 -178 -115v-8z" glyph-name="abreve" unicode="ă"/><glyph d="M889 -141h69v-92q-51 -9 -110 -9t-94 33t-35 99t49 110h-14v166l-47 201h-328l-45 -193v-174h-205v170l283 1141h262l284 -1141v-170q-123 -20 -122 -94q0 -47 53 -47zM664 555l-121 526l-121 -526h242z" glyph-name="Aogonek" unicode="Ą"/><glyph d="M934 598v-598q-123 -20 -123 -94q0 -47 53 -47h70v-92q-50 -9 -110 -9t-95 33t-35 86q0 88 68 139l-14 74q-106 -110 -270 -110t-250.5 72.5t-86.5 203.5v8q0 137 98.5 207t278.5 70h211v71q0 178 -176 179q-82 0 -129 -32t-55 -81h-185q0 109 100.5 197t280.5 88 t274.5 -97.5t94.5 -267.5zM338 268q0 -114 160 -114q81 0 156 45t75 102v90h-213q-178 0 -178 -115v-8z" glyph-name="aogonek" unicode="ą"/><glyph d="M375 1407v66l143 196h195v-67l-201 -195h-137zM544 1331q202 0 301 -98t99 -283v-55h-205v70q0 178 -196.5 178t-196.5 -178v-619q0 -178 196.5 -178t196.5 178v70h205v-54q0 -184 -100.5 -283t-301 -99t-301 99t-100.5 283v588q0 182 100.5 281.5t302.5 99.5z" glyph-name="Cacute" unicode="Ć"/><glyph d="M375 1069v66l143 196h195v-67l-201 -195h-137zM542 963q198 0 300 -94.5t102 -239.5h-205q0 66 -51 105.5t-143 39.5q-199 0 -199 -178v-250q0 -178 199 -178q92 0 143 40t51 105h205q0 -145 -102.5 -239t-301 -94t-299 99t-100.5 283v220q0 182 101.5 281.5t299.5 99.5z " glyph-name="cacute" unicode="ć"/><glyph d="M293 1407v63l186 199h125l187 -199v-63h-107l-141 121l-144 -121h-106zM739 895v70q0 178 -196.5 178t-196.5 -178v-619q0 -178 196.5 -178t196.5 178v70h205v-54q0 -184 -100.5 -283t-301 -99t-301 99t-100.5 283v588q0 182 100.5 281.5t302.5 99.5t301 -98t99 -283v-55 h-205z" glyph-name="Ccircumflex" unicode="Ĉ"/><glyph d="M293 1069v64l186 198h125l187 -198v-64h-107l-141 121l-144 -121h-106zM545 168q92 0 143 40t51 105h205q0 -145 -102.5 -239t-301 -94t-299 99t-100.5 283v220q0 182 101.5 281.5t299.5 99.5t300 -94.5t102 -239.5h-205q0 66 -51 105.5t-143 39.5q-199 0 -199 -178v-250 q0 -178 199 -178z" glyph-name="ccircumflex" unicode="ĉ"/><glyph d="M641 1450h-197v197h197v-197zM544 1331q202 0 301 -98t99 -283v-55h-205v70q0 178 -196.5 178t-196.5 -178v-619q0 -178 196.5 -178t196.5 178v70h205v-54q0 -184 -100.5 -283t-301 -99t-301 99t-100.5 283v588q0 182 100.5 281.5t302.5 99.5z" glyph-name="Cdotaccent" unicode="Ċ"/><glyph d="M641 1112h-197v197h197v-197zM542 963q198 0 300 -94.5t102 -239.5h-205q0 66 -51 105.5t-143 39.5q-199 0 -199 -178v-250q0 -178 199 -178q92 0 143 40t51 105h205q0 -145 -102.5 -239t-301 -94t-299 99t-100.5 283v220q0 182 101.5 281.5t299.5 99.5z" glyph-name="cdotaccent" unicode="ċ"/><glyph d="M293 1669h106l144 -121l141 121h107v-63l-187 -199h-125l-186 199v63zM739 895v70q0 178 -196.5 178t-196.5 -178v-619q0 -178 196.5 -178t196.5 178v70h205v-54q0 -184 -100.5 -283t-301 -99t-301 99t-100.5 283v588q0 182 100.5 281.5t302.5 99.5t301 -98t99 -283v-55 h-205z" glyph-name="Ccaron" unicode="Č"/><glyph d="M293 1331h106l144 -121l141 121h107v-63l-187 -199h-125l-186 199v63zM545 168q92 0 143 40t51 105h205q0 -145 -102.5 -239t-301 -94t-299 99t-100.5 283v220q0 182 101.5 281.5t299.5 99.5t300 -94.5t102 -239.5h-205q0 66 -51 105.5t-143 39.5q-199 0 -199 -178v-250 q0 -178 199 -178z" glyph-name="ccaron" unicode="č"/><glyph d="M262 1669h107l143 -121l141 121h107v-63l-187 -199h-124l-187 199v63zM141 1311h402q203 0 302 -98.5t99 -282.5v-547q0 -184 -100.5 -283.5t-300.5 -99.5h-402v1311zM739 367v577q0 178 -196 178h-197v-934h197q196 1 196 179z" glyph-name="Dcaron" unicode="Ď"/><glyph d="M639 1311h205v-1311h-170l-17 86q-90 -106 -226 -106t-227 94t-91 264v266q0 170 92 264.5t220 94.5t214 -86v434zM1067 1311v-101l-59 -172h-70l29 125h-70v148h170zM468 168q69 0 120 49t51 137v234q0 90 -51 138t-120 48t-110 -48t-41 -138v-234q0 -90 41 -138 t110 -48z" glyph-name="dcaron" unicode="ď"/><glyph d="M141 1311h402q203 0 302 -98.5t99 -282.5v-547q0 -184 -100.5 -283.5t-300.5 -99.5h-402v571h-82v189h82v551zM739 367v577q0 178 -196 178h-197v-362h189v-189h-189v-383h197q196 1 196 179z" glyph-name="Dcroat" unicode="Đ"/><glyph d="M1022 1049h-88v-1049h-168l-18 94q-98 -114 -258 -114t-254.5 93t-94.5 265v266q0 172 96.5 265.5t244.5 93.5t247 -95v181h-194v147h194v115h205v-115h88v-147zM528 168q82 0 141.5 48t59.5 138v234q0 90 -59.5 138t-141.5 48t-132 -49t-50 -137v-234q0 -88 50 -137 t132 -49z" glyph-name="dcroat" unicode="đ"/><glyph d="M786 1440h-487v147h487v-147zM385 1122v-372h420v-189h-420v-373h522v-188h-727v1311h727v-189h-522z" glyph-name="Emacron" unicode="Ē"/><glyph d="M786 1102h-487v147h487v-147zM346 440v-102q0 -178 197 -178q92 0 144 38t52 93h205q0 -125 -104 -218q-106 -93 -302 -93t-296.5 99t-100.5 283v220q0 182 100.5 281.5t301 99.5t301 -98.5t100.5 -276.5v-148h-598zM542.5 782q-196.5 0 -196.5 -178v-35h393v37 q0 176 -196.5 176z" glyph-name="emacron" unicode="ē"/><glyph d="M545 1413q-92 0 -162 53.5t-100 132.5v66h106q14 -51 55 -85q42 -34 100 -34t99 35t55 84h107v-66q-31 -80 -99.5 -133t-160.5 -53zM385 1122v-372h420v-189h-420v-373h522v-188h-727v1311h727v-189h-522z" glyph-name="Ebreve" unicode="Ĕ"/><glyph d="M545 1075q-92 0 -162 53.5t-100 133.5v65h106q14 -51 55 -85q42 -34 100 -34t99 35t55 84h107v-65q-31 -80 -99.5 -133.5t-160.5 -53.5zM346 440v-102q0 -178 197 -178q92 0 144 38t52 93h205q0 -125 -104 -218q-106 -93 -302 -93t-296.5 99t-100.5 283v220 q0 182 100.5 281.5t301 99.5t301 -98.5t100.5 -276.5v-148h-598zM542.5 782q-196.5 0 -196.5 -178v-35h393v37q0 176 -196.5 176z" glyph-name="ebreve" unicode="ĕ"/><glyph d="M641 1450h-197v197h197v-197zM385 1122v-372h420v-189h-420v-373h522v-188h-727v1311h727v-189h-522z" glyph-name="Edotaccent" unicode="Ė"/><glyph d="M641 1112h-197v197h197v-197zM346 440v-102q0 -178 197 -178q92 0 144 38t52 93h205q0 -125 -104 -218q-106 -93 -302 -93t-296.5 99t-100.5 283v220q0 182 100.5 281.5t301 99.5t301 -98.5t100.5 -276.5v-148h-598zM542.5 782q-196.5 0 -196.5 -178v-35h393v37 q0 176 -196.5 176z" glyph-name="edotaccent" unicode="ė"/><glyph d="M385 1122v-372h420v-189h-420v-373h522v-188q-123 -20 -123 -94q0 -47 54 -47h69v-92q-51 -9 -110 -9t-94 33t-35 99t49 110h-537v1311h727v-189h-522z" glyph-name="Eogonek" unicode="Ę"/><glyph d="M346 440v-102q0 -178 197 -178q92 0 144 38t52 93h205q0 -109 -83 -197t-236 -108q-106 -23 -107 -92q0 -47 53 -48h70v-92q-51 -8 -111 -8t-94.5 33t-34.5 97t48 110q-307 45 -308 376v220q0 182 100.5 281.5t301 99.5t301 -98.5t100.5 -276.5v-148h-598zM542.5 782 q-196.5 0 -196.5 -178v-35h393v37q0 176 -196.5 176z" glyph-name="eogonek" unicode="ę"/><glyph d="M293 1669h106l144 -121l141 121h107v-63l-187 -199h-125l-186 199v63zM385 1122v-372h420v-189h-420v-373h522v-188h-727v1311h727v-189h-522z" glyph-name="Ecaron" unicode="Ě"/><glyph d="M293 1331h106l144 -121l141 121h107v-63l-187 -199h-125l-186 199v63zM346 440v-102q0 -178 197 -178q92 0 144 38t52 93h205q0 -125 -104.5 -218t-301 -93t-297 99t-100.5 283v220q0 182 100.5 281.5t301 99.5t301 -98.5t100.5 -276.5v-148h-598zM542.5 782 q-196.5 0 -196.5 -178v-35h393v37q0 176 -196.5 176z" glyph-name="ecaron" unicode="ě"/><glyph d="M293 1407v63l186 199h125l187 -199v-63h-107l-141 121l-144 -121h-106zM739 915v50q0 178 -196.5 178t-196.5 -178v-619q0 -178 196.5 -178t196.5 178v129h-186v189h391v-302q0 -184 -100.5 -283t-301 -99t-301 99t-100.5 283v588q0 182 100.5 281.5t302.5 99.5t301 -98 t99 -283v-35h-205z" glyph-name="Gcircumflex" unicode="Ĝ"/><glyph d="M295 1069v64l186 198h125l187 -198v-64h-107l-141 121l-144 -121h-106zM934 942v-825q0 -182 -97.5 -282.5t-280.5 -100.5t-278.5 93t-95.5 230h205q0 -66 44 -104.5t120 -38.5q178 0 178 178v148q-100 -96 -249 -96t-244 93t-95 265v102q0 172 96.5 265.5t254.5 93.5 t256 -115l18 94h168zM528 332q82 0 141.5 48t59.5 138v70q0 90 -59.5 138t-141.5 48t-132 -49t-50 -137v-70q0 -88 50 -137t132 -49z" glyph-name="gcircumflex" unicode="ĝ"/><glyph d="M545 1413q-92 0 -162 53.5t-100 132.5v66h106q14 -51 55 -85q42 -34 100 -34t99 35t55 84h107v-66q-31 -80 -99.5 -133t-160.5 -53zM739 915v50q0 178 -196.5 178t-196.5 -178v-619q0 -178 196.5 -178t196.5 178v129h-186v189h391v-302q0 -184 -100.5 -283t-301 -99 t-301 99t-100.5 283v588q0 182 100.5 281.5t302.5 99.5t301 -98t99 -283v-35h-205z" glyph-name="Gbreve" unicode="Ğ"/><glyph d="M547 1075q-92 0 -162 53.5t-100 133.5v65h106q14 -51 55.5 -85t99.5 -34t99 35t55 84h107v-65q-31 -80 -99.5 -133.5t-160.5 -53.5zM934 942v-825q0 -182 -97.5 -282.5t-280.5 -100.5t-278.5 93t-95.5 230h205q0 -66 44 -104.5t120 -38.5q178 0 178 178v148 q-100 -96 -249 -96t-244 93t-95 265v102q0 172 96.5 265.5t254.5 93.5t256 -115l18 94h168zM528 332q82 0 141.5 48t59.5 138v70q0 90 -59.5 138t-141.5 48t-132 -49t-50 -137v-70q0 -88 50 -137t132 -49z" glyph-name="gbreve" unicode="ğ"/><glyph d="M641 1450h-197v197h197v-197zM739 915v50q0 178 -196.5 178t-196.5 -178v-619q0 -178 196.5 -178t196.5 178v129h-186v189h391v-302q0 -184 -100.5 -283t-301 -99t-301 99t-100.5 283v588q0 182 100.5 281.5t302.5 99.5t301 -98t99 -283v-35h-205z" glyph-name="Gdotaccent" unicode="Ġ"/><glyph d="M643 1112h-197v197h197v-197zM934 942v-825q0 -182 -97.5 -282.5t-280.5 -100.5t-278.5 93t-95.5 230h205q0 -66 44 -104.5t120 -38.5q178 0 178 178v148q-100 -96 -249 -96t-244 93t-95 265v102q0 172 96.5 265.5t254.5 93.5t256 -115l18 94h168zM528 332q82 0 141.5 48 t59.5 138v70q0 90 -59.5 138t-141.5 48t-132 -49t-50 -137v-70q0 -88 50 -137t132 -49z" glyph-name="gdotaccent" unicode="ġ"/><glyph d="M739 915v50q0 178 -196.5 178t-196.5 -178v-619q0 -178 196.5 -178t196.5 178v129h-186v189h391v-302q0 -184 -100.5 -283t-301 -99t-301 99t-100.5 283v588q0 182 100.5 281.5t302.5 99.5t301 -98t99 -283v-35h-205zM457 -92h170v-101l-60 -172h-69l28 123h-69v150z" glyph-name="Gcommaaccent" unicode="Ģ"/><glyph d="M631 1034h-170v101l61 172h68l-27 -123h68v-150zM934 942v-825q0 -182 -97.5 -282.5t-280.5 -100.5t-278.5 93t-95.5 230h205q0 -66 44 -104.5t120 -38.5q178 0 178 178v148q-100 -96 -249 -96t-244 93t-95 265v102q0 172 96.5 265.5t254.5 93.5t256 -115l18 94h168z M528 332q82 0 141.5 48t59.5 138v70q0 90 -59.5 138t-141.5 48t-132 -49t-50 -137v-70q0 -88 50 -137t132 -49z" glyph-name="gcommaaccent" unicode="ģ"/><glyph d="M293 1407v63l186 199h125l187 -199v-63h-107l-141 121l-144 -121h-106zM944 1311v-1311h-205v571h-393v-571h-205v1311h205v-551h393v551h205z" glyph-name="Hcircumflex" unicode="Ĥ"/><glyph d="M293 1407v63l186 199h125l187 -199v-63h-107l-141 121l-144 -121h-106zM614 963q152 0 236 -85t84 -253v-625h-205v608q0 166 -154 166q-92 0 -155.5 -54t-63.5 -167v-553h-204v1311h204v-451q106 103 258 103z" glyph-name="hcircumflex" unicode="ĥ"/><glyph d="M1026 893h-82v-893h-205v571h-393v-571h-205v893h-82v188h82v230h205v-230h393v230h205v-230h82v-188zM739 893h-393v-133h393v133z" glyph-name="Hbar" unicode="Ħ"/><glyph d="M786 1440h-487v147h487v-147zM614 963q152 0 236 -85t84 -253v-625h-205v608q0 166 -154 166q-92 0 -155.5 -54t-63.5 -167v-553h-204v1311h204v-451q106 103 258 103z" glyph-name="hbar" unicode="ħ"/><glyph d="M660 1425q-76 -1 -142 53t-117 54q-50 0 -77 -68l-97 31q16 74 69.5 121t131.5 47t142 -53q140 -115 192 14l96 -29q-16 -74 -69 -122t-129 -48zM645 1122v-934h242v-188h-686v188h239v934h-239v189h686v-189h-242z" glyph-name="Itilde" unicode="Ĩ"/><glyph d="M660 1087q-76 -1 -142 53t-117 54q-50 0 -77 -68l-97 31q16 74 69.5 121t131.5 47t142 -53t115 -53q50 0 77 67l96 -29q-16 -74 -69 -122t-129 -48zM870 188v-188h-655v188h225v566h-225v188h430v-754h225z" glyph-name="itilde" unicode="ĩ"/><glyph d="M786 1440h-487v147h487v-147zM645 1122v-934h242v-188h-686v188h239v934h-239v189h686v-189h-242z" glyph-name="Imacron" unicode="Ī"/><glyph d="M786 1102h-487v147h487v-147zM870 188v-188h-655v188h225v566h-225v188h430v-754h225z" glyph-name="imacron" unicode="ī"/><glyph d="M545 1413q-92 0 -162 53.5t-100 132.5v66h106q14 -51 55.5 -85t99.5 -34t99 35t55 84h107v-66q-31 -80 -99.5 -133t-160.5 -53zM645 1122v-934h242v-188h-686v188h239v934h-239v189h686v-189h-242z" glyph-name="Ibreve" unicode="Ĭ"/><glyph d="M545 1075q-92 0 -162 53.5t-100 133.5v65h106q14 -51 55.5 -85t99.5 -34t99 35t55 84h107v-65q-31 -80 -99.5 -133.5t-160.5 -53.5zM870 188v-188h-655v188h225v566h-225v188h430v-754h225z" glyph-name="ibreve" unicode="ĭ"/><glyph d="M645 1122v-934h242v-188q-123 -20 -123 -94q0 -47 53 -47h70v-92q-51 -9 -111 -9t-94.5 33t-34.5 99t49 110h-495v188h239v934h-239v189h686v-189h-242z" glyph-name="Iogonek" unicode="Į"/><glyph d="M641 1112h-197v197h197v-197zM870 188v-188q-123 -20 -122 -94q0 -47 53 -47h69v-92q-51 -9 -110 -9t-94 33t-35 99t49 110h-465v188h225v566h-225v188h430v-754h225z" glyph-name="iogonek" unicode="į"/><glyph d="M641 1450h-197v197h197v-197zM645 1122v-934h242v-188h-686v188h239v934h-239v189h686v-189h-242z" glyph-name="Idotaccent" unicode="İ"/><glyph d="M870 188v-188h-655v188h225v566h-225v188h430v-754h225z" glyph-name="dotlessi" unicode="ı"/><glyph d="M121 1311h188v-1311h-188v1311zM965 1311v-981q0 -170 -77 -260t-208 -90t-201.5 89t-70.5 261v65h174v-73q0 -162 97 -162t97 162v808h-239v181h428z" glyph-name="IJ" unicode="Ĳ"/><glyph d="M414 1087h-232v232h232v-232zM905 1087h-231v232h231v-232zM399 0h-204v942h204v-942zM891 942v-885q0 -160 -74 -250t-199 -90t-237 47l53 152q72 -29 139 -29q113 0 113 150v905h205z" glyph-name="ij" unicode="ĳ"/><glyph d="M369 1407v63l186 199h125l186 -199v-63h-106l-142 121l-143 -121h-106zM944 1317v-955q0 -184 -100.5 -283t-301 -99t-301 99t-100.5 283v33h205v-49q0 -178 196.5 -178t196.5 178v782h-434v189h639z" glyph-name="Jcircumflex" unicode="Ĵ"/><glyph d="M893 1069h-107l-141 121l-143 -121h-107v64l187 198h125l186 -198v-64zM315 942h430v-864q0 -160 -81.5 -252t-237.5 -92q-102 0 -270 57l51 154q141 -43 211 -43q123 0 123 153v699h-226v188z" glyph-name="jcircumflex" unicode="ĵ"/><glyph d="M944 0h-166l-297 571h-135v-571h-205v1311h205v-551h135l291 551h172v-99l-291 -546l291 -551v-115zM453 -92h170v-101l-60 -172h-69l28 123h-69v150z" glyph-name="Kcommaaccent" horiz-adv-x="1089" unicode="Ķ"/><glyph d="M940 0h-160l-317 385h-113v-385h-205v1311h205v-738h115l309 369h166v-86l-311 -377l311 -379v-100zM446 -92h170v-101l-59 -172h-70l29 123h-70v150z" glyph-name="kcommaaccent" unicode="ķ"/><glyph d="M940 0h-160l-317 385h-113v-385h-205v942h205v-369h115l309 369h166v-86l-311 -377l311 -379v-100z" glyph-name="kgreenlandic" unicode="ĸ"/><glyph d="M375 1407v66l143 196h195v-67l-201 -195h-137zM907 188v-188h-727v1311h205v-1123h522z" glyph-name="Lacute" unicode="Ĺ"/><glyph d="M375 1407v66l143 196h195v-67l-201 -195h-137zM870 188v-188h-655v188h225v934h-225v189h430v-1123h225z" glyph-name="lacute" unicode="ĺ"/><glyph d="M907 188v-188h-727v1311h205v-1123h522zM457 -92h170v-101l-60 -172h-69l28 123h-69v150z" glyph-name="Lcommaaccent" unicode="Ļ"/><glyph d="M870 188v-188h-655v188h225v934h-225v189h430v-1123h225zM457 -92h170v-101l-60 -172h-69l28 123h-69v150z" glyph-name="lcommaaccent" unicode="ļ"/><glyph d="M907 188v-188h-727v1311h205v-1123h522zM575 1163v148h170v-101l-59 -172h-70l29 125h-70z" glyph-name="Lcaron" unicode="Ľ"/><glyph d="M645 188h225v-188h-655v188h225v934h-225v189h430v-1123zM907 1311v-101l-61 -172h-68l27 125h-68v148h170z" glyph-name="lcaron" unicode="ľ"/><glyph d="M385 188h522v-188h-727v1311h205v-1123zM928 799v-199h-199v199h199z" glyph-name="Ldot" unicode="Ŀ"/><glyph d="M645 188h225v-188h-655v188h225v934h-225v189h430v-1123zM1188 770v-197h-199v197h199z" glyph-name="ldot" unicode="ŀ"/><glyph d="M907 188v-188h-727v557l-121 -33v181l121 32v574h205v-520l168 45v-179l-168 -45v-424h522z" glyph-name="Lslash" unicode="Ł"/><glyph d="M870 188v-188h-655v188h225v375l-147 -39v181l147 38v379h-225v189h430v-512l141 37v-179l-141 -39v-430h225z" glyph-name="lslash" unicode="ł"/><glyph d="M375 1407v66l143 196h195v-67l-201 -195h-137zM944 1311v-1311h-153l-445 870v-870h-205v1311h154l444 -871v871h205z" glyph-name="Nacute" unicode="Ń"/><glyph d="M381 1069v66l143 196h195v-67l-201 -195h-137zM604.5 963q160.5 0 245 -85t84.5 -253v-625h-205v608q0 166 -154 166q-92 0 -155.5 -54t-63.5 -167v-553h-204v942h170l18 -100q104 121 264.5 121z" glyph-name="nacute" unicode="ń"/><glyph d="M944 1311v-1311h-153l-445 870v-870h-205v1311h154l444 -871v871h205zM457 -92h170v-101l-60 -172h-69l28 123h-69v150z" glyph-name="Ncommaaccent" unicode="Ņ"/><glyph d="M604.5 963q160.5 0 245 -85t84.5 -253v-625h-205v608q0 166 -154 166q-92 0 -155.5 -54t-63.5 -167v-553h-204v942h170l18 -100q104 121 264.5 121zM457 -92h170v-101l-60 -172h-69l28 123h-69v150z" glyph-name="ncommaaccent" unicode="ņ"/><glyph d="M293 1669h106l144 -121l141 121h107v-63l-187 -199h-125l-186 199v63zM944 1311v-1311h-153l-445 870v-870h-205v1311h154l444 -871v871h205z" glyph-name="Ncaron" unicode="Ň"/><glyph d="M299 1331h107l143 -121l141 121h107v-63l-187 -199h-125l-186 199v63zM604.5 963q160.5 0 245 -85t84.5 -253v-625h-205v608q0 166 -154 166q-92 0 -155.5 -54t-63.5 -167v-553h-204v942h170l18 -100q104 121 264.5 121z" glyph-name="ncaron" unicode="ň"/><glyph d="M111 1194v147h170v-100l-62 -172h-67l26 125h-67zM604.5 963q160.5 0 245 -85t84.5 -253v-625h-205v608q0 166 -154 166q-92 0 -155.5 -54t-63.5 -167v-553h-204v942h170l18 -100q104 121 264.5 121z" glyph-name="napostrophe" unicode="ŉ"/><glyph d="M944 1311v-1254q0 -160 -73 -250t-199 -90t-238 47l53 152q72 -29 142 -29q111 0 110 150v63l-393 770v-870h-205v1311h154l444 -871v871h205z" glyph-name="Eng" unicode="Ŋ"/><glyph d="M604 963q160 0 245 -85t85 -253v-568q0 -160 -74 -250t-199 -90t-237 47l53 152q72 -29 141 -29q111 0 111 150v571q0 166 -154 166q-92 0 -155.5 -54t-63.5 -167v-553h-204v942h170l18 -100q104 121 264 121z" glyph-name="eng" unicode="ŋ"/><glyph d="M786 1440h-487v147h487v-147zM544 1331q202 0 301 -98t99 -283v-588q0 -184 -100.5 -283t-301 -99t-301 99t-100.5 283v588q0 182 100.5 281.5t302.5 99.5zM542.5 1143q-196.5 0 -196.5 -178v-619q0 -178 196.5 -178t196.5 178v619q0 178 -196.5 178z" glyph-name="Omacron" unicode="Ō"/><glyph d="M786 1102h-487v147h487v-147zM542.5 963q200.5 0 301 -99.5t100.5 -281.5v-220q0 -184 -100.5 -283t-301 -99t-301 99t-100.5 283v220q0 182 100.5 281.5t301 99.5zM542.5 774q-196.5 0 -196.5 -178v-250q0 -178 196.5 -178t196.5 178v250q0 178 -196.5 178z" glyph-name="omacron" unicode="ō"/><glyph d="M805 1665v-66q-31 -80 -99.5 -133t-160.5 -53t-162 53.5t-100 132.5v66h106q14 -51 55.5 -85t99.5 -34t99 35t55 84h107zM544 1331q202 0 301 -98t99 -283v-588q0 -184 -100.5 -283t-301 -99t-301 99t-100.5 283v588q0 182 100.5 281.5t302.5 99.5zM542.5 1143 q-196.5 0 -196.5 -178v-619q0 -178 196.5 -178t196.5 178v619q0 178 -196.5 178z" glyph-name="Obreve" unicode="Ŏ"/><glyph d="M805 1327v-65q-31 -80 -99.5 -133.5t-160.5 -53.5t-162 53.5t-100 133.5v65h106q14 -51 55.5 -85t99.5 -34t99 35t55 84h107zM542.5 963q200.5 0 301 -99.5t100.5 -281.5v-220q0 -184 -100.5 -283t-301 -99t-301 99t-100.5 283v220q0 182 100.5 281.5t301 99.5z M542.5 774q-196.5 0 -196.5 -178v-250q0 -178 196.5 -178t196.5 178v250q0 178 -196.5 178z" glyph-name="obreve" unicode="ŏ"/><glyph d="M244 1407v66l145 196h154v-67l-201 -195h-98zM543 1407v66l145 196h156v-67l-201 -195h-100zM544 1331q202 0 301 -98t99 -283v-588q0 -184 -100.5 -283t-301 -99t-301 99t-100.5 283v588q0 182 100.5 281.5t302.5 99.5zM542.5 1143q-196.5 0 -196.5 -178v-619 q0 -178 196.5 -178t196.5 178v619q0 178 -196.5 178z" glyph-name="Ohungarumlaut" unicode="Ő"/><glyph d="M274 1069v66l146 196h153v-67l-200 -195h-99zM573 1069v66l146 196h155v-67l-200 -195h-101zM542.5 963q200.5 0 301 -99.5t100.5 -281.5v-220q0 -184 -100.5 -283t-301 -99t-301 99t-100.5 283v220q0 182 100.5 281.5t301 99.5zM542.5 774q-196.5 0 -196.5 -178v-250 q0 -178 196.5 -178t196.5 178v250q0 178 -196.5 178z" glyph-name="ohungarumlaut" unicode="ő"/><glyph d="M717 1122v-372h174v-189h-174v-373h248v-188h-437q-195 0 -291 99.5t-96 283.5v547q0 381 387 381h437v-189h-248zM528 188v934q-182 0 -182 -178v-577q0 -179 182 -179z" glyph-name="OE" unicode="Œ"/><glyph d="M614 440v-102q0 -92 22.5 -135t76.5 -43q98 0 98 131l182 -2q0 -121 -74.5 -215t-190.5 -94t-187 57q-72 -57 -168 -57q-139 0 -210 99t-71 283v220q0 182 70.5 281.5t210.5 99.5q102 0 170 -56q63 55 185 55t193.5 -99t71.5 -275v-148h-379zM372.5 160q53.5 0 76.5 43 q-16 76 -17 159v220q0 84 17 155q-25 45 -77 45t-75 -42t-23 -136v-266q0 -92 22.5 -135t76 -43zM713 782q-53 0 -76 -42t-23 -136v-35h197v37q0 176 -98 176z" glyph-name="oe" unicode="œ"/><glyph d="M375 1407v66l143 196h195v-67l-201 -195h-137zM944 932q0 -264 -205 -346l205 -494v-92h-184l-225 553h-189v-553h-205v1311h402q201 0 301 -98.5t100 -280.5zM346 741h197q197 0 196 174v33q0 174 -196 174h-197v-381z" glyph-name="Racute" unicode="Ŕ"/><glyph d="M395 1069v66l144 196h194v-67l-201 -195h-137zM641 963q330 0 330 -357v-74h-205v74q0 168 -154 168q-94 0 -157.5 -54t-63.5 -167v-553h-205v942h170l19 -100q104 121 266 121z" glyph-name="racute" unicode="ŕ"/><glyph d="M944 932q0 -264 -205 -346l205 -494v-92h-184l-225 553h-189v-553h-205v1311h402q201 0 301 -98.5t100 -280.5zM346 741h197q197 0 196 174v33q0 174 -196 174h-197v-381zM457 -92h170v-101l-60 -172h-69l28 123h-69v150z" glyph-name="Rcommaaccent" unicode="Ŗ"/><glyph d="M641 963q330 0 330 -357v-74h-205v74q0 168 -154 168q-94 0 -157.5 -54t-63.5 -167v-553h-205v942h170l19 -100q104 121 266 121zM457 -92h170v-101l-60 -172h-69l28 123h-69v150z" glyph-name="rcommaaccent" unicode="ŗ"/><glyph d="M293 1669h106l144 -121l141 121h107v-63l-187 -199h-125l-186 199v63zM944 932q0 -264 -205 -346l205 -494v-92h-184l-225 553h-189v-553h-205v1311h402q201 0 301 -98.5t100 -280.5zM346 741h197q197 0 196 174v33q0 174 -196 174h-197v-381z" glyph-name="Rcaron" unicode="Ř"/><glyph d="M315 1331h107l143 -121l142 121h106v-63l-186 -199h-125l-187 199v63zM641 963q330 0 330 -357v-74h-205v74q0 168 -154 168q-94 0 -157.5 -54t-63.5 -167v-553h-205v942h170l19 -100q104 121 266 121z" glyph-name="rcaron" unicode="ř"/><glyph d="M375 1407v66l143 196h195v-67l-201 -195h-137zM542.5 1331q194.5 0 298 -102.5t103.5 -286.5h-205q0 201 -198 201q-96 0 -145.5 -43t-49.5 -119t61.5 -131t149.5 -92t176 -82t149.5 -128t61.5 -202q0 -174 -103.5 -270t-298 -96t-298 102t-103.5 287h205 q0 -201 201 -201q193 0 192 164q0 131 -211 222q-88 38 -176 82t-149.5 127t-61.5 202q0 174 103.5 270t298 96z" glyph-name="Sacute" unicode="Ś"/><glyph d="M375 1069v66l143 196h195v-67l-201 -195h-137zM543 963q176 0 277.5 -87.5t101.5 -226.5h-205q-4 59 -53.5 94t-128.5 35t-123.5 -26.5t-44.5 -76.5t50 -75q51 -25 133 -41q82 -15 120 -25q118 -30 185 -90t67 -182.5t-101.5 -202t-277.5 -79.5t-277.5 87t-101.5 226h205 q4 -61 53 -95t128 -34t125 27.5t46 76.5t-51.5 75t-133.5 42q-82 15 -120 25q-122 30 -176 82q-76 71 -76 191t101.5 200t277.5 80z" glyph-name="sacute" unicode="ś"/><glyph d="M293 1407v63l186 199h125l187 -199v-63h-107l-141 121l-144 -121h-106zM346 981q0 -76 61.5 -131t149.5 -92t176 -82t149.5 -128t61.5 -202q0 -174 -103.5 -270t-298 -96t-298 102t-103.5 287h205q0 -201 201 -201q193 0 192 164q0 131 -211 222q-88 38 -176 82 t-149.5 127t-61.5 202q0 174 103.5 270t298 96t298 -102.5t103.5 -286.5h-205q0 201 -198 201q-96 0 -145.5 -43t-49.5 -119z" glyph-name="Scircumflex" unicode="Ŝ"/><glyph d="M293 1069v64l186 198h125l187 -198v-64h-107l-141 121l-144 -121h-106zM543 -20q-176 0 -277.5 87t-101.5 226h205q4 -61 53 -95t128 -34t125 27.5t46 76.5t-51.5 75t-133.5 42q-82 15 -120 25q-122 30 -176 82q-76 71 -76 191t101.5 200t277.5 80t277.5 -87.5 t101.5 -226.5h-205q-4 59 -53.5 94t-128.5 35t-123.5 -26.5t-44.5 -76.5t50 -75q51 -25 133 -41q82 -15 120 -25q118 -30 185 -90t67 -182.5t-101.5 -202t-277.5 -79.5z" glyph-name="scircumflex" unicode="ŝ"/><glyph d="M346 981q0 -76 61.5 -131t149.5 -92t176 -82t149.5 -128t61.5 -216t-74.5 -225.5t-218.5 -118.5q37 -33 37 -101v-24q0 -135 -145.5 -135t-145.5 127h103q0 -31 42 -31t42 39v24q0 35 -41 35h-66v62q-164 16 -250 116.5t-86 268.5h205q0 -201 201 -201q193 0 192 164 q0 131 -211 222q-88 38 -176 82t-149.5 127t-61.5 202q0 174 103.5 270t298 96t298 -102.5t103.5 -286.5h-205q0 201 -198 201q-96 0 -145.5 -43t-49.5 -119z" glyph-name="Scedilla" unicode="Ş"/><glyph d="M688 -113v-24q0 -135 -145.5 -135t-145.5 127h103q0 -31 42 -31t42 39v24q0 35 -41 35h-66v62q-147 16 -230 101t-83 208h205q4 -61 53 -95t128 -34t125 27.5t46 76.5t-51.5 75t-133.5 42q-82 15 -120 25q-122 30 -176 82q-76 71 -76 191t101.5 200t277.5 80t277.5 -87.5 t101.5 -226.5h-205q-4 59 -53.5 94t-128.5 35t-123.5 -26.5t-44.5 -76.5t50 -75q51 -25 133 -41q82 -15 120 -25q118 -30 185 -90t67 -172t-72 -187t-199 -97q37 -33 37 -101z" glyph-name="scedilla" unicode="ş"/><glyph d="M293 1669h106l144 -121l141 121h107v-63l-187 -199h-125l-186 199v63zM346 981q0 -76 61.5 -131t149.5 -92t176 -82t149.5 -128t61.5 -202q0 -174 -103.5 -270t-298 -96t-298 102t-103.5 287h205q0 -201 201 -201q193 0 192 164q0 131 -211 222q-88 38 -176 82 t-149.5 127t-61.5 202q0 174 103.5 270t298 96t298 -102.5t103.5 -286.5h-205q0 201 -198 201q-96 0 -145.5 -43t-49.5 -119z" glyph-name="Scaron" unicode="Š"/><glyph d="M293 1331h106l144 -121l141 121h107v-63l-187 -199h-125l-186 199v63zM543 -20q-176 0 -277.5 87t-101.5 226h205q4 -61 53 -95t128 -34t125 27.5t46 76.5t-51.5 75t-133.5 42q-82 15 -120 25q-122 30 -176 82q-76 71 -76 191t101.5 200t277.5 80t277.5 -87.5 t101.5 -226.5h-205q-4 59 -53.5 94t-128.5 35t-123.5 -26.5t-44.5 -76.5t50 -75q51 -25 133 -41q82 -15 120 -25q118 -30 185 -90t67 -182.5t-101.5 -202t-277.5 -79.5z" glyph-name="scaron" unicode="š"/><glyph d="M645 0h-45q51 -33 51 -113v-24q0 -135 -144 -135t-145 127h101q0 -31 43 -31t43 39v24q0 35 -43 35h-66v1200h-311v189h829v-189h-313v-1122z" glyph-name="Tcommaaccent" unicode="Ţ"/><glyph d="M793 -113v-24q0 -135 -145.5 -135t-145.5 127h102q0 -31 42 -31t42 39v24q0 35 -41 35h-65v68q-96 23 -149.5 105.5t-53.5 207.5v451h-242v188h242v199l205 43v-242h323v-188h-323v-447q0 -147 114 -147q57 0 183 33l53 -164q-84 -29 -176 -41q35 -39 35 -101z" glyph-name="tcommaaccent" unicode="ţ"/><glyph d="M293 1669h106l144 -121l141 121h107v-63l-187 -199h-125l-186 199v63zM958 1122h-313v-1122h-205v1122h-311v189h829v-189z" glyph-name="Tcaron" unicode="Ť"/><glyph d="M737 1149v149h170v-100l-59 -172h-68l27 123h-70zM660.5 -20q-132.5 0 -207 87t-74.5 236v451h-242v188h242v199l205 43v-242h323v-188h-323v-447q0 -147 114 -147q58 0 183 33l53 -164q-141 -49 -273.5 -49z" glyph-name="tcaron" unicode="ť"/><glyph d="M645 1122v-362h174v-189h-174v-571h-205v571h-174v189h174v362h-311v189h829v-189h-313z" glyph-name="Tbar" unicode="Ŧ"/><glyph d="M660.5 -20q-132.5 0 -207 87t-74.5 236v160h-242v172h242v119h-242v188h242v199l205 43v-242h323v-188h-323v-119h323v-172h-323v-156q0 -147 114 -147q58 0 183 33l53 -164q-141 -49 -273.5 -49z" glyph-name="tbar" unicode="ŧ"/><glyph d="M428 1663q78 0 142 -53q140 -115 192 14l96 -29q-16 -74 -69 -122t-129 -48q-76 -1 -142 53t-117 54q-50 0 -77 -68l-97 31q16 74 69.5 121t131.5 47zM944 1311v-949q0 -184 -100.5 -283t-301 -99t-301 99t-100.5 283v949h205v-965q0 -178 196.5 -178t196.5 178v965h205z " glyph-name="Utilde" unicode="Ũ"/><glyph d="M660 1087q-76 -1 -142 53t-117 54q-50 0 -77 -68l-97 31q16 74 69.5 121t131.5 47t142 -53t115 -53q50 0 77 67l96 -29q-16 -74 -69 -122t-129 -48zM934 942v-942h-168l-18 100q-104 -120 -266 -120q-330 1 -330 337v625h204v-608q0 -166 154 -166q92 0 155.5 54 t63.5 167v553h205z" glyph-name="utilde" unicode="ũ"/><glyph d="M786 1440h-487v147h487v-147zM944 1311v-949q0 -184 -100.5 -283t-301 -99t-301 99t-100.5 283v949h205v-965q0 -178 196.5 -178t196.5 178v965h205z" glyph-name="Umacron" unicode="Ū"/><glyph d="M786 1102h-487v147h487v-147zM934 942v-942h-168l-18 100q-104 -120 -266 -120q-330 1 -330 337v625h204v-608q0 -166 154 -166q92 0 155.5 54t63.5 167v553h205z" glyph-name="umacron" unicode="ū"/><glyph d="M805 1665v-66q-31 -80 -99.5 -133t-160.5 -53t-162 53.5t-100 132.5v66h106q14 -51 55.5 -85t99.5 -34t99 35t55 84h107zM944 1311v-949q0 -184 -100.5 -283t-301 -99t-301 99t-100.5 283v949h205v-965q0 -178 196.5 -178t196.5 178v965h205z" glyph-name="Ubreve" unicode="Ŭ"/><glyph d="M545 1075q-92 0 -162 53.5t-100 133.5v65h106q14 -51 55.5 -85t99.5 -34t99 35t55 84h107v-65q-31 -80 -99.5 -133.5t-160.5 -53.5zM934 942v-942h-168l-18 100q-104 -120 -266 -120q-330 1 -330 337v625h204v-608q0 -166 154 -166q92 0 155.5 54t63.5 167v553h205z" glyph-name="ubreve" unicode="ŭ"/><glyph d="M543 1753q86 0 136 -52t50 -129t-53 -128t-134 -51t-133.5 50t-52.5 128t50.5 130t136.5 52zM543 1651q-35 0 -57.5 -22.5t-22.5 -55.5t23.5 -55.5t56 -22.5t55.5 22.5t23 55.5t-21.5 55.5t-56.5 22.5zM944 1311v-949q0 -184 -100.5 -283t-301 -99t-301 99t-100.5 283 v949h205v-965q0 -178 196.5 -178t196.5 178v965h205z" glyph-name="Uring" unicode="Ů"/><glyph d="M542 1055q-81 0 -133.5 50t-52.5 128t50.5 130t136.5 52t136 -52t50 -129t-53 -128t-134 -51zM543 1313q-35 0 -57.5 -22.5t-22.5 -55.5t23.5 -55.5t56 -22.5t55.5 22.5t23 56.5t-21.5 55.5t-56.5 21.5zM934 942v-942h-168l-18 100q-104 -120 -266 -120q-330 1 -330 337 v625h204v-608q0 -166 154 -166q92 0 155.5 54t63.5 167v553h205z" glyph-name="uring" unicode="ů"/><glyph d="M244 1407v66l145 196h154v-67l-201 -195h-98zM543 1407v66l145 196h156v-67l-201 -195h-100zM944 1311v-949q0 -184 -100.5 -283t-301 -99t-301 99t-100.5 283v949h205v-965q0 -178 196.5 -178t196.5 178v965h205z" glyph-name="Uhungarumlaut" unicode="Ű"/><glyph d="M244 1069v66l145 196h154v-67l-201 -195h-98zM844 1331v-67l-201 -195h-100v66l145 196h156zM934 942v-942h-168l-18 100q-104 -120 -266 -120q-330 1 -330 337v625h204v-608q0 -166 154 -166q92 0 155.5 54t63.5 167v553h205z" glyph-name="uhungarumlaut" unicode="ű"/><glyph d="M944 1311v-949q0 -336 -311 -376q-100 -23 -101 -90q0 -47 54 -48h69v-92q-51 -8 -110 -8t-94 33t-35 95t45 108q-319 43 -320 378v949h205v-965q0 -178 196.5 -178t196.5 178v965h205z" glyph-name="Uogonek" unicode="Ų"/><glyph d="M934 942v-942q-123 -20 -123 -94q0 -47 53 -47h70v-92q-50 -9 -110 -9t-95 33t-35 86q0 88 68 139l-14 84q-104 -120 -266 -120q-330 1 -330 337v625h204v-608q0 -166 154 -166q92 0 155.5 54t63.5 167v553h205z" glyph-name="uogonek" unicode="ų"/><glyph d="M293 1407v63l186 199h125l187 -199v-63h-107l-141 121l-144 -121h-106zM977 1311l-94 -1311h-156l-184 494l-183 -494h-155l-96 1311h196l70 -860l127 317h80l129 -319l71 862h195z" glyph-name="Wcircumflex" unicode="Ŵ"/><glyph d="M295 1069v64l186 198h125l187 -198v-64h-107l-141 121l-144 -121h-106zM977 942l-94 -942h-158l-182 516l-183 -516h-155l-96 942h196l62 -522l137 364h78l137 -364l61 522h197z" glyph-name="wcircumflex" unicode="ŵ"/><glyph d="M293 1407v63l186 199h125l187 -199v-63h-107l-141 121l-144 -121h-106zM645 0h-205v502l-305 569v240h205v-197l203 -407l202 407v197h205v-240l-305 -569v-502z" glyph-name="Ycircumflex" unicode="Ŷ"/><glyph d="M293 1069v64l186 198h125l187 -198v-64h-107l-141 121l-144 -121h-106zM961 942v-168l-431 -1020h-184l100 252l-321 768v168h205v-162l213 -544l213 544v162h205z" glyph-name="ycircumflex" unicode="ŷ"/><glyph d="M463 1444h-199v196h199v-196zM821 1444h-198v196h198v-196zM645 0h-205v502l-305 569v240h205v-197l203 -407l202 407v197h205v-240l-305 -569v-502z" glyph-name="Ydieresis" unicode="Ÿ"/><glyph d="M375 1407v66l143 196h195v-67l-201 -195h-137zM938 1311v-297l-592 -752v-74h592v-188h-788v297l589 750v75h-589v189h788z" glyph-name="Zacute" unicode="Ź"/><glyph d="M375 1069v66l143 196h195v-67l-201 -195h-137zM924 942v-262l-564 -471v-21h564v-188h-760v262l561 469v23h-561v188h760z" glyph-name="zacute" unicode="ź"/><glyph d="M641 1450h-197v197h197v-197zM938 1311v-297l-592 -752v-74h592v-188h-788v297l589 750v75h-589v189h788z" glyph-name="Zdotaccent" unicode="Ż"/><glyph d="M641 1112h-197v197h197v-197zM924 942v-262l-564 -471v-21h564v-188h-760v262l561 469v23h-561v188h760z" glyph-name="zdotaccent" unicode="ż"/><glyph d="M293 1669h106l144 -121l141 121h107v-63l-187 -199h-125l-186 199v63zM938 1311v-297l-592 -752v-74h592v-188h-788v297l589 750v75h-589v189h788z" glyph-name="Zcaron" unicode="Ž"/><glyph d="M293 1331h106l144 -121l141 121h107v-63l-187 -199h-125l-186 199v63zM924 942v-262l-564 -471v-21h564v-188h-760v262l561 469v23h-561v188h760z" glyph-name="zcaron" unicode="ž"/><glyph d="M544 1331q202 0 301 -98t99 -283v-590q0 -182 -100.5 -281t-301 -99t-301 99t-100.5 281v345h598v260q0 178 -196.5 178t-196.5 -178v-70h-205v55q0 182 100.5 281.5t302.5 99.5zM542.5 168q196.5 0 196.5 178v170h-393v-170q0 -178 196.5 -178z" glyph-name="uni018F" unicode="Ə"/><glyph d="M784 1200q-57 0 -97 -37t-52 -106l-21 -115h220l-35 -188h-217l-133 -754h-205l133 754h-176l35 188h174l20 115q27 152 116 233.5t214 81.5t235 -61l-92 -144q-62 33 -119 33z" glyph-name="florin" unicode="ƒ"/><glyph d="M944 1311v-1311h-153l-445 870v-813q0 -160 -74 -250t-200 -90t-238 47l53 152q74 -29 142 -29q113 0 112 150v1274h154l444 -871v871h205z" glyph-name="uni019D" unicode="Ɲ"/><glyph d="M293 1669h106l144 -121l141 121h107v-63l-187 -199h-125l-186 199v63zM739 915v50q0 178 -196.5 178t-196.5 -178v-619q0 -178 196.5 -178t196.5 178v129h-186v189h391v-302q0 -184 -100.5 -283t-301 -99t-301 99t-100.5 283v588q0 182 100.5 281.5t302.5 99.5t301 -98 t99 -283v-35h-205z" glyph-name="Gcaron" unicode="Ǧ"/><glyph d="M295 1331h106l144 -121l141 121h107v-63l-187 -199h-125l-186 199v63zM934 942v-825q0 -182 -97.5 -282.5t-280.5 -100.5t-278.5 93t-95.5 230h205q0 -66 44 -104.5t120 -38.5q178 0 178 178v148q-100 -96 -249 -96t-244 93t-95 265v102q0 172 96.5 265.5t254.5 93.5 t256 -115l18 94h168zM528 332q82 0 141.5 48t59.5 138v70q0 90 -59.5 138t-141.5 48t-132 -49t-50 -137v-70q0 -88 50 -137t132 -49z" glyph-name="gcaron" unicode="ǧ"/><glyph d="M544 1331q202 0 301 -98t99 -283v-588q0 -332 -307 -376q-123 -20 -123 -95q0 -47 53 -47h70v-92q-51 -8 -111 -8t-94.5 33t-34.5 99t49 110q-305 45 -305 376v588q0 182 100.5 281.5t302.5 99.5zM739 346v619q0 178 -196.5 178t-196.5 -178v-619q0 -178 196.5 -178 t196.5 178z" glyph-name="uni01EA" unicode="Ǫ"/><glyph d="M542.5 963q200.5 0 301 -99.5t100.5 -281.5v-220q0 -332 -307 -376q-123 -20 -123 -95q0 -47 53 -47h70v-92q-51 -8 -111 -8t-94.5 33t-34.5 99t49 110q-305 45 -305 376v220q0 182 100.5 281.5t301 99.5zM739 346v250q0 178 -196.5 178t-196.5 -178v-250 q0 -178 196.5 -178t196.5 178z" glyph-name="uni01EB" unicode="ǫ"/><glyph d="M373 1757v66l145 196h195v-65l-201 -197h-139zM542 1360q-81 0 -133.5 50t-52.5 128t50.5 130t136.5 52t136 -52t50 -129t-53 -128t-134 -51zM543 1618q-35 0 -57.5 -22.5t-22.5 -55.5t23.5 -55.5t56 -22.5t55.5 22.5t23 55.5t-21.5 55.5t-56.5 22.5zM958 0h-204v166 l-47 201h-328l-45 -193v-174h-205v170l283 1141h262l284 -1141v-170zM664 555l-121 526l-121 -526h242z" glyph-name="Aringacute" unicode="Ǻ"/><glyph d="M393 1415v66l146 196h192v-67l-201 -195h-137zM562 1012q-81 0 -133 50t-52 128t50 130t136 52t135.5 -52t49.5 -130t-52.5 -128t-133.5 -50zM562 1270q-34 0 -56.5 -21.5t-22.5 -55.5t22.5 -56.5t56.5 -22.5t56.5 22.5t22.5 55.5t-22.5 55.5t-56.5 22.5zM565 963 q180 0 274.5 -97.5t94.5 -267.5v-598h-168l-18 90q-106 -110 -270 -110t-250.5 72.5t-86.5 203.5v8q0 137 98.5 207t278.5 70h211v71q0 178 -176 179q-82 0 -129 -32t-55 -81h-185q0 109 100.5 197t280.5 88zM338 268q0 -114 160 -114q81 0 156 45t75 102v90h-213 q-178 0 -178 -115v-8z" glyph-name="aringacute" unicode="ǻ"/><glyph d="M424 1415v66l143 196h195v-67l-201 -195h-137zM717 1122v-372h174v-189h-174v-373h248v-188h-437v367h-188l-45 -193v-174h-205v170l287 1141h588v-189h-248zM528 555v608l-143 -608h143z" glyph-name="AEacute" unicode="Ǽ"/><glyph d="M401 1069v66l144 196h194v-67l-200 -195h-138zM633 440v-102q0 -178 90 -178q43 0 65.5 36.5t22.5 94.5l182 -2q0 -121 -72.5 -215t-194.5 -94t-191 79q-80 -80 -199 -79q-244 0 -244 290v9q0 137 77 213.5t228 76.5h54v13q0 106 24 186q-27 23 -69 23q-96 0 -101 -113 h-170q-2 113 64.5 199t212.5 86q100 0 161 -45q61 45 150 45q131 0 200.5 -99.5t69.5 -275.5v-148h-360zM723 782q-49 0 -69.5 -42t-20.5 -136v-35h178v37q0 176 -88 176zM365 150q61 0 106 40q-20 70 -20 172v78h-54q-139 0 -139 -147v-10q1 -133 107 -133z" glyph-name="aeacute" unicode="ǽ"/><glyph d="M375 1407v66l143 196h195v-67l-201 -195h-137zM944 950v-588q0 -184 -100.5 -283t-300.5 -99q-45 0 -111 8l-14 -49h-144l27 96q-160 90 -160 327v588q0 182 100.5 281.5t301.5 99.5q68 0 110 -8l15 49h143l-27 -94q160 -94 160 -328zM346 965v-619q0 -49 16 -88l242 881 q-37 4 -61 4q-197 0 -197 -178zM739 346v619q0 49 -16 88l-242 -879q27 -6 62 -6q196 0 196 178z" glyph-name="Oslashacute" unicode="Ǿ"/><glyph d="M377 1069v66l143 196h195v-67l-201 -195h-137zM944 582v-220q0 -184 -100.5 -283t-300.5 -99q-25 0 -70 4l-12 -45h-127l20 71q-213 80 -213 352v220q0 182 100.5 281.5t301.5 99.5q27 0 71 -5l13 46h127l-21 -72q211 -78 211 -350zM346 596v-250q0 -96 62 -143l155 571 h-20q-197 0 -197 -178zM739 346v250q0 98 -59 141l-156 -569h19q196 0 196 178z" glyph-name="oslashacute" unicode="ǿ"/><glyph d="M346 981q0 -76 61.5 -131t149.5 -92t176 -82t149.5 -128t61.5 -202q0 -174 -103.5 -270t-298 -96t-298 102t-103.5 287h205q0 -201 201 -201q193 0 192 164q0 131 -211 222q-88 38 -176 82t-149.5 127t-61.5 202q0 174 103.5 270t298 96t298 -102.5t103.5 -286.5h-205 q0 201 -198 201q-96 0 -145.5 -43t-49.5 -119zM457 -92h170v-101l-60 -172h-69l28 123h-69v150z" glyph-name="Scommaaccent" unicode="Ș"/><glyph d="M543 -20q-176 0 -277.5 87t-101.5 226h205q4 -61 53 -95t128 -34t125 27.5t46 76.5t-51.5 75t-133.5 42q-82 15 -120 25q-122 30 -176 82q-76 71 -76 191t101.5 200t277.5 80t277.5 -87.5t101.5 -226.5h-205q-4 59 -53.5 94t-128.5 35t-123.5 -26.5t-44.5 -76.5t50 -75 q51 -25 133 -41q82 -15 120 -25q118 -30 185 -90t67 -182.5t-101.5 -202t-277.5 -79.5zM457 -92h170v-101l-60 -172h-69l28 123h-69v150z" glyph-name="scommaaccent" unicode="ș"/><glyph d="M958 1122h-313v-1122h-205v1122h-311v189h829v-189zM457 -92h170v-101l-60 -172h-69l28 123h-69v150z" glyph-name="uni021A" unicode="Ț"/><glyph d="M660.5 -20q-132.5 0 -207 87t-74.5 236v451h-242v188h242v199l205 43v-242h323v-188h-323v-447q0 -147 114 -147q58 0 183 33l53 -164q-141 -49 -273.5 -49zM457 -92h170v-101l-60 -172h-69l28 123h-69v150z" glyph-name="uni021B" unicode="ț"/><glyph d="M786 1440h-487v147h487v-147zM645 0h-205v502l-305 569v240h205v-197l203 -407l202 407v197h205v-240l-305 -569v-502z" glyph-name="uni0232" unicode="Ȳ"/><glyph d="M786 1102h-487v147h487v-147zM961 942v-168l-431 -1020h-184l100 252l-321 768v168h205v-162l213 -544l213 544v162h205z" glyph-name="uni0233" unicode="ȳ"/><glyph d="M745 942v-864q0 -160 -81.5 -252t-237.5 -92q-102 0 -270 57l51 154q141 -43 211 -43q123 0 123 153v699h-226v188h430z" glyph-name="uni0237" unicode="ȷ"/><glyph d="M548 963q196 0 296 -99.5t100 -281.5v-220q0 -184 -100.5 -283t-301 -99t-301 98t-100.5 276v148h598v102q0 178 -196 178q-90 0 -143.5 -37.5t-53.5 -93.5h-205q0 123 105.5 217.5t301.5 94.5zM542.5 160q196.5 0 196.5 178v37h-393v-39q0 -176 196.5 -176z" glyph-name="uni0259" unicode="ə"/><glyph d="M604 963q160 0 245 -85t85 -253v-625h-205v608q0 166 -154 166q-92 0 -155.5 -54t-63.5 -167v-496q0 -160 -73.5 -250t-199.5 -90t-239 47l54 152q74 -29 141 -29q113 0 113 150v905h170l18 -100q104 121 264 121z" glyph-name="uni0272" unicode="ɲ"/><glyph d="M793 1069h-107l-141 121l-144 -121h-106v64l186 198h125l187 -198v-64z" glyph-name="circumflex" unicode="ˆ"/><glyph d="M793 1331v-63l-187 -199h-125l-186 199v63h106l144 -121l141 121h107z" glyph-name="caron" unicode="ˇ"/><glyph d="M805 1327v-65q-31 -80 -99.5 -133.5t-160.5 -53.5t-162 53.5t-100 133.5v65h106q14 -51 55.5 -85t99.5 -34t99 35t55 84h107z" glyph-name="breve" unicode="˘"/><glyph d="M641 1112h-197v197h197v-197z" glyph-name="dotaccent" unicode="˙"/><glyph d="M543 1415q86 0 136 -52t50 -129t-53 -128t-134 -51t-133.5 50t-52.5 128t50.5 130t136.5 52zM543 1313q-35 0 -57.5 -22.5t-22.5 -55.5t23.5 -55.5t56 -22.5t55.5 22.5t23 56.5t-21.5 55.5t-56.5 21.5z" glyph-name="ring" unicode="˚"/><glyph d="M514 -109q0 -47 53 -47h70v-92q-51 -8 -111 -8t-94.5 33t-34.5 86q0 163 217 192l23 -69q-123 -20 -123 -95z" glyph-name="ogonek" unicode="˛"/><glyph d="M428 1325q78 0 142 -53t115 -53q50 0 77 67l96 -29q-16 -74 -69 -122t-129 -48q-76 -1 -142 53t-117 54q-50 0 -77 -68l-97 31q16 74 69.5 121t131.5 47z" glyph-name="tilde" unicode="˜"/><glyph d="M274 1069v66l146 196h153v-67l-200 -195h-99zM573 1069v66l146 196h155v-67l-200 -195h-101z" glyph-name="hungarumlaut" unicode="˝"/><glyph d="M629 -92v-101l-60 -172h-69l28 123h-69v150h170z" glyph-name="uni0326" horiz-adv-x="0" unicode="̦"/><glyph d="M958 0h-829v170l283 1141h262l284 -1141v-170zM338 188h412l-207 893z" glyph-name="Delta" unicode="Δ"/><glyph d="M944 950v-301q0 -131 -54 -223t-153 -135v-111h203v-180h-354v418q154 41 153 200v347q0 178 -196.5 178t-196.5 -178v-347q0 -158 154 -200v-418h-355v180h203v111q-98 43 -152.5 135t-54.5 223v301q0 182 100.5 281.5t302.5 99.5t301 -98.5t99 -282.5z" glyph-name="Omega" unicode="Ω"/><glyph d="M934 942v-942h-168l-18 100q-104 -121 -279 -120q-63 0 -113 14v-240h-204v1188h204v-608q0 -166 154 -166q92 0 155.5 54t63.5 167v553h205z" glyph-name="mu" unicode="μ"/><glyph d="M860 754v-514q0 -70 66 -70v-190q-143 0 -202.5 56t-59.5 204v514h-170v-754h-197v739q-49 -10 -111 -43l-75 160q115 86 299 86h579v-188h-129z" glyph-name="pi" horiz-adv-x="1122" unicode="π"/><glyph d="M373 1669h194l146 -196v-66h-140l-200 195v67zM977 1311l-94 -1311h-156l-184 494l-183 -494h-155l-96 1311h196l70 -860l127 317h80l129 -319l71 862h195z" glyph-name="Wgrave" unicode="Ẁ"/><glyph d="M371 1331h194l146 -196v-66h-140l-200 195v67zM977 942l-94 -942h-158l-182 516l-183 -516h-155l-96 942h196l62 -522l137 364h78l137 -364l61 522h197z" glyph-name="wgrave" unicode="ẁ"/><glyph d="M375 1407v66l143 196h195v-67l-201 -195h-137zM977 1311l-94 -1311h-156l-184 494l-183 -494h-155l-96 1311h196l70 -860l127 317h80l129 -319l71 862h195z" glyph-name="Wacute" unicode="Ẃ"/><glyph d="M377 1069v66l143 196h195v-67l-201 -195h-137zM977 942l-94 -942h-158l-182 516l-183 -516h-155l-96 942h196l62 -522l137 364h78l137 -364l61 522h197z" glyph-name="wacute" unicode="ẃ"/><glyph d="M463 1444h-199v196h199v-196zM821 1444h-198v196h198v-196zM977 1311l-94 -1311h-156l-184 494l-183 -494h-155l-96 1311h196l70 -860l127 317h80l129 -319l71 862h195z" glyph-name="Wdieresis" unicode="Ẅ"/><glyph d="M463 1106h-199v197h199v-197zM821 1106h-198v197h198v-197zM977 942l-94 -942h-158l-182 516l-183 -516h-155l-96 942h196l62 -522l137 364h78l137 -364l61 522h197z" glyph-name="wdieresis" unicode="ẅ"/><glyph d="M944 381q0 -195 -98 -298t-283 -103q-61 0 -114 12l20 184q49 -8 92 -8q184 0 184 213q0 117 -59 165t-199 48v154l183 313q-47 78 -152 78q-74 0 -118 -44t-44 -130v-965h-204v948q0 180 94 279.5t259 99.5q317 0 378 -274l-187 -328q248 -68 248 -344z" glyph-name="uni1E9E" unicode="ẞ"/><glyph d="M958 0h-204v166l-47 201h-328l-45 -193v-174h-205v170l283 1141h262l284 -1141v-170zM664 555l-121 526l-121 -526h242zM444 -82h197v-197h-197v197z" glyph-name="uni1EA0" unicode="Ạ"/><glyph d="M565 963q180 0 274.5 -97.5t94.5 -267.5v-598h-168l-18 90q-106 -110 -270 -110t-250.5 72.5t-86.5 203.5v8q0 137 98.5 207t278.5 70h211v71q0 178 -176 179q-82 0 -129 -32t-55 -81h-185q0 109 100.5 197t280.5 88zM338 268q0 -114 160 -114q81 0 156 45t75 102v90 h-213q-178 0 -178 -115v-8zM463 -111h199v-196h-199v196z" glyph-name="uni1EA1" unicode="ạ"/><glyph d="M385 1122v-372h420v-189h-420v-373h522v-188h-727v1311h727v-189h-522zM444 -100h197v-199h-197v199z" glyph-name="uni1EB8" unicode="Ẹ"/><glyph d="M346 440v-102q0 -178 197 -178q92 0 144 38t52 93h205q0 -125 -104 -218q-106 -93 -302 -93t-296.5 99t-100.5 283v220q0 182 100.5 281.5t301 99.5t301 -98.5t100.5 -276.5v-148h-598zM542.5 782q-196.5 0 -196.5 -178v-35h393v37q0 176 -196.5 176zM444 -100h197v-199 h-197v199z" glyph-name="uni1EB9" unicode="ẹ"/><glyph d="M659.5 1425q-75.5 0 -142 53.5t-116.5 53.5t-77 -68l-97 31q16 74 69.5 121t131.5 47t142 -53q140 -115 192 14l96 -29q-16 -74 -69.5 -122t-129 -48zM385 1122v-372h420v-189h-420v-373h522v-188h-727v1311h727v-189h-522z" glyph-name="uni1EBC" unicode="Ẽ"/><glyph d="M659.5 1087q-75.5 0 -142 53.5t-116.5 53.5t-77 -68l-97 31q16 74 69.5 121t131.5 47t142.5 -53t114.5 -53t77 67l96 -29q-16 -74 -69.5 -122t-129 -48zM346 440v-102q0 -178 197 -178q92 0 144 38t52 93h205q0 -125 -104.5 -218t-301 -93t-297 99t-100.5 283v220 q0 182 100.5 281.5t301 99.5t301 -98.5t100.5 -276.5v-148h-598zM542.5 782q-196.5 0 -196.5 -178v-35h393v37q0 176 -196.5 176z" glyph-name="uni1EBD" unicode="ẽ"/><glyph d="M645 1122v-934h242v-188h-686v188h239v934h-239v189h686v-189h-242zM444 -96h197v-197h-197v197z" glyph-name="uni1ECA" unicode="Ị"/><glyph d="M659 1087h-231v232h231v-232zM870 188v-188h-655v188h225v566h-225v188h430v-754h225zM444 -94h197v-199h-197v199z" glyph-name="uni1ECB" unicode="ị"/><glyph d="M544 1331q202 0 301 -98t99 -283v-588q0 -184 -100.5 -283t-301 -99t-301 99t-100.5 283v588q0 182 100.5 281.5t302.5 99.5zM542.5 1143q-196.5 0 -196.5 -178v-619q0 -178 196.5 -178t196.5 178v619q0 178 -196.5 178zM641 -293h-197v199h197v-199z" glyph-name="uni1ECC" unicode="Ọ"/><glyph d="M542.5 963q200.5 0 301 -99.5t100.5 -281.5v-220q0 -184 -100.5 -283t-301 -99t-301 99t-100.5 283v220q0 182 100.5 281.5t301 99.5zM542.5 774q-196.5 0 -196.5 -178v-250q0 -178 196.5 -178t196.5 178v250q0 178 -196.5 178zM641 -293h-197v199h197v-199z" glyph-name="uni1ECD" unicode="ọ"/><glyph d="M944 1311v-949q0 -184 -100.5 -283t-301 -99t-301 99t-100.5 283v949h205v-965q0 -178 196.5 -178t196.5 178v965h205zM641 -293h-197v199h197v-199z" glyph-name="uni1EE4" unicode="Ụ"/><glyph d="M934 942v-942h-168l-18 100q-104 -120 -266 -120q-330 1 -330 337v625h204v-608q0 -166 154 -166q92 0 155.5 54t63.5 167v553h205zM444 -94h197v-199h-197v199z" glyph-name="uni1EE5" unicode="ụ"/><glyph d="M373 1669h194l146 -196v-66h-140l-200 195v67zM645 0h-205v502l-305 569v240h205v-197l203 -407l202 407v197h205v-240l-305 -569v-502z" glyph-name="Ygrave" unicode="Ỳ"/><glyph d="M373 1331h194l146 -196v-66h-140l-200 195v67zM961 942v-168l-431 -1020h-184l100 252l-321 768v168h205v-162l213 -544l213 544v162h205z" glyph-name="ygrave" unicode="ỳ"/><glyph d="M660 1425q-76 -1 -142 53t-117 54q-50 0 -77 -68l-97 31q16 74 69.5 121t131.5 47t142 -53q140 -115 192 14l96 -29q-16 -74 -69 -122t-129 -48zM645 0h-205v502l-305 569v240h205v-197l203 -407l202 407v197h205v-240l-305 -569v-502z" glyph-name="uni1EF8" unicode="Ỹ"/><glyph d="M660 1087q-76 -1 -142 53t-117 54q-50 0 -77 -68l-97 31q16 74 69.5 121t131.5 47t142 -53t115 -53q50 0 77 67l96 -29q-16 -74 -69 -122t-129 -48zM961 942v-168l-431 -1020h-184l100 252l-321 768v168h205v-162l213 -544l213 544v162h205z" glyph-name="uni1EF9" unicode="ỹ"/><glyph d="M901 475h-717v168h717v-168z" glyph-name="endash" unicode="–"/><glyph d="M1987 485h-1803v148h1803v-148z" glyph-name="emdash" horiz-adv-x="2170" unicode="—"/><glyph d="M674 1124v-262h-262v191l127 329h120l-71 -258h86z" glyph-name="quoteleft" unicode="‘"/><glyph d="M674 1311v-189l-127 -331h-121l74 258h-88v262h262z" glyph-name="quoteright" unicode="’"/><glyph d="M674 262v-188l-127 -332h-121l74 258h-88v262h262z" glyph-name="quotesinglbase" unicode="‚"/><glyph d="M489 1124v-262h-262v191l127 329h121l-72 -258h86zM858 1124v-262h-262v191l127 329h121l-72 -258h86z" glyph-name="quotedblleft" unicode="“"/><glyph d="M227 1311h262v-189l-127 -331h-120l73 258h-88v262zM858 1311v-189l-127 -331h-121l74 258h-88v262h262z" glyph-name="quotedblright" unicode="”"/><glyph d="M227 262h262v-188l-127 -332h-120l73 258h-88v262zM858 262v-188l-127 -332h-121l74 258h-88v262h262z" glyph-name="quotedblbase" unicode="„"/><glyph d="M897 813h-264v-813h-189v813h-256v180h256v318h189v-318h264v-180z" glyph-name="dagger" unicode="†"/><glyph d="M633 813v-315h264v-181h-264v-317h-189v317h-256v181h256v315h-256v180h256v318h189v-318h264v-180h-264z" glyph-name="daggerdbl" unicode="‡"/><glyph d="M544 786q83 0 143.5 -60t60.5 -144t-60.5 -143.5t-144.5 -59.5t-143.5 59.5t-59.5 143.5t60.5 144t143.5 60z" glyph-name="bullet" unicode="•"/><glyph d="M330 0h-230v229h230v-229zM657 0h-229v229h229v-229zM985 0h-229v229h229v-229z" glyph-name="ellipsis" unicode="…"/><glyph d="M672 1290l-566 -1302l-73 32l567 1303zM272 1317q164 0 164 -160v-33q0 -162 -165 -162t-165 162v33q0 76 42 118t124 42zM272.5 1229q-73.5 0 -73.5 -74v-29q0 -76 73.5 -75.5t73.5 75.5v29q0 74 -73.5 74zM436 348q164 0 164 -160v-32q0 -162 -165 -162t-165 162v32 q0 76 42 118t124 42zM815 348q164 0 164 -160v-32q0 -162 -165 -162t-165 162v32q0 76 42 118t124 42zM436 260q-74 0 -74 -74v-28q0 -76 74 -76t74 76v28q0 74 -74 74zM887 186q0 74 -73 74t-73 -74v-28q0 -76 73 -76t73 76v28z" glyph-name="perthousand" unicode="‰"/><glyph d="M512 520l225 -375l-155 -90l-289 465l289 467l155 -92z" glyph-name="guilsinglleft" unicode="‹"/><glyph d="M795 520l-291 -465l-154 90l225 375l-225 375l154 92z" glyph-name="guilsinglright" unicode="›"/><glyph d="M973 1280l-322 -510l-63 37l282 532zM502 504l-285 -535l-100 62l321 512z" glyph-name="fraction" unicode="⁄"/><glyph d="M739 895v70q0 178 -196.5 178t-196.5 -178v-134h293l-29 -124h-264v-103h246l-27 -125h-219v-133q0 -178 196.5 -178t196.5 178v70h205v-54q0 -184 -100.5 -283t-301 -99t-301 99t-100.5 283v117h-73v125h73v103h-73v124h73v119q0 182 100.5 281.5t302.5 99.5t301 -98 t99 -283v-55h-205z" glyph-name="Euro" unicode="€"/><glyph d="M88 1311h414v-101h-152v-473h-110v473h-152v101zM961 1311v-574h-111v322l-64 -123h-57l-63 125v-324h-109v574h80l123 -256l123 256h78z" glyph-name="trademark" unicode="™"/><glyph d="M944 950v-301q0 -131 -54 -223t-153 -135v-111h203v-180h-354v418q154 41 153 200v347q0 178 -196.5 178t-196.5 -178v-347q0 -158 154 -200v-418h-355v180h203v111q-98 43 -152.5 135t-54.5 223v301q0 182 100.5 281.5t302.5 99.5t301 -98.5t99 -282.5z" glyph-name="uni2126" unicode="Ω"/><glyph d="M651 770l-63 37l282 532l103 -59zM358 1311v-547h113v-109h-346v109h115v399l-88 -47l-56 96l174 99h88zM993 655v-159l-219 -496h-121l221 489v60h-165v-60h-115v166h399zM438 543l64 -39l-285 -535l-100 62z" glyph-name="uni2150" unicode="⅐"/><glyph d="M651 770l-63 37l282 532l103 -59zM379 1311v-547h113v-109h-347v109h115v399l-88 -47l-55 96l174 99h88zM768 666q205 0 205 -195v-287q0 -195 -203 -194q-98 0 -148.5 50t-50.5 138h119q0 -80 82 -80t82 76v84q-40 -25 -116 -25t-125.5 50.5t-49.5 142.5v45 q0 195 205 195zM682 418q0 -76 86 -76t86 84v55q0 78 -86 78t-86 -78v-63zM438 543l64 -39l-285 -535l-100 62z" glyph-name="uni2151" unicode="⅑"/><glyph d="M651 770l-63 37l282 532l103 -59zM379 1311v-547h113v-109h-347v109h115v399l-88 -47l-55 96l174 99h88zM973 473q0 -102 -66 -145q66 -41 66 -144q0 -195 -205 -194q-100 0 -152.5 50t-52.5 126v35h119q0 -61 19.5 -82t66.5 -21q86 0 86 76v19q0 92 -92 92h-39v90h39 q92 0 92 88v20q0 76 -86 76q-47 0 -66.5 -21.5t-19.5 -82.5h-119v37q0 74 53.5 124t151.5 50q205 0 205 -193zM438 543l64 -39l-285 -535l-100 62z" glyph-name="onethird" unicode="⅓"/><glyph d="M651 770l-63 37l282 532l103 -59zM227 764h289v-109h-401v166l231 205q57 51 57 100t-21.5 68.5t-66.5 19.5t-64.5 -22.5t-19.5 -81.5h-116v37q0 74 52 124t150 50q205 0 205 -193q0 -92 -90 -170l-205 -178v-16zM973 473q0 -102 -66 -145q66 -41 66 -144 q0 -195 -205 -194q-100 0 -152.5 50t-52.5 126v35h119q0 -61 19.5 -82t66.5 -21q86 0 86 76v19q0 92 -92 92h-39v90h39q92 0 92 88v20q0 76 -86 76q-47 0 -66.5 -21.5t-19.5 -82.5h-119v37q0 74 53.5 124t151.5 50q205 0 205 -193zM438 543l64 -39l-285 -535l-100 62z" glyph-name="twothirds" unicode="⅔"/><glyph d="M651 770l-63 37l282 532l103 -59zM379 1311v-547h113v-109h-347v109h115v399l-88 -47l-55 96l174 99h88zM798 444q72 0 123.5 -51t51.5 -143v-66q0 -195 -205 -194q-100 0 -152.5 49t-52.5 129h119q0 -70 86 -70t86 76v86q0 76 -79 76t-105 -57l-101 18l21 358h364v-106 h-262l-8 -127q42 22 114 22zM438 543l64 -39l-285 -535l-100 62z" glyph-name="uni2155" unicode="⅕"/><glyph d="M651 770l-63 37l282 532l103 -59zM227 764h289v-109h-401v166l231 205q57 51 57 100t-21.5 68.5t-66.5 19.5t-64.5 -22.5t-19.5 -81.5h-116v37q0 74 52 124t150 50q205 0 205 -193q0 -92 -90 -170l-205 -178v-16zM798 444q72 0 123.5 -51t51.5 -143v-66q0 -195 -205 -194 q-100 0 -152.5 49t-52.5 129h119q0 -70 86 -70t86 76v86q0 76 -79 76t-105 -57l-101 18l21 358h364v-106h-262l-8 -127q42 22 114 22zM438 543l64 -39l-285 -535l-100 62z" glyph-name="uni2156" unicode="⅖"/><glyph d="M651 770l-63 37l282 532l103 -59zM524 1128q0 -102 -65 -145q66 -41 65 -143q0 -195 -205 -195q-100 0 -152 50t-52 126v35h118q0 -61 19.5 -81.5t66.5 -20.5q86 0 87 75v19q0 92 -93 92h-39v90h39q92 0 93 88v21q0 76 -87 75q-47 0 -66.5 -21.5t-19.5 -82.5h-118v37 q0 74 53 124t151 50q205 0 205 -193zM798 444q72 0 123.5 -51t51.5 -143v-66q0 -195 -205 -194q-100 0 -152.5 49t-52.5 129h119q0 -70 86 -70t86 76v86q0 76 -79 76t-105 -57l-101 18l21 358h364v-106h-262l-8 -127q42 22 114 22zM438 543l64 -39l-285 -535l-100 62z" glyph-name="uni2157" unicode="⅗"/><glyph d="M651 770l-63 37l282 532l103 -59zM461 893h78v-109h-78v-129h-119v129h-242v113l195 414h131l-193 -418h109v141h119v-141zM798 444q72 0 123.5 -51t51.5 -143v-66q0 -195 -205 -194q-100 0 -152.5 49t-52.5 129h119q0 -70 86 -70t86 76v86q0 76 -79 76t-105 -57l-101 18 l21 358h364v-106h-262l-8 -127q42 22 114 22zM438 543l64 -39l-285 -535l-100 62z" glyph-name="uni2158" unicode="⅘"/><glyph d="M651 770l-63 37l282 532l103 -59zM379 1311v-547h113v-109h-347v109h115v399l-88 -47l-55 96l174 99h88zM798 424q76 0 125.5 -51t49.5 -144v-45q0 -195 -205 -194.5t-205 194.5v289q0 193 203 193q98 0 148.5 -49.5t50.5 -139.5h-119q0 82 -82 82t-82 -78v-82 q40 25 116 25zM438 543l64 -39l-285 -535l-100 62zM854 174v66q0 76 -84 75q-88 0 -88 -86v-55q0 -76 86 -76t86 76z" glyph-name="uni2159" unicode="⅙"/><glyph d="M651 770l-63 37l282 532l103 -59zM350 1100q72 0 123 -51.5t51 -143.5v-65q0 -195 -205 -195q-100 0 -152 49t-52 129h118q0 -70 86.5 -69.5t86.5 75.5v86q0 76 -80 76t-105 -57l-100 18l20 359h365v-107h-262l-8 -127q42 23 114 23zM798 424q76 0 125.5 -51t49.5 -144 v-45q0 -195 -205 -194.5t-205 194.5v289q0 193 203 193q98 0 148.5 -49.5t50.5 -139.5h-119q0 82 -82 82t-82 -78v-82q40 25 116 25zM438 543l64 -39l-285 -535l-100 62zM854 174v66q0 76 -84 75q-88 0 -88 -86v-55q0 -76 86 -76t86 76z" glyph-name="uni215A" unicode="⅚"/><glyph d="M651 770l-63 37l282 532l103 -59zM379 1311v-547h113v-109h-347v109h115v399l-88 -47l-55 96l174 99h88zM979 192q0 -202 -212 -202t-212 202q0 102 76 142q-61 43 -61 137t50 144.5t146 50.5q199 0 199 -193q-1 -96 -62 -139q76 -40 76 -142zM688 479v-18q0 -80 80 -80 t80 80v18q0 37 -21.5 58.5t-60.5 21.5q-78 0 -78 -80zM438 543l64 -39l-285 -535l-100 62zM860 180v21q0 86 -93 86t-93 -86v-21q0 -39 25.5 -60.5t67.5 -21.5t67.5 21.5t25.5 60.5z" glyph-name="oneeighth" unicode="⅛"/><glyph d="M651 770l-63 37l282 532l103 -59zM524 1128q0 -102 -65 -145q66 -41 65 -143q0 -195 -205 -195q-100 0 -152 50t-52 126v35h118q0 -61 19.5 -81.5t66.5 -20.5q86 0 87 75v19q0 92 -93 92h-39v90h39q92 0 93 88v21q0 76 -87 75q-47 0 -66.5 -21.5t-19.5 -82.5h-118v37 q0 74 53 124t151 50q205 0 205 -193zM979 192q0 -202 -212 -202t-212 194q0 111 76 150q-61 43 -61 137t50 144.5t146 50.5q199 0 199 -193q-1 -96 -62 -139q76 -40 76 -142zM688 479v-18q0 -80 79 -80t79 80v18q0 80 -79 80t-79 -80zM438 543l64 -39l-285 -535l-100 62z M860 180v21q0 86 -93 86t-93 -86v-21q0 -39 25.5 -60.5t67.5 -21.5t67.5 22.5t25.5 59.5z" glyph-name="threeeighths" unicode="⅜"/><glyph d="M651 770l-63 37l282 532l103 -59zM350 1100q72 0 123 -51.5t51 -143.5v-65q0 -195 -205 -195q-100 0 -152 49t-52 129h118q0 -70 86.5 -69.5t86.5 75.5v86q0 76 -80 76t-105 -57l-100 18l20 359h365v-107h-262l-8 -127q42 23 114 23zM979 192q0 -202 -212 -202t-212 194 q0 111 76 150q-61 43 -61 137t50 144.5t146 50.5q199 0 199 -193q-1 -96 -62 -139q76 -40 76 -142zM688 479v-18q0 -80 79 -80t79 80v18q0 80 -79 80t-79 -80zM438 543l64 -39l-285 -535l-100 62zM860 180v21q0 86 -93 86t-93 -86v-21q0 -39 25.5 -60.5t67.5 -21.5 t67.5 22.5t25.5 59.5z" glyph-name="fiveeighths" unicode="⅝"/><glyph d="M651 770l-63 37l282 532l103 -59zM520 1311v-160l-219 -496h-119l219 490v59h-165v-59h-113v166h397zM979 192q0 -202 -212 -202t-212 194q0 111 76 150q-61 43 -61 137t50 144.5t146 50.5q199 0 199 -193q-1 -96 -62 -139q76 -40 76 -142zM688 479v-18q0 -80 79 -80 t79 80v18q0 80 -79 80t-79 -80zM438 543l64 -39l-285 -535l-100 62zM860 180v21q0 86 -93 86t-93 -86v-21q0 -39 25.5 -60.5t67.5 -21.5t67.5 22.5t25.5 59.5z" glyph-name="seveneighths" unicode="⅞"/><glyph d="M973 1280l-322 -510l-63 37l282 532zM379 1311v-547h113v-109h-347v109h115v399l-88 -47l-55 96l174 99h88zM438 543l64 -39l-285 -535l-100 62z" glyph-name="uni215F" unicode="⅟"/><glyph d="M651 770l-63 37l282 532l103 -59zM318 1321q204 0 204 -193v-288q0 -195 -204 -195t-203 195v288q-1 193 203 193zM403 829v308q0 78 -86 77.5t-86 -77.5v-308q0 -76 86 -76t86 76zM276 1026h84v-86h-84v86zM973 473q0 -102 -66 -145q66 -41 66 -144q0 -195 -205 -194 q-100 0 -152.5 50t-52.5 126v35h119q0 -61 19.5 -82t66.5 -21q86 0 86 76v19q0 92 -92 92h-39v90h39q92 0 92 88v20q0 76 -86 76q-47 0 -66.5 -21.5t-19.5 -82.5h-119v37q0 74 53.5 124t151.5 50q205 0 205 -193zM438 543l64 -39l-285 -535l-100 62z" glyph-name="uni2189" unicode="↉"/><glyph d="M539 1331q406 0 405 -381v-588q0 -184 -100.5 -283t-301 -99t-301 99t-100.5 283v103q0 182 96.5 281.5t278.5 99.5q137 0 223 -62v181q0 178 -221 178q-113 0 -239 -68l-76 156q162 100 336 100zM739 346v115q0 197 -200 196q-193 0 -193 -178v-133q0 -178 196.5 -178 t196.5 178z" glyph-name="partialdiff" unicode="∂"/><glyph d="M983 637q0 -182 -130 -312t-310 -130q-131 0 -246 75l-98 -98l-119 119l98 98q-76 115 -76 248q0 182 129 311t312 129q133 0 248 -76l98 99l119 -119l-101 -100q76 -113 76 -244zM276 637q0 -63 29 -121l361 361q-57 29 -123 28q-111 0 -189 -78.5t-78 -189.5zM811 637 q0 66 -29 119l-358 -359q57 -27 119 -26q111 0 189.5 77.5t78.5 188.5z" glyph-name="emptyset" unicode="∅"/><glyph d="M961 1122h-93v-1368h-190v1368h-270v-1368h-189v1368h-94v189h836v-189z" glyph-name="product" unicode="∏"/><glyph d="M907 1122h-520l203 -590l-203 -589h520v-189h-727v154l209 624l-209 625v154h727v-189z" glyph-name="summation" unicode="∑"/><glyph d="M928 524h-768v152h768v-152z" glyph-name="minus" unicode="−"/><glyph d="M991 1130h-166l-274 -890h-154l-159 522h-127v180h256l108 -383l225 752h291v-181z" glyph-name="radical" unicode="√"/><glyph d="M754 958q100 0 162.5 -73.5t62.5 -204.5t-62.5 -205t-162.5 -74q-131 0 -211 136q-78 -135 -209 -136q-102 0 -163.5 73t-61.5 205t61 205.5t164 73.5q131 0 209 -135q80 135 211 135zM352 555q98 0 135 125q-37 125 -135 125q-49 0 -78.5 -33t-29.5 -92t29.5 -92 t78.5 -33zM733 555q49 0 78 33t29 92t-29 92t-78 33q-96 0 -135 -125q39 -125 135 -125z" glyph-name="infinity" unicode="∞"/><glyph d="M718 1597q124 0 249 -55l-58 -149q-92 37 -157 37q-106 0 -107 -121v-1274q0 -133 -76.5 -212t-200.5 -79t-249 55l57 150q92 -37 158 -37q106 0 106 123v1272q0 133 77 211.5t201 78.5z" glyph-name="integral" unicode="∫"/><glyph d="M934 885q0 -260 -195 -260q-86 0 -235 86q-117 63 -156 63q-66 0 -72 -102h-131q0 127 50.5 194.5t132.5 67.5t134 -26.5t139 -74.5t130 -49q68 0 74 101h129zM335 580q89 0 240 -86q119 -63 156 -64q68 0 74 102h129q0 -127 -50 -194.5t-138 -67.5t-219 74 q-132 74 -179 76q-66 0 -72 -101h-131q0 125 50.5 193t139.5 68z" glyph-name="approxequal" unicode="≈"/><glyph d="M928 522v-151h-424l-96 -205l-111 51l72 154h-209v151h278l74 156h-352v151h422l96 205l110 -51l-71 -154h211v-151h-281l-74 -156h355z" glyph-name="notequal" unicode="≠"/><glyph d="M928 858l-416 -102l416 -105v-153l-768 192v129l768 193v-154zM160 430h768v-151h-768v151z" glyph-name="lessequal" unicode="≤"/><glyph d="M928 819v-129l-768 -192v153l415 105l-415 102v154zM160 430h768v-151h-768v151z" glyph-name="greaterequal" unicode="≥"/><glyph d="M543 999q172 0 295 -122.5t123 -294.5t-123 -294t-295 -122t-294 122t-122 294t122 294.5t294 122.5zM542 887q-91 0 -167 -51l166 -166l168 168q-76 49 -167 49zM848 583q0 93 -51 167l-168 -168l168 -166q51 74 51 167zM238 584q0 -90 49 -168l168 166l-166 166 q-51 -74 -51 -164zM541 496l-166 -168q76 -51 168 -51.5t166 51.5z" glyph-name="circlemultiply" unicode="⊗"/><glyph d="M889 928v-692h-692v692h692zM541 670l164 161h-326zM629 582l164 -162v325zM295 741v-317l160 158zM381 334h321l-159 162z" glyph-name="uni22A0" unicode="⊠"/><glyph d="M911 197h-737v737h737v-737z" glyph-name="filledbox" unicode="■"/><glyph d="M911 197h-737v737h737v-737zM332 776v-422h422v422h-422z" glyph-name="H22073" unicode="□"/><glyph d="M971 655l-346 -655h-162l-348 655l348 656h162zM328 655l215 -426l217 426l-217 426z" glyph-name="lozenge" unicode="◊"/><glyph d="M543 975q170 0 289.5 -120t119.5 -290t-119.5 -289.5t-289.5 -119.5t-290 120.5t-120 289.5t120 289t290 120zM545 803q-98 0 -168 -69.5t-70 -167.5t69.5 -167t167.5 -69t167 68.5t69 167.5t-68.5 168t-166.5 69z" glyph-name="circle" unicode="○"/><glyph d="M543 975q170 0 289.5 -120t119.5 -290t-119.5 -289.5t-289.5 -119.5t-290 120.5t-120 289.5t120 289t290 120z" glyph-name="H18533" unicode="●"/><glyph d="M141 1069v66l144 196h194v-67l-200 -195h-138zM633 1069v66l143 196h195v-67l-201 -195h-137zM399 0h-204v942h204v-942zM891 942v-885q0 -160 -74 -250t-199 -90t-237 47l53 152q72 -29 139 -29q113 0 113 150v905h205z" glyph-name="uniE132" unicode=""/><glyph d="M403 1669v-67l-200 -195h-137v66l145 196h192zM602 1407v66l146 196h192v-67l-201 -195h-137zM121 1311h188v-1311h-188v1311zM965 1311v-981q0 -170 -77 -260t-208 -90t-201.5 89t-70.5 261v65h174v-73q0 -162 97 -162t97 162v808h-239v181h428z" glyph-name="uniE133" unicode=""/><glyph d="M958 0h-204v166l-47 201h-328l-45 -193v-174h-205v170l283 1141h262l284 -1141v-170zM664 555l-121 526l-121 -526h242z" glyph-name="A.salt"/><glyph d="M375 1407v66l143 196h195v-67l-201 -195h-137zM958 0h-204v166l-47 201h-328l-45 -193v-174h-205v170l283 1141h262l284 -1141v-170zM664 555l-121 526l-121 -526h242z" glyph-name="Aacute.aalt"/><glyph d="M545 1413q-92 0 -162 53.5t-100 132.5v66h106q14 -51 55.5 -85t99.5 -34t99 35t55 84h107v-66q-31 -80 -99.5 -133t-160.5 -53zM958 0h-204v166l-47 201h-328l-45 -193v-174h-205v170l283 1141h262l284 -1141v-170zM664 555l-121 526l-121 -526h242z" glyph-name="Abreve.aalt"/><glyph d="M463 1444h-199v196h199v-196zM821 1444h-198v196h198v-196zM958 0h-204v166l-47 201h-328l-45 -193v-174h-205v170l283 1141h262l284 -1141v-170zM664 555l-121 526l-121 -526h242z" glyph-name="Adieresis.aalt"/><glyph d="M958 0h-204v166l-47 201h-328l-45 -193v-174h-205v170l283 1141h262l284 -1141v-170zM664 555l-121 526l-121 -526h242zM444 -82h197v-197h-197v197z" glyph-name="uni1EA0.aalt"/><glyph d="M373 1669h194l146 -196v-66h-140l-200 195v67zM958 0h-204v166l-47 201h-328l-45 -193v-174h-205v170l283 1141h262l284 -1141v-170zM664 555l-121 526l-121 -526h242z" glyph-name="Agrave.aalt"/><glyph d="M786 1440h-487v147h487v-147zM958 0h-204v166l-47 201h-328l-45 -193v-174h-205v170l283 1141h262l284 -1141v-170zM664 555l-121 526l-121 -526h242z" glyph-name="Amacron.aalt"/><glyph d="M889 -141h69v-92q-51 -9 -110 -9t-94 33t-35 99t49 110h-14v166l-47 201h-328l-45 -193v-174h-205v170l283 1141h262l284 -1141v-170q-123 -20 -122 -94q0 -47 53 -47zM664 555l-121 526l-121 -526h242z" glyph-name="Aogonek.aalt"/><glyph d="M542 1393q-81 0 -133.5 50t-52.5 128t50.5 130t136.5 52t136 -52t50 -129t-53 -128t-134 -51zM543 1651q-35 0 -57.5 -22.5t-22.5 -55.5t23.5 -55.5t56 -22.5t55.5 22.5t23 55.5t-21.5 55.5t-56.5 22.5zM958 0h-204v166l-47 201h-328l-45 -193v-174h-205v170l283 1141 h262l284 -1141v-170zM664 555l-121 526l-121 -526h242z" glyph-name="Aring.aalt"/><glyph d="M373 1757v66l145 196h195v-65l-201 -197h-139zM542 1360q-81 0 -133.5 50t-52.5 128t50.5 130t136.5 52t136 -52t50 -129t-53 -128t-134 -51zM543 1618q-35 0 -57.5 -22.5t-22.5 -55.5t23.5 -55.5t56 -22.5t55.5 22.5t23 55.5t-21.5 55.5t-56.5 22.5zM958 0h-204v166 l-47 201h-328l-45 -193v-174h-205v170l283 1141h262l284 -1141v-170zM664 555l-121 526l-121 -526h242z" glyph-name="Aringacute.aalt"/><glyph d="M660 1425q-76 -1 -142 53t-117 54q-50 0 -77 -68l-97 31q16 74 69.5 121t131.5 47t142 -53q140 -115 192 14l96 -29q-16 -74 -69 -122t-129 -48zM958 0h-204v166l-47 201h-328l-45 -193v-174h-205v170l283 1141h262l284 -1141v-170zM664 555l-121 526l-121 -526h242z" glyph-name="Atilde.aalt"/><glyph d="M717 1122v-372h174v-189h-174v-373h248v-188h-437v367h-188l-45 -193v-174h-205v170l287 1141h588v-189h-248zM528 555v608l-143 -608h143z" glyph-name="AE.aalt"/><glyph d="M424 1415v66l143 196h195v-67l-201 -195h-137zM717 1122v-372h174v-189h-174v-373h248v-188h-437v367h-188l-45 -193v-174h-205v170l287 1141h588v-189h-248zM528 555v608l-143 -608h143z" glyph-name="AEacute.aalt"/><glyph d="M385 1122v-372h420v-189h-420v-561h-205v1311h727v-189h-522z" glyph-name="F.aalt"/><glyph d="M907 188v-188h-727v1311h205v-1123h522z" glyph-name="L.aalt" horiz-adv-x="1044"/><glyph d="M375 1407v66l143 196h195v-67l-201 -195h-137zM907 188v-188h-727v1311h205v-1123h522z" glyph-name="Lacute.aalt" horiz-adv-x="1044"/><glyph d="M907 188v-188h-727v1311h205v-1123h522zM575 1163v148h170v-101l-59 -172h-70l29 125h-70z" glyph-name="Lcaron.aalt" horiz-adv-x="1044"/><glyph d="M907 188v-188h-727v1311h205v-1123h522zM457 -92h170v-101l-60 -172h-69l28 123h-69v150z" glyph-name="Lcommaaccent.aalt" horiz-adv-x="1044"/><glyph d="M385 188h522v-188h-727v1311h205v-1123zM928 799v-199h-199v199h199z" glyph-name="Ldot.aalt" horiz-adv-x="1044"/><glyph d="M907 188v-188h-727v557l-121 -33v181l121 32v574h205v-520l168 45v-179l-168 -45v-424h522z" glyph-name="Lslash.aalt" horiz-adv-x="1044"/><glyph d="M141 1311h402q201 0 301 -98.5t100 -280.5t-100.5 -280.5t-300.5 -98.5h-197v-553h-205v1311zM346 1122v-381h197q197 0 196 174v33q0 174 -196 174h-197z" glyph-name="P.aalt"/><glyph d="M938 1122h-313v-1122h-205v1122h-311v189h829v-189z" glyph-name="T.aalt" horiz-adv-x="1044"/><glyph d="M625 1122v-362h174v-189h-174v-571h-205v571h-174v189h174v362h-311v189h829v-189h-313z" glyph-name="Tbar.aalt" horiz-adv-x="1044"/><glyph d="M272 1669h107l143 -121l142 121h106v-63l-186 -199h-125l-187 199v63zM938 1122h-313v-1122h-205v1122h-311v189h829v-189z" glyph-name="Tcaron.aalt" horiz-adv-x="1044"/><glyph d="M625 0h-45q51 -33 51 -113v-24q-1 -135 -145 -135t-144 127h100q0 -31 43 -31t43 39v24q0 35 -43 35h-65v1200h-311v189h829v-189h-313v-1122z" glyph-name="Tcommaaccent.salt" horiz-adv-x="1044"/><glyph d="M938 1122h-313v-1122h-205v1122h-311v189h829v-189zM436 -92h170v-101l-59 -172h-70l29 123h-70v150z" glyph-name="uni021A.aalt" horiz-adv-x="1044"/><glyph d="M958 1311v-168l-284 -1143h-262l-283 1143v168h205v-174l209 -908l211 916v166h204z" glyph-name="V.aalt"/><glyph d="M977 1311l-94 -1311h-156l-184 494l-183 -494h-155l-96 1311h196l70 -860l127 317h80l129 -319l71 862h195z" glyph-name="W.aalt"/><glyph d="M375 1407v66l143 196h195v-67l-201 -195h-137zM977 1311l-94 -1311h-156l-184 494l-183 -494h-155l-96 1311h196l70 -860l127 317h80l129 -319l71 862h195z" glyph-name="Wacute.aalt"/><glyph d="M293 1407v63l186 199h125l187 -199v-63h-107l-141 121l-144 -121h-106zM977 1311l-94 -1311h-156l-184 494l-183 -494h-155l-96 1311h196l70 -860l127 317h80l129 -319l71 862h195z" glyph-name="Wcircumflex.aalt"/><glyph d="M463 1444h-199v196h199v-196zM821 1444h-198v196h198v-196zM977 1311l-94 -1311h-156l-184 494l-183 -494h-155l-96 1311h196l70 -860l127 317h80l129 -319l71 862h195z" glyph-name="Wdieresis.aalt"/><glyph d="M373 1669h194l146 -196v-66h-140l-200 195v67zM977 1311l-94 -1311h-156l-184 494l-183 -494h-155l-96 1311h196l70 -860l127 317h80l129 -319l71 862h195z" glyph-name="Wgrave.aalt"/><glyph d="M645 0h-205v502l-305 569v240h205v-197l203 -407l202 407v197h205v-240l-305 -569v-502z" glyph-name="Y.aalt"/><glyph d="M375 1407v66l143 196h195v-67l-201 -195h-137zM645 0h-205v502l-305 569v240h205v-197l203 -407l202 407v197h205v-240l-305 -569v-502z" glyph-name="Yacute.aalt"/><glyph d="M293 1407v63l186 199h125l187 -199v-63h-107l-141 121l-144 -121h-106zM645 0h-205v502l-305 569v240h205v-197l203 -407l202 407v197h205v-240l-305 -569v-502z" glyph-name="Ycircumflex.aalt"/><glyph d="M463 1444h-199v196h199v-196zM821 1444h-198v196h198v-196zM645 0h-205v502l-305 569v240h205v-197l203 -407l202 407v197h205v-240l-305 -569v-502z" glyph-name="Ydieresis.aalt"/><glyph d="M373 1669h194l146 -196v-66h-140l-200 195v67zM645 0h-205v502l-305 569v240h205v-197l203 -407l202 407v197h205v-240l-305 -569v-502z" glyph-name="Ygrave.aalt"/><glyph d="M786 1440h-487v147h487v-147zM645 0h-205v502l-305 569v240h205v-197l203 -407l202 407v197h205v-240l-305 -569v-502z" glyph-name="uni0232.aalt"/><glyph d="M660 1425q-76 -1 -142 53t-117 54q-50 0 -77 -68l-97 31q16 74 69.5 121t131.5 47t142 -53q140 -115 192 14l96 -29q-16 -74 -69 -122t-129 -48zM645 0h-205v502l-305 569v240h205v-197l203 -407l202 407v197h205v-240l-305 -569v-502z" glyph-name="uni1EF8.aalt"/><glyph d="M641 1112h-197v197h197v-197zM870 188v-188h-655v188h225v566h-225v188h430v-754h225z" glyph-name="i.locl"/><glyph d="M877 424v-86q0 -178 196 -178q92 0 145.5 38t53.5 93h205q0 -125 -105.5 -218t-310.5 -93t-307 118q-109 -119 -275 -118.5t-252 73t-86 203.5v8q0 139 99.5 215t277.5 74h154v29q0 82 22 153q-47 55 -135 55.5t-135 -31.5t-55 -81h-185q0 109 100.5 197t266 88 t258.5 -70q98 70 281.5 70t285 -98.5t101.5 -276.5v-164h-600zM1272 606q0 176 -198 176t-197 -178v-51h395v53zM483 154q129 0 205 71q-16 66 -16 137v62h-156q-84 0 -131 -36t-47 -93v-25q0 -57 39.5 -86.5t105.5 -29.5z" glyph-name="ae.aalt" horiz-adv-x="1615"/><glyph d="M698 1069v66l144 196h194v-67l-200 -195h-138zM877 424v-86q0 -178 196 -178q92 0 145.5 38t53.5 93h205q0 -125 -105.5 -218t-310.5 -93t-307 118q-109 -119 -275 -118.5t-252 73t-86 203.5v8q0 139 99.5 215t277.5 74h154v29q0 82 22 153q-47 55 -135 55.5t-135 -31.5 t-55 -81h-185q0 109 100.5 197t266 88t258.5 -70q98 70 281.5 70t285 -98.5t101.5 -276.5v-164h-600zM1272 606q0 176 -198 176t-197 -178v-51h395v53zM483 154q129 0 205 71q-16 66 -16 137v62h-156q-84 0 -131 -36t-47 -93v-25q0 -57 39.5 -86.5t105.5 -29.5z" glyph-name="aeacute.aalt" horiz-adv-x="1615"/><glyph d="M592 1200q-122 0 -121 -125v-133h217v-188h-217v-754h-205v754h-174v188h174v115q0 147 78 231t204 84t240 -61l-67 -148q-65 37 -129 37z" glyph-name="f.aalt" horiz-adv-x="813"/><glyph d="M406 1087h-232v232h232v-232zM393 0h-205v942h205v-942z" glyph-name="i.salt" horiz-adv-x="579"/><glyph d="M393 0h-205v942h205v-942z" glyph-name="dotlessi.aalt" horiz-adv-x="579"/><glyph d="M121 1069v66l143 196h195v-67l-201 -195h-137zM393 0h-205v942h205v-942z" glyph-name="iacute.aalt" horiz-adv-x="579"/><glyph d="M551 1327v-65q-31 -80 -99.5 -133.5t-160.5 -53.5t-162 53.5t-100 133.5v65h106q14 -51 55.5 -85t99.5 -34t99 35t55 84h107zM393 0h-205v942h205v-942z" glyph-name="ibreve.aalt" horiz-adv-x="579"/><glyph d="M539 1069h-107l-141 121l-144 -121h-106v64l186 198h125l187 -198v-64zM188 942h205v-942h-205v942z" glyph-name="icircumflex.aalt" horiz-adv-x="579"/><glyph d="M209 1106h-199v197h199v-197zM567 1106h-198v197h198v-197zM393 0h-205v942h205v-942z" glyph-name="idieresis.aalt" horiz-adv-x="579"/><glyph d="M387 1112h-197v197h197v-197zM393 0h-205v942h205v-942z" glyph-name="i.locl.salt" horiz-adv-x="579"/><glyph d="M393 0h-205v942h205v-942zM389 -338h-199v197h199v-197z" glyph-name="uni1ECB.aalt" horiz-adv-x="579"/><glyph d="M459 1069h-140l-200 195v67h194l146 -196v-66zM393 0h-205v942h205v-942z" glyph-name="igrave.aalt" horiz-adv-x="579"/><glyph d="M532 1102h-487v147h487v-147zM393 0h-205v942h205v-942z" glyph-name="imacron.aalt" horiz-adv-x="579"/><glyph d="M387 1112h-197v197h197v-197zM393 942v-942h-2q-123 -20 -123 -94q0 -47 54 -47h69v-92q-51 -9 -110 -9t-94 33t-35 99t49 110h-13v942h205z" glyph-name="iogonek.aalt" horiz-adv-x="579"/><glyph d="M174 1325q78 0 142 -53t115 -53q50 0 77 67l96 -29q-16 -74 -69 -122t-129 -48q-76 -1 -142 53t-117 54q-50 0 -77 -68l-97 31q16 74 69.5 121t131.5 47zM393 0h-205v942h205v-942z" glyph-name="itilde.aalt" horiz-adv-x="579"/><glyph d="M483 1087h-231v232h231v-232zM471 942v-885q0 -160 -73.5 -250t-199.5 -90t-239 47l53 152q74 -29 142 -29q113 0 112 150v905h205z" glyph-name="j.aalt" horiz-adv-x="657"/><glyph d="M471 942v-885q0 -160 -73.5 -250t-199.5 -90t-239 47l53 152q74 -29 142 -29q113 0 112 150v905h205z" glyph-name="uni0237.aalt" horiz-adv-x="657"/><glyph d="M616 1069h-106l-141 121l-144 -121h-106v64l186 198h125l186 -198v-64zM266 942h205v-885q0 -160 -73.5 -250t-199.5 -90t-239 47l53 152q74 -29 142 -29q113 0 112 150v905z" glyph-name="jcircumflex.aalt" horiz-adv-x="657"/><glyph d="M387 0h-205v1311h205v-1311z" glyph-name="l.aalt" horiz-adv-x="569"/><glyph d="M115 1407v66l143 196h195v-67l-201 -195h-137zM387 0h-205v1311h205v-1311z" glyph-name="lacute.aalt" horiz-adv-x="569"/><glyph d="M145 1311h205v-1311h-205v1311zM588 1311v-101l-62 -172h-67l26 125h-67v148h170z" glyph-name="lcaron.aalt" horiz-adv-x="569"/><glyph d="M387 1311v-1311h-205v1311h205zM199 -92h170v-101l-60 -172h-69l28 123h-69v150z" glyph-name="lcommaaccent.aalt" horiz-adv-x="569"/><glyph d="M387 0h-205v1311h205v-1311zM657 555h-202v203h202v-203z" glyph-name="ldot.aalt" horiz-adv-x="569"/><glyph d="M387 0h-205v563l-116 -31v179l116 32v568h205v-512l115 30v-180l-115 -31v-618z" glyph-name="lslash.aalt" horiz-adv-x="569"/><glyph d="M1161 963q139 0 221 -85t82 -253v-625h-204v610q0 164 -142 164q-82 0 -143.5 -57.5t-61.5 -169.5v-547h-204v610q0 164 -140 164q-82 0 -143 -57.5t-61 -169.5v-547h-205v942h168l18 -98q100 119 276 119t252 -148q101 148 287 148z" glyph-name="m.aalt" horiz-adv-x="1624"/><glyph d="M866 424v-86q0 -178 197 -178q92 0 145.5 38t53.5 93h204q0 -125 -105.5 -218t-283.5 -93t-274 65q-96 -66 -278.5 -65.5t-283 99.5t-100.5 283v220q0 182 100.5 281.5t282 99.5t281.5 -66q96 66 277.5 66t282.5 -98.5t101 -276.5v-164h-600zM1262 606q0 176 -198 176 t-198 -178v-51h396v53zM346 596v-250q0 -178 197 -178q94 0 141 41q-23 72 -22 153v220q0 82 22 153q-51 39 -141 39q-197 0 -197 -178z" glyph-name="oe.aalt" horiz-adv-x="1605"/><glyph d="M653 770q-158 0 -227.5 -60.5t-69.5 -177.5v-532h-204v942h170l20 -115q98 135 311 136v-193z" glyph-name="r.aalt" horiz-adv-x="714"/><glyph d="M233 1069v66l144 196h194v-67l-200 -195h-138zM653 770q-158 0 -227.5 -60.5t-69.5 -177.5v-532h-204v942h170l20 -115q98 135 311 136v-193z" glyph-name="racute.aalt" horiz-adv-x="714"/><glyph d="M154 1331h106l143 -121l142 121h106v-63l-186 -199h-125l-186 199v63zM653 770q-158 0 -227.5 -60.5t-69.5 -177.5v-532h-204v942h170l20 -115q98 135 311 136v-193z" glyph-name="rcaron.aalt" horiz-adv-x="714"/><glyph d="M653 770q-158 0 -227.5 -60.5t-69.5 -177.5v-532h-204v942h170l20 -115q98 135 311 136v-193zM297 -92h170v-101l-59 -172h-70l29 123h-70v150z" glyph-name="rcommaaccent.aalt" horiz-adv-x="714"/><glyph d="M541 -20q-143 0 -220 83.5t-77 231.5v459h-176v188h176v199l205 43v-242h217v-188h-217v-475q0 -127 119 -127q62 0 128 36l68 -147q-119 -61 -223 -61z" glyph-name="t.aalt" horiz-adv-x="813"/><glyph d="M541 -20q-143 0 -220 83.5t-77 231.5v168h-176v172h176v119h-176v188h176v199l205 43v-242h217v-188h-217v-119h217v-172h-217v-184q0 -127 119 -127q62 0 128 36l68 -147q-119 -61 -223 -61z" glyph-name="tbar.aalt" horiz-adv-x="813"/><glyph d="M569 1159v150h170v-101l-59 -172h-70l29 123h-70zM541 -20q-143 0 -220 83.5t-77 231.5v459h-176v188h176v199l205 43v-242h217v-188h-217v-475q0 -127 119 -127q62 0 128 36l68 -147q-119 -61 -223 -61z" glyph-name="tcaron.aalt" horiz-adv-x="813"/><glyph d="M637 -113v-24q0 -135 -145.5 -135t-145.5 127h103q0 -31 42 -31t41 39v24q0 35 -40 35h-66v74q-182 63 -182 299v459h-176v188h176v199l205 43v-242h217v-188h-217v-475q0 -127 119 -127q62 0 128 36l68 -147q-86 -45 -160 -55q33 -35 33 -99z" glyph-name="tcommaaccent.salt" horiz-adv-x="813"/><glyph d="M541 -20q-143 0 -220 83.5t-77 231.5v459h-176v188h176v199l205 43v-242h217v-188h-217v-475q0 -127 119 -127q62 0 128 36l68 -147q-119 -61 -223 -61zM406 -92h169v-101l-59 -172h-70l29 123h-69v150z" glyph-name="uni021B.aalt" horiz-adv-x="813"/><glyph d="M1251 942l-182 -942h-199l-190 459l-191 -459h-198l-182 942h196l127 -678l209 520h78l209 -520l127 678h196z" glyph-name="w.aalt" horiz-adv-x="1359"/><glyph d="M549 1069v66l145 196h195v-67l-201 -195h-139zM1251 942l-182 -942h-199l-190 459l-191 -459h-198l-182 942h196l127 -678l209 520h78l209 -520l127 678h196z" glyph-name="wacute.aalt" horiz-adv-x="1359"/><glyph d="M432 1069v64l186 198h125l187 -198v-64h-107l-141 121l-143 -121h-107zM1251 942l-182 -942h-199l-190 459l-191 -459h-198l-182 942h196l127 -678l209 520h78l209 -520l127 678h196z" glyph-name="wcircumflex.aalt" horiz-adv-x="1359"/><glyph d="M600 1106h-199v197h199v-197zM958 1106h-198v197h198v-197zM1251 942l-182 -942h-199l-190 459l-191 -459h-198l-182 942h196l127 -678l209 520h78l209 -520l127 678h196z" glyph-name="wdieresis.aalt" horiz-adv-x="1359"/><glyph d="M473 1331h193l145 -196v-66h-137l-201 195v67zM1251 942l-182 -942h-199l-190 459l-191 -459h-198l-182 942h196l127 -678l209 520h78l209 -520l127 678h196z" glyph-name="wgrave.aalt" horiz-adv-x="1359"/><glyph d="M338 227q0 193 204 193t203 -193v-288q1 -195 -203 -195t-204 195v288zM541 313q-86 0 -86 -77v-308q0 -76 86 -75.5t86 75.5v308q0 77 -86 77zM584 39h-84v86h84v-86z" glyph-name="zero.inferior"/><glyph d="M729 -137v-109h-346v109h115v399l-88 -47l-56 96l174 99h88v-547h113z" glyph-name="one.inferior"/><glyph d="M451 -137h288v-109h-401v164l231 207q57 51 57 100t-21 68.5t-66 19.5t-64.5 -22.5t-19.5 -81.5h-117v37q0 74 52 124t151 50q205 0 204 -193q0 -92 -90 -170l-204 -178v-16z" glyph-name="two.inferior"/><glyph d="M748 -61q0 -195 -205 -195q-98 0 -151.5 50t-53.5 124v37h119q0 -61 19.5 -81.5t66.5 -20.5q86 0 86 75v19q0 92 -92 92h-39v90h39q92 0 92 88v21q0 76 -86 75q-47 0 -66.5 -21.5t-19.5 -82.5h-119v37q0 74 53 124t152 50q205 0 205 -193q0 -102 -66 -145q66 -41 66 -143 z" glyph-name="three.inferior"/><glyph d="M760 -117h-78v-129h-119v129h-241v113l194 414h131l-192 -418h108v141h119v-141h78v-109z" glyph-name="four.inferior"/><glyph d="M572 199q72 0 124 -51.5t52 -143.5v-65q0 -195 -205 -195q-100 0 -152.5 49t-52.5 129h119q0 -70 86 -69.5t86 75.5v86q0 76 -79 76t-106 -57l-100 18l21 359h364v-107h-262l-8 -127q41 23 113 23z" glyph-name="five.inferior"/><glyph d="M572 178q76 0 126 -51t50 -143v-45q0 -195 -205 -195t-205 195v288q0 193 203 193q98 0 148 -49t50 -140h-118q0 82 -82 82t-82 -77v-82q39 24 115 24zM629 -72v64q0 78 -86 78t-86 -86v-56q0 -76 86 -76t86 76z" glyph-name="six.inferior"/><glyph d="M741 410v-160l-219 -496h-119l220 490v59h-166v-59h-113v166h397z" glyph-name="seven.inferior"/><glyph d="M754 -53q0 -203 -212 -203t-212 203q0 103 76 141q-62 43 -62 137t50 144.5t147 50.5q199 0 198 -193q0 -96 -61 -139q76 -39 76 -141zM463 233v-18q0 -80 80 -80t80 80v18q0 37 -21.5 58.5t-60.5 21.5q-78 0 -78 -80zM635 -66v19q0 88 -93 88t-93 -88v-19q0 -82 93 -82 t93 82z" glyph-name="eight.inferior"/><glyph d="M543 420q205 0 205 -195v-286q0 -195 -203 -195q-98 0 -148.5 49t-50.5 139h119q0 -80 82 -80t82 76v84q-39 -24 -116 -24t-126 50t-49 142v45q0 195 205 195zM457 172q0 -76 86 -76t86 84v56q0 78 -86 77.5t-86 -77.5v-64z" glyph-name="nine.inferior"/><glyph d="M338 473q0 193 204 193t203 -193v-289q1 -194 -203 -194t-204 194v289zM541 559q-86 0 -86 -78v-307q0 -76 86 -76t86 76v307q0 78 -86 78zM584 285h-84v86h84v-86z" glyph-name="zero.dnom"/><glyph d="M729 109v-109h-346v109h115v399l-88 -47l-56 96l174 98h88v-546h113z" glyph-name="one.dnom"/><glyph d="M451 109h288v-109h-401v166l231 205q57 51 57 100t-21 68.5t-66 19.5t-64.5 -22.5t-19.5 -81.5h-117v37q0 74 52 124t151 50q205 0 204 -193q0 -92 -90 -170l-204 -178v-16z" glyph-name="two.dnom"/><glyph d="M748 184q0 -195 -205 -194q-100 0 -152.5 50t-52.5 126v35h119q0 -61 19.5 -82t66.5 -21q86 0 86 76v19q0 92 -92 92h-39v90h39q92 0 92 88v20q0 76 -86 76q-47 0 -66.5 -21.5t-19.5 -82.5h-119v37q0 74 53 124t152 50q205 0 205 -193q0 -102 -66 -145q66 -41 66 -144z " glyph-name="three.dnom"/><glyph d="M760 129h-78v-129h-119v129h-241v113l194 413h131l-192 -417h108v141h119v-141h78v-109z" glyph-name="four.dnom"/><glyph d="M572 444q72 0 124 -51t52 -143v-66q0 -195 -205 -194q-100 0 -152.5 49t-52.5 129h119q0 -70 86 -70t86 76v86q0 76 -79 76t-106 -57l-100 18l21 358h364v-106h-262l-8 -127q41 22 113 22z" glyph-name="five.dnom"/><glyph d="M572 424q76 0 126 -51t50 -144v-45q0 -195 -205 -194.5t-205 194.5v289q0 193 203 193q98 0 148 -49.5t50 -139.5h-118q0 82 -82 82t-82 -78v-82q39 25 115 25zM629 174v66q0 76 -84 75q-88 0 -88 -86v-55q0 -76 86 -76t86 76z" glyph-name="six.dnom"/><glyph d="M741 655v-159l-219 -496h-119l220 489v60h-166v-60h-113v166h397z" glyph-name="seven.dnom"/><glyph d="M754 192q0 -202 -212 -202t-212 202q0 102 76 142q-62 43 -62 137t50 144.5t147 50.5q199 0 198 -193q0 -96 -61 -139q76 -40 76 -142zM463 479v-18q0 -80 80 -80t80 80v18q0 37 -21.5 58.5t-60.5 21.5q-78 0 -78 -80zM635 180v21q0 86 -93 86t-93 -86v-21 q0 -39 25.5 -60.5t67.5 -21.5t67.5 21.5t25.5 60.5z" glyph-name="eight.dnom"/><glyph d="M543 666q205 0 205 -195v-287q0 -195 -203 -194q-98 0 -148.5 50t-50.5 138h119q0 -80 82 -80t82 76v84q-39 -25 -116 -25t-126 50.5t-49 142.5v45q0 195 205 195zM457 418q0 -76 86 -76t86 84v55q0 78 -86 78t-86 -78v-63z" glyph-name="nine.dnom"/><glyph d="M338 1128q0 193 204 193t203 -193v-288q1 -195 -203 -195t-204 195v288zM541 1214q-86 0 -86 -77v-308q0 -76 86 -75.5t86 75.5v308q0 77 -86 77zM584 940h-84v86h84v-86z" glyph-name="zero.numr"/><glyph d="M729 764v-109h-346v109h115v399l-88 -47l-56 96l174 99h88v-547h113z" glyph-name="one.numr"/><glyph d="M451 764h288v-109h-401v166l231 205q57 51 57 100t-21 68.5t-66 19.5t-64.5 -22.5t-19.5 -81.5h-117v37q0 74 52 124t151 50q205 0 204 -193q0 -92 -90 -170l-204 -178v-16z" glyph-name="two.numr"/><glyph d="M748 840q0 -195 -205 -195q-100 0 -152.5 50t-52.5 126v35h119q0 -61 19.5 -81.5t66.5 -20.5q86 0 86 75v19q0 92 -92 92h-39v90h39q92 0 92 88v21q0 76 -86 75q-47 0 -66.5 -21.5t-19.5 -82.5h-119v37q0 74 53 124t152 50q205 0 205 -193q0 -102 -66 -145 q66 -41 66 -143z" glyph-name="three.numr"/><glyph d="M760 784h-78v-129h-119v129h-241v113l194 414h131l-192 -418h108v141h119v-141h78v-109z" glyph-name="four.numr"/><glyph d="M572 1100q72 0 124 -51.5t52 -143.5v-65q0 -195 -205 -195q-100 0 -152.5 49t-52.5 129h119q0 -70 86 -69.5t86 75.5v86q0 76 -79 76t-106 -57l-100 18l21 359h364v-107h-262l-8 -127q41 23 113 23z" glyph-name="five.numr"/><glyph d="M572 1079q76 0 126 -51t50 -143v-45q0 -195 -205 -195t-205 195v288q0 193 203 193q98 0 148 -49t50 -139h-118q0 81 -82 81t-82 -77v-82q39 24 115 24zM629 829v66q0 76 -86 76t-86 -86v-56q0 -76 86 -76t86 76z" glyph-name="six.numr"/><glyph d="M741 1311v-160l-219 -496h-119l220 490v59h-166v-59h-113v166h397z" glyph-name="seven.numr"/><glyph d="M754 848q0 -203 -212 -203t-212 203q0 103 76 141q-62 43 -62 137t50 144.5t147 50.5q199 0 198 -193q0 -96 -61 -139q76 -39 76 -141zM463 1135v-19q0 -80 80 -80t80 80v19q0 37 -21.5 58t-60.5 21q-78 1 -78 -79zM635 836v20q0 86 -93 86t-93 -86v-20q0 -39 25.5 -60.5 t67.5 -21.5t67.5 21.5t25.5 60.5z" glyph-name="eight.numr"/><glyph d="M543 1321q205 0 205 -195v-286q0 -195 -203 -195q-98 0 -148.5 50t-50.5 139h119q0 -80 82 -80t82 75v84q-39 -25 -116 -25t-126 50.5t-49 142.5v45q0 195 205 195zM457 1073q0 -76 86 -76t86 84v56q0 78 -86 77.5t-86 -77.5v-64z" glyph-name="nine.numr"/><glyph d="M674 1049h-262v262h262v-262zM645 0h-205v475l27 332h151l27 -332v-475z" glyph-name="exclamdown.case"/><glyph d="M674 1049h-262v262h262v-262zM944 408v-48q0 -182 -100.5 -281t-301 -99t-301 99t-100.5 281v43q0 332 305 377l5 113h186l8 -289h-102q-197 0 -197 -178v-80q0 -178 196.5 -178t196.5 178v62h205z" glyph-name="questiondown.aalt"/><glyph d="M438 430h-262v262h262v-262z" glyph-name="periodcentered.aalt" horiz-adv-x="616"/><glyph d="M438 680h-262v262h262v-262zM438 0h-262v262h262v-262z" glyph-name="colon.aalt" horiz-adv-x="616"/><glyph d="M438 262v-188l-127 -332h-121l74 258h-88v262h262z" glyph-name="comma.aalt" horiz-adv-x="616"/><glyph d="M205 1311h205v-475l-27 -332h-152l-26 332v475zM438 0h-262v262h262v-262z" glyph-name="exclam.aalt" horiz-adv-x="616"/><glyph d="M438 680h-262v262h262v-262zM410 -369h-205v475l26 332h152l27 -332v-475z" glyph-name="exclamdown.salt" horiz-adv-x="616"/><glyph d="M438 0h-262v262h262v-262z" glyph-name="period.aalt" horiz-adv-x="616"/><glyph d="M352 760h-145l-31 551h207z" glyph-name="quotesingle.aalt" horiz-adv-x="559"/><glyph d="M438 942v-262h-262v262h262zM176 262h262v-188l-127 -332h-121l74 258h-88v262z" glyph-name="semicolon.aalt" horiz-adv-x="616"/><glyph d="M879 1491v-184q-150 0 -195 -27.5t-45 -105.5v-293q0 -74 -40 -135.5t-116 -88.5q76 -29 116 -90t40 -133v-295q0 -78 45 -105.5t195 -27.5v-186q-336 0 -388.5 96t-52.5 201l8 291q0 152 -241 159v178q242 8 241 160l-8 291q0 102 52.5 198.5t388.5 96.5z" glyph-name="braceleft.aalt"/><glyph d="M207 6q150 0 194.5 27.5t44.5 105.5v295q0 72 40 133.5t116 89.5q-76 27 -116 88.5t-40 135.5v293q0 78 -45 105.5t-194 27.5v184q336 0 388 -96.5t52 -198.5l-8 -291q0 -152 242 -160v-178q-242 -8 -242 -159l8 -291q0 -104 -51.5 -200.5t-388.5 -96.5v186z" glyph-name="braceright.aalt"/><glyph d="M545 1278v-1245h254v-189h-459v1622h459v-188h-254z" glyph-name="bracketleft.aalt"/><glyph d="M748 1466v-1622h-459v189h254v1245h-254v188h459z" glyph-name="bracketright.aalt"/><glyph d="M320 648q0 488 317 859l149 -123q-246 -324 -245.5 -737.5t245.5 -736.5l-149 -123q-317 373 -317 861z" glyph-name="parenleft.aalt"/><glyph d="M543 647q0 413 -246 737l149 123q318 -367 318 -858t-318 -862l-149 123q246 324 246 737z" glyph-name="parenright.aalt"/><glyph d="M631 475h-488v168h488v-168z" glyph-name="hyphen.aalt" horiz-adv-x="774"/><glyph d="M352 643l199 -332l-158 -86l-260 418l260 420l158 -88zM721 643l186 -311l-157 -86l-248 397l248 397l157 -86z" glyph-name="guillemotleft.aalt"/><glyph d="M952 643l-260 -418l-157 86l198 332l-198 332l157 88zM584 643l-246 -397l-160 86l187 311l-187 311l160 86z" glyph-name="guillemotright.aalt"/><glyph d="M512 643l225 -375l-155 -90l-289 465l289 467l155 -92z" glyph-name="guilsinglleft.case"/><glyph d="M795 643l-291 -465l-154 90l225 375l-225 375l154 92z" glyph-name="guilsinglright.case"/><glyph d="M348 520l225 -375l-155 -90l-289 465l289 467l155 -92z" glyph-name="guilsinglleft.salt" horiz-adv-x="722"/><glyph d="M596 520l-291 -465l-153 90l225 375l-225 375l153 92z" glyph-name="guilsinglright.salt" horiz-adv-x="722"/><glyph d="M438 1124v-262h-262v191l127 329h123l-74 -258h86z" glyph-name="quoteleft.aalt" horiz-adv-x="616"/><glyph d="M438 1311v-189l-127 -331h-121l74 258h-88v262h262z" glyph-name="quoteright.aalt" horiz-adv-x="616"/><glyph d="M438 262v-188l-127 -332h-121l74 258h-88v262h262z" glyph-name="quotesinglbase.aalt" horiz-adv-x="616"/><glyph glyph-name="space.aalt" horiz-adv-x="702"/></font>
</defs>
</svg>
